<svg width="25" height="25" viewBox="0 0 25 25" fill="none" xmlns="http://www.w3.org/2000/svg">
<g id="meeting icon">
<path id="Vector" d="M12.5 6.27189C12.5 5.85864 12.4186 5.44943 12.2604 5.06763C12.1023 4.68584 11.8705 4.33893 11.5783 4.04671C11.286 3.7545 10.9391 3.5227 10.5573 3.36456C10.1755 3.20641 9.76633 3.12502 9.35308 3.12502H6.27183C5.85521 3.11966 5.44166 3.19709 5.0552 3.35281C4.66873 3.50854 4.31704 3.73946 4.02053 4.03219C3.72402 4.32491 3.48859 4.6736 3.3279 5.05803C3.16722 5.44246 3.08447 5.85497 3.08447 6.27163C3.08447 6.68829 3.16722 7.1008 3.3279 7.48523C3.48859 7.86966 3.72402 8.21835 4.02053 8.51107C4.31704 8.8038 4.66873 9.03472 5.0552 9.19045C5.44166 9.34618 5.85521 9.42361 6.27183 9.41825H6.87496V10.9375C6.87496 10.9375 12.5 10.1781 12.5 6.27189ZM9.63537 14.5833C9.63537 15.7344 8.70308 16.6667 7.55204 16.6667C6.401 16.6667 5.46871 15.7344 5.46871 14.5833C5.46871 13.4323 6.401 12.5 7.55204 12.5C8.70308 12.5 9.63537 13.4323 9.63537 14.5833ZM7.55204 17.7083C6.07444 17.7083 3.12496 18.4531 3.12496 19.9307V21.875H11.9791V19.9307C11.9791 18.4526 9.02964 17.7083 7.55204 17.7083ZM17.4479 16.6667C18.5989 16.6667 19.5312 15.7344 19.5312 14.5833C19.5312 13.4323 18.5989 12.5 17.4479 12.5C16.2968 12.5 15.3645 13.4323 15.3645 14.5833C15.3645 15.7344 16.2968 16.6667 17.4479 16.6667ZM17.4479 17.7083C15.9703 17.7083 13.0208 18.4531 13.0208 19.9307V21.875H21.875V19.9307C21.875 18.4526 18.9255 17.7083 17.4479 17.7083ZM16.6885 3.64585C15.8539 3.64585 15.0535 3.97739 14.4633 4.56755C13.8732 5.1577 13.5416 5.95812 13.5416 6.79272C13.5416 10.699 18.5416 11.4583 18.5416 11.4583V9.93908H18.7281C19.1447 9.94444 19.5582 9.86701 19.9447 9.71128C20.3312 9.55555 20.6829 9.32463 20.9794 9.03191C21.2759 8.73919 21.5113 8.39049 21.672 8.00607C21.8327 7.62164 21.9154 7.20912 21.9154 6.79246C21.9154 6.3758 21.8327 5.96329 21.672 5.57886C21.5113 5.19443 21.2759 4.84574 20.9794 4.55302C20.6829 4.2603 20.3312 4.02937 19.9447 3.87365C19.5582 3.71792 19.1447 3.64049 18.7281 3.64585H16.6885Z" fill="white"/>
</g>
</svg>
