<svg width="40" height="40" viewBox="0 0 40 40" fill="none" xmlns="http://www.w3.org/2000/svg">
<path d="M38.0382 2.53333C36.6667 0.971428 34.6286 0 32.381 0C30.2477 0 28.3048 0.876191 26.9143 2.30476C26.1143 3.12381 25.5048 4.11429 25.1429 5.21905C24.8953 5.98095 24.762 6.78095 24.762 7.61905C24.762 9.04762 25.162 10.4 25.8667 11.5429C26.2477 12.1905 26.7429 12.781 27.3143 13.2762C28.6477 14.4952 30.4191 15.2381 32.381 15.2381C33.2191 15.2381 34.0191 15.1048 34.762 14.8381C36.5143 14.2857 37.981 13.0857 38.8953 11.5429C39.2953 10.8952 39.6001 10.1524 39.7715 9.39048C39.9239 8.81905 40.0001 8.22857 40.0001 7.61905C40.0001 5.67619 39.2572 3.88571 38.0382 2.53333ZM35.2191 9.00952H33.8096V10.4952C33.8096 11.2762 33.162 11.9238 32.381 11.9238C31.6001 11.9238 30.9524 11.2762 30.9524 10.4952V9.00952H29.5429C28.762 9.00952 28.1143 8.36191 28.1143 7.58095C28.1143 6.8 28.762 6.15238 29.5429 6.15238H30.9524V4.8C30.9524 4.01905 31.6001 3.37143 32.381 3.37143C33.162 3.37143 33.8096 4.01905 33.8096 4.8V6.15238H35.2191C36.0001 6.15238 36.6477 6.8 36.6477 7.58095C36.6477 8.36191 36.0191 9.00952 35.2191 9.00952Z" fill="#FF3F4A"/>
<path d="M38.0952 20.9519C38.0952 18.4567 37.619 16.0567 36.7238 13.8662C36.1333 14.2852 35.4667 14.6091 34.7619 14.8376C34.5524 14.9138 34.3429 14.971 34.1143 15.0281C34.8381 16.8567 35.2381 18.8567 35.2381 20.9519C35.2381 25.371 33.4476 29.39 30.5524 32.3233C30 31.6186 29.2952 30.971 28.4571 30.4186C23.2952 26.9519 14.8381 26.9519 9.63809 30.4186C8.8 30.971 8.11429 31.6186 7.54286 32.3233C4.64762 29.39 2.85714 25.371 2.85714 20.9519C2.85714 12.0186 10.1143 4.76144 19.0476 4.76144C21.1238 4.76144 23.1238 5.16144 24.9524 5.88525C25.0095 5.65668 25.0667 5.44715 25.1429 5.21858C25.3714 4.51382 25.6952 3.8662 26.1333 3.27573C23.9429 2.38049 21.5429 1.9043 19.0476 1.9043C8.55238 1.9043 0 10.4567 0 20.9519C0 26.4757 2.38095 31.4472 6.15238 34.9329C6.15238 34.9519 6.15238 34.9519 6.13333 34.971C6.32381 35.1614 6.55238 35.3138 6.74286 35.4852C6.85714 35.5805 6.95238 35.6757 7.06667 35.7519C7.40952 36.0376 7.79048 36.3043 8.15238 36.571C8.28572 36.6662 8.4 36.7424 8.53333 36.8376C8.89524 37.0853 9.27619 37.3138 9.67619 37.5233C9.80952 37.5995 9.96191 37.6948 10.0952 37.771C10.4762 37.9805 10.8762 38.171 11.2952 38.3424C11.4476 38.4186 11.6 38.4948 11.7524 38.5519C12.1714 38.7233 12.5905 38.8757 13.0095 39.0091C13.1619 39.0662 13.3143 39.1233 13.4667 39.1614C13.9238 39.2948 14.381 39.4091 14.8381 39.5233C14.9714 39.5614 15.1048 39.5995 15.2571 39.6186C15.7905 39.7329 16.3238 39.8091 16.8762 39.8662C16.9524 39.8662 17.0286 39.8853 17.1048 39.9043C17.7524 39.9614 18.4 39.9995 19.0476 39.9995C19.6952 39.9995 20.3429 39.9614 20.9714 39.9043C21.0476 39.9043 21.1238 39.8853 21.2 39.8662C21.7524 39.8091 22.2857 39.7329 22.819 39.6186C22.9524 39.5995 23.0857 39.5424 23.2381 39.5233C23.6952 39.4091 24.1714 39.3138 24.6095 39.1614C24.7619 39.1043 24.9143 39.0472 25.0667 39.0091C25.4857 38.8567 25.9238 38.7233 26.3238 38.5519C26.4762 38.4948 26.6286 38.4186 26.781 38.3424C27.181 38.171 27.581 37.9805 27.981 37.771C28.1333 37.6948 28.2667 37.5995 28.4 37.5233C28.781 37.2948 29.1619 37.0853 29.5429 36.8376C29.6762 36.7614 29.7905 36.6662 29.9238 36.571C30.3048 36.3043 30.6667 36.0376 31.0095 35.7519C31.1238 35.6567 31.219 35.5614 31.3333 35.4852C31.5429 35.3138 31.7524 35.1424 31.9429 34.971C31.9429 34.9519 31.9429 34.9519 31.9238 34.9329C35.7143 31.4472 38.0952 26.4757 38.0952 20.9519Z" fill="#FF3F4A"/>
<path d="M19.0476 11.2949C15.1048 11.2949 11.9048 14.4949 11.9048 18.4378C11.9048 22.3045 14.9334 25.4473 18.9524 25.5616H19.1238H19.2572H19.2953C23.1429 25.4283 26.1715 22.3045 26.1905 18.4378C26.1905 14.4949 22.9905 11.2949 19.0476 11.2949Z" fill="#FF3F4A"/>
</svg>
