<svg width="35" height="35" viewBox="0 0 35 35" fill="none" xmlns="http://www.w3.org/2000/svg">
<path fill-rule="evenodd" clip-rule="evenodd" d="M5.25 0C3.85761 0 2.52226 0.553124 1.53769 1.53769C0.553124 2.52226 0 3.85761 0 5.25V29.75C0 31.1424 0.553124 32.4777 1.53769 33.4623C2.52226 34.4469 3.85761 35 5.25 35H21V26.25C21 24.8576 21.5531 23.5223 22.5377 22.5377C23.5223 21.5531 24.8576 21 26.25 21H35V5.25C35 3.85761 34.4469 2.52226 33.4623 1.53769C32.4777 0.553124 31.1424 0 29.75 0H5.25ZM26.7627 33.4618C26.1337 34.0908 25.355 34.5496 24.5 34.7952V26.25C24.5 25.7859 24.6844 25.3408 25.0126 25.0126C25.3408 24.6844 25.7859 24.5 26.25 24.5H34.7952C34.5496 25.355 34.0908 26.1337 33.4618 26.7627L26.7627 33.4618ZM8.75 7C8.28587 7 7.84075 7.18437 7.51256 7.51256C7.18437 7.84075 7 8.28587 7 8.75C7 9.21413 7.18437 9.65925 7.51256 9.98744C7.84075 10.3156 8.28587 10.5 8.75 10.5H26.25C26.7141 10.5 27.1592 10.3156 27.4874 9.98744C27.8156 9.65925 28 9.21413 28 8.75C28 8.28587 27.8156 7.84075 27.4874 7.51256C27.1592 7.18437 26.7141 7 26.25 7H8.75ZM8.75 14C8.28587 14 7.84075 14.1844 7.51256 14.5126C7.18437 14.8408 7 15.2859 7 15.75C7 16.2141 7.18437 16.6592 7.51256 16.9874C7.84075 17.3156 8.28587 17.5 8.75 17.5H26.25C26.7141 17.5 27.1592 17.3156 27.4874 16.9874C27.8156 16.6592 28 16.2141 28 15.75C28 15.2859 27.8156 14.8408 27.4874 14.5126C27.1592 14.1844 26.7141 14 26.25 14H8.75ZM8.75 21C8.28587 21 7.84075 21.1844 7.51256 21.5126C7.18437 21.8408 7 22.2859 7 22.75C7 23.2141 7.18437 23.6592 7.51256 23.9874C7.84075 24.3156 8.28587 24.5 8.75 24.5H15.75C16.2141 24.5 16.6592 24.3156 16.9874 23.9874C17.3156 23.6592 17.5 23.2141 17.5 22.75C17.5 22.2859 17.3156 21.8408 16.9874 21.5126C16.6592 21.1844 16.2141 21 15.75 21H8.75Z" fill="#3F3E4B"/>
</svg>
