<svg width="35" height="38" viewBox="0 0 35 38" fill="none" xmlns="http://www.w3.org/2000/svg">
<path d="M26.5064 25.3813C27.7527 24.5629 29.3897 25.4558 29.3897 26.9439V29.3436C29.3897 31.7061 27.5481 34.236 25.3344 34.9801L19.4003 36.9519C18.3586 37.3053 16.6658 37.3053 15.6427 36.9519L9.70859 34.9801C7.47633 34.236 5.65332 31.7061 5.65332 29.3436V26.9253C5.65332 25.4558 7.29031 24.5629 8.51805 25.3627L12.3501 27.8554C13.8197 28.8413 15.6799 29.325 17.5401 29.325C19.4003 29.325 21.2605 28.8413 22.7301 27.8554L26.5064 25.3813Z" fill="#FF3F4A"/>
<path d="M32.363 8.30121L21.2204 0.990565C19.2113 -0.330188 15.9001 -0.330188 13.8911 0.990565L2.69266 8.30121C-0.897554 10.6265 -0.897554 15.8909 2.69266 18.2348L5.66901 20.1694L13.8911 25.5268C15.9001 26.8476 19.2113 26.8476 21.2204 25.5268L29.3867 20.1694L31.9352 18.4952V24.1875C31.9352 24.9502 32.5677 25.5826 33.3304 25.5826C34.0931 25.5826 34.7255 24.9502 34.7255 24.1875V15.0352C35.4696 12.6355 34.7069 9.84519 32.363 8.30121Z" fill="#FF3F4A"/>
</svg>
