<svg width="25" height="26" viewBox="0 0 25 26" fill="none" xmlns="http://www.w3.org/2000/svg">
<g clip-path="url(#clip0_508_918)">
<path d="M15.625 23.9165H13.2812C12.867 23.9161 12.4698 23.7513 12.1769 23.4584C11.8839 23.1654 11.7192 22.7683 11.7188 22.354V18.4478H13.2812V22.354H15.625V18.4478H17.1875V15.3228C17.1873 15.1156 17.1049 14.917 16.9584 14.7706C16.812 14.6241 16.6134 14.5417 16.4062 14.5415H9.5932L8.0307 9.854H3.125C2.91787 9.85423 2.71929 9.93661 2.57282 10.0831C2.42636 10.2295 2.34398 10.4281 2.34375 10.6353V15.3228H3.90625V22.354H7.03125V16.8853H8.59375V22.354C8.59332 22.7683 8.42856 23.1654 8.13562 23.4584C7.84269 23.7513 7.44552 23.9161 7.03125 23.9165H3.90625C3.49198 23.9161 3.09481 23.7513 2.80188 23.4584C2.50894 23.1654 2.34418 22.7683 2.34375 22.354V16.8853C1.92948 16.8848 1.53231 16.7201 1.23938 16.4271C0.946444 16.1342 0.781684 15.737 0.78125 15.3228V10.6353C0.781932 10.0139 1.02908 9.41812 1.46847 8.97873C1.90786 8.53934 2.50361 8.29219 3.125 8.2915H8.0307C8.35871 8.29124 8.67846 8.3943 8.94456 8.58607C9.21067 8.77783 9.4096 9.04855 9.51312 9.35979L10.7193 12.979H16.4062C17.0276 12.9797 17.6234 13.2268 18.0628 13.6662C18.5022 14.1056 18.7493 14.7014 18.75 15.3228V18.4478C18.7496 18.862 18.5848 19.2592 18.2919 19.5521C17.9989 19.8451 17.6018 20.0098 17.1875 20.0103V22.354C17.1871 22.7683 17.0223 23.1654 16.7294 23.4584C16.4364 23.7513 16.0393 23.9161 15.625 23.9165Z" fill="#FF3F4A"/>
<path d="M21.875 23.9165H20.3125V15.3228H22.6562V10.6353C22.656 10.4281 22.5736 10.2295 22.4272 10.0831C22.2807 9.93661 22.0821 9.85423 21.875 9.854H18.75V8.2915H21.875C22.4964 8.29219 23.0921 8.53934 23.5315 8.97873C23.9709 9.41812 24.2181 10.0139 24.2188 10.6353V15.3228C24.2183 15.737 24.0536 16.1342 23.7606 16.4271C23.4677 16.7201 23.0705 16.8848 22.6562 16.8853H21.875V23.9165Z" fill="#FF3F4A"/>
<path d="M5.46875 7.51026C4.85068 7.51026 4.2465 7.32698 3.73259 6.9836C3.21869 6.64022 2.81815 6.15216 2.58163 5.58114C2.3451 5.01012 2.28322 4.38179 2.4038 3.7756C2.52438 3.16941 2.822 2.61259 3.25904 2.17555C3.69608 1.73851 4.2529 1.44088 4.85909 1.3203C5.46528 1.19972 6.09362 1.26161 6.66464 1.49813C7.23566 1.73466 7.72371 2.13519 8.06709 2.6491C8.41047 3.163 8.59375 3.76719 8.59375 4.38526C8.59282 5.21377 8.26328 6.00809 7.67743 6.59394C7.09158 7.17979 6.29727 7.50933 5.46875 7.51026ZM5.46875 2.82276C5.15972 2.82276 4.85762 2.91439 4.60067 3.08608C4.34372 3.25777 4.14345 3.5018 4.02519 3.78731C3.90693 4.07282 3.87598 4.38699 3.93627 4.69008C3.99656 4.99318 4.14538 5.27159 4.3639 5.49011C4.58242 5.70863 4.86083 5.85744 5.16392 5.91773C5.46702 5.97802 5.78118 5.94708 6.06669 5.82882C6.3522 5.71056 6.59623 5.51029 6.76792 5.25333C6.93961 4.99638 7.03125 4.69429 7.03125 4.38526C7.03082 3.97099 6.86606 3.57381 6.57313 3.28088C6.28019 2.98795 5.88302 2.82319 5.46875 2.82276Z" fill="#FF3F4A"/>
<path d="M19.5313 7.51026C18.9132 7.51026 18.309 7.32698 17.7951 6.9836C17.2812 6.64022 16.8807 6.15216 16.6441 5.58114C16.4076 5.01012 16.3457 4.38179 16.4663 3.7756C16.5869 3.16941 16.8845 2.61259 17.3215 2.17555C17.7586 1.73851 18.3154 1.44088 18.9216 1.3203C19.5278 1.19972 20.1561 1.26161 20.7271 1.49813C21.2982 1.73466 21.7862 2.13519 22.1296 2.6491C22.473 3.163 22.6563 3.76719 22.6563 4.38526C22.6553 5.21377 22.3258 6.00809 21.7399 6.59394C21.1541 7.17979 20.3598 7.50933 19.5313 7.51026ZM19.5313 2.82276C19.2222 2.82276 18.9201 2.91439 18.6632 3.08608C18.4062 3.25777 18.206 3.5018 18.0877 3.78731C17.9694 4.07282 17.9385 4.38699 17.9988 4.69008C18.0591 4.99318 18.2079 5.27159 18.4264 5.49011C18.6449 5.70863 18.9233 5.85744 19.2264 5.91773C19.5295 5.97802 19.8437 5.94708 20.1292 5.82882C20.4147 5.71056 20.6587 5.51029 20.8304 5.25333C21.0021 4.99638 21.0938 4.69429 21.0938 4.38526C21.0933 3.97099 20.9286 3.57381 20.6356 3.28088C20.3427 2.98795 19.9455 2.82319 19.5313 2.82276Z" fill="#FF3F4A"/>
<path d="M14.4531 12.1978C13.9123 12.1978 13.3837 12.0374 12.934 11.7369C12.4843 11.4365 12.1339 11.0094 11.9269 10.5098C11.7199 10.0101 11.6658 9.46035 11.7713 8.92993C11.8768 8.39951 12.1372 7.91229 12.5196 7.52989C12.902 7.14748 13.3893 6.88705 13.9197 6.78155C14.4501 6.67604 14.9999 6.73019 15.4995 6.93715C15.9992 7.14411 16.4262 7.49458 16.7267 7.94424C17.0271 8.39391 17.1875 8.92257 17.1875 9.46338C17.1867 10.1883 16.8983 10.8833 16.3857 11.3959C15.8731 11.9086 15.1781 12.1969 14.4531 12.1978ZM14.4531 8.29151C14.2214 8.29151 13.9948 8.36023 13.8021 8.489C13.6094 8.61777 13.4592 8.80079 13.3705 9.01492C13.2818 9.22906 13.2586 9.46468 13.3038 9.692C13.349 9.91932 13.4606 10.1281 13.6245 10.292C13.7884 10.4559 13.9972 10.5675 14.2245 10.6127C14.4518 10.658 14.6875 10.6347 14.9016 10.5461C15.1157 10.4574 15.2987 10.3072 15.4275 10.1144C15.5563 9.92173 15.625 9.69516 15.625 9.46338C15.6247 9.15269 15.5011 8.85482 15.2814 8.63513C15.0617 8.41543 14.7638 8.29186 14.4531 8.29151Z" fill="#FF3F4A"/>
</g>
<defs>
<clipPath id="clip0_508_918">
<rect width="25" height="25" fill="white" transform="translate(0 0.479004)"/>
</clipPath>
</defs>
</svg>
