<svg width="40" height="40" viewBox="0 0 40 40" fill="none" xmlns="http://www.w3.org/2000/svg">
<path fill-rule="evenodd" clip-rule="evenodd" d="M2.8125 39.25H37.1889C37.5684 39.25 37.8764 38.942 37.8764 38.5625V21.375C39.0149 21.375 39.9375 20.451 39.9375 19.3125V16.5625C39.9375 16.183 39.6295 15.875 39.25 15.875H37.1875V13.8125C37.1875 12.674 36.2635 11.75 35.125 11.75H33.75C32.6115 11.75 31.6875 12.674 31.6875 13.8125V15.875H29.625C29.2455 15.875 28.9375 16.183 28.9375 16.5625V19.3125C28.9375 20.451 29.8615 21.375 31 21.375V25.5H26.7031V23.4375C26.7031 22.6056 26.2095 21.8879 25.5 21.562V17.25H26.1875C27.326 17.25 28.25 16.326 28.25 15.1875V12.4609C28.25 12.4526 28.25 12.4457 28.25 12.4375V9.6875C28.25 8.549 27.3274 7.625 26.1875 7.625H24.8125C23.6836 7.625 22.7651 8.5325 22.75 9.65862C22.7349 8.5325 21.8178 7.625 20.6875 7.625V6.67487L25.808 4.11462C26.0514 3.99225 26.2013 3.7365 26.1861 3.46425C26.1724 3.19062 25.9978 2.95275 25.742 2.8565L20.2406 0.793998C19.8859 0.660623 19.4885 0.840748 19.3551 1.1955C19.3207 1.28762 19.3084 1.38112 19.3125 1.47187L19.3111 7.625C18.1726 7.625 17.25 8.549 17.25 9.6875H17.2486C17.2486 8.549 16.3246 7.625 15.1861 7.625C14.7434 7.625 14.2539 7.625 13.8125 7.625C12.674 7.625 11.75 8.549 11.75 9.6875V12.4361V15.1875C11.75 16.326 12.674 17.25 13.8125 17.25H14.5V21.4919C13.6984 21.7751 13.125 22.5396 13.125 23.4375V25.5H9V21.375C9.54725 21.375 10.0711 21.1577 10.4589 20.7714C10.8453 20.3836 11.0625 19.8597 11.0625 19.3125C11.0625 18.1121 11.0625 16.5611 11.0625 16.5611C11.0625 16.1802 10.7545 15.8736 10.375 15.8736H8.3125V13.8125C8.3125 12.674 7.3885 11.75 6.25 11.75H4.875C3.7365 11.75 2.8125 12.674 2.8125 13.8125V15.8736H0.75C0.3705 15.8736 0.0625 16.1802 0.0625 16.5611V19.3125C0.0625 19.8597 0.27975 20.3836 0.666125 20.7714C1.05388 21.1577 1.57775 21.375 2.125 21.375V38.5625C2.125 38.942 2.433 39.25 2.8125 39.25ZM24.125 33.7486V37.875H31V26.875H9V37.875H15.8736V33.75C15.8736 33.7335 15.8736 33.717 15.875 33.7019V33.6991C15.9039 31.5459 17.7313 29.79 20 29.79C22.2852 29.79 24.125 31.5734 24.125 33.7486ZM7.625 21.375V37.875H3.5V21.375H7.625ZM32.375 37.875V21.375H36.5014V37.875H32.375ZM22.75 33.7486C22.75 32.3131 21.5084 31.165 20 31.165C18.4916 31.165 17.25 32.3131 17.25 33.7486C17.25 33.7651 17.25 33.7803 17.2486 33.7954V37.875H20H22.75V33.7486ZM25.3281 25.5H14.5V23.4375C14.5 23.058 14.808 22.75 15.1875 22.75H24.6406C25.0201 22.75 25.3281 23.058 25.3281 23.4375V25.5ZM24.125 17.25V21.375H15.875V17.25H24.125ZM9.6875 17.2486H1.4375V19.3125C1.4375 19.4954 1.51037 19.67 1.63825 19.7992C1.7675 19.9271 1.94212 20 2.125 20H9C9.18287 20 9.3575 19.9271 9.48675 19.7992C9.61462 19.67 9.6875 19.4954 9.6875 19.3125V17.2486ZM38.5625 17.25H30.3125V19.3125C30.3125 19.692 30.6205 20 31 20H37.875C38.2545 20 38.5625 19.692 38.5625 19.3125V17.25ZM26.875 13.125H13.125V15.1875C13.125 15.567 13.433 15.875 13.8125 15.875H26.1875C26.567 15.875 26.875 15.567 26.875 15.1875V13.125ZM35.8125 15.875H33.0625V13.8125C33.0625 13.433 33.3705 13.125 33.75 13.125H35.125C35.5045 13.125 35.8125 13.433 35.8125 13.8125V15.875ZM6.9375 15.8736H4.1875C4.1875 15.8021 4.1875 13.8125 4.1875 13.8125C4.1875 13.433 4.4955 13.125 4.875 13.125H6.25C6.6295 13.125 6.9375 13.433 6.9375 13.8125V15.8736ZM21.375 9.6875V11.75H18.625V9.6875C18.625 9.308 18.933 9 19.3125 9H20.6875C21.067 9 21.375 9.308 21.375 9.6875ZM26.875 9.6875V11.75H24.125V9.6875C24.125 9.308 24.433 9 24.8125 9H26.1875C26.567 9 26.875 9.308 26.875 9.6875ZM15.8736 9.6875V11.7486H13.125V9.6875C13.125 9.308 13.433 9 13.8125 9H15.1861C15.5656 9 15.8736 9.308 15.8736 9.6875ZM20.6875 2.43025V5.13762L23.7826 3.59075L20.6875 2.43025Z" fill="#FF3F4A"/>
</svg>
