<svg width="51" height="52" viewBox="0 0 51 52" fill="none" xmlns="http://www.w3.org/2000/svg">
<path d="M25.8411 32.2119L25.7457 31.9245L25.6186 31.6691L25.4278 31.4455C25.2915 31.3046 25.1285 31.1925 24.9483 31.116C24.7681 31.0394 24.5745 31 24.3789 31C24.1832 31 23.9896 31.0394 23.8094 31.116C23.6292 31.1925 23.4662 31.3046 23.3299 31.4455L23.1392 31.6691L23.012 31.9245C23.0053 32.0202 23.0053 32.1162 23.012 32.2119C22.996 32.3123 22.996 32.4147 23.012 32.5152C23.0124 32.707 23.0502 32.8968 23.1233 33.074C23.2042 33.2529 23.3174 33.4153 23.457 33.553C23.5888 33.6994 23.7518 33.814 23.9338 33.8882C24.1161 33.9606 24.3101 33.9985 24.506 34H24.7921L25.0782 33.9042L25.3325 33.7765C25.4162 33.7247 25.4913 33.6601 25.555 33.5849C25.7008 33.4526 25.8149 33.2888 25.8887 33.1059C25.9618 32.9288 25.9996 32.7389 26 32.5471C25.9577 32.4306 25.9045 32.3183 25.8411 32.2119Z" fill="#FF3F4A"/>
<path d="M14.8411 32.2119L14.7457 31.9245L14.6186 31.6691L14.4278 31.4455C14.2915 31.3046 14.1285 31.1925 13.9483 31.116C13.7681 31.0394 13.5745 31 13.3789 31C13.1832 31 12.9896 31.0394 12.8094 31.116C12.6292 31.1925 12.4662 31.3046 12.3299 31.4455L12.1392 31.6691L12.012 31.9245C12.0053 32.0202 12.0053 32.1162 12.012 32.2119C11.996 32.3123 11.996 32.4147 12.012 32.5152C12.0124 32.707 12.0502 32.8968 12.1233 33.074C12.2042 33.2529 12.3174 33.4153 12.457 33.553C12.5888 33.6994 12.7518 33.814 12.9338 33.8882C13.1161 33.9606 13.3101 33.9985 13.506 34H13.7921L14.0782 33.9042L14.3325 33.7765C14.4162 33.7247 14.4913 33.6601 14.555 33.5849C14.7008 33.4526 14.8149 33.2888 14.8887 33.1059C14.9618 32.9288 14.9996 32.7389 15 32.5471C14.9577 32.4306 14.9045 32.3183 14.8411 32.2119Z" fill="#FF3F4A"/>
<path d="M37.8411 32.2119L37.7457 31.9245L37.6186 31.6691L37.4278 31.4455C37.2915 31.3046 37.1285 31.1925 36.9483 31.116C36.7681 31.0394 36.5745 31 36.3789 31C36.1832 31 35.9896 31.0394 35.8094 31.116C35.6292 31.1925 35.4662 31.3046 35.3299 31.4455L35.1392 31.6691L35.012 31.9245C35.0053 32.0202 35.0053 32.1162 35.012 32.2119C34.996 32.3123 34.996 32.4147 35.012 32.5152C35.0124 32.707 35.0502 32.8968 35.1233 33.074C35.2042 33.2529 35.3174 33.4153 35.457 33.553C35.5888 33.6994 35.7518 33.814 35.9338 33.8882C36.1161 33.9606 36.3101 33.9985 36.506 34H36.7921L37.0782 33.9042L37.3325 33.7765C37.4162 33.7247 37.4913 33.6601 37.555 33.5849C37.7008 33.4526 37.8149 33.2888 37.8887 33.1059C37.9618 32.9288 37.9996 32.7389 38 32.5471C37.9577 32.4306 37.9045 32.3183 37.8411 32.2119Z" fill="#FF3F4A"/>
<path d="M31.8411 40.2119L31.7457 39.9245L31.6186 39.6691L31.4278 39.4455C31.2915 39.3046 31.1285 39.1925 30.9483 39.116C30.7681 39.0394 30.5745 39 30.3789 39C30.1832 39 29.9896 39.0394 29.8094 39.116C29.6292 39.1925 29.4662 39.3046 29.3299 39.4455L29.1392 39.6691L29.012 39.9245C29.0053 40.0202 29.0053 40.1162 29.012 40.2119C28.996 40.3123 28.996 40.4147 29.012 40.5152C29.0124 40.707 29.0502 40.8968 29.1233 41.074C29.2042 41.2529 29.3174 41.4153 29.457 41.553C29.5888 41.6994 29.7518 41.814 29.9338 41.8882C30.1161 41.9606 30.3101 41.9985 30.506 42H30.7921L31.0782 41.9042L31.3325 41.7765C31.4162 41.7247 31.4913 41.6601 31.555 41.5849C31.7008 41.4526 31.8149 41.2888 31.8887 41.1059C31.9618 40.9288 31.9996 40.7389 32 40.5471C31.9577 40.4306 31.9045 40.3183 31.8411 40.2119Z" fill="#FF3F4A"/>
<path d="M20.8411 40.2119L20.7457 39.9245L20.6186 39.6691L20.4278 39.4455C20.2915 39.3046 20.1285 39.1925 19.9483 39.116C19.7681 39.0394 19.5745 39 19.3789 39C19.1832 39 18.9896 39.0394 18.8094 39.116C18.6292 39.1925 18.4662 39.3046 18.3299 39.4455L18.1392 39.6691L18.012 39.9245C18.0053 40.0202 18.0053 40.1162 18.012 40.2119C17.996 40.3123 17.996 40.4147 18.012 40.5152C18.0124 40.707 18.0502 40.8968 18.1233 41.074C18.2042 41.2529 18.3174 41.4153 18.457 41.553C18.5888 41.6994 18.7518 41.814 18.9338 41.8882C19.1161 41.9606 19.3101 41.9985 19.506 42H19.7921L20.0782 41.9042L20.3325 41.7765C20.4162 41.7247 20.4913 41.6601 20.555 41.5849C20.7008 41.4526 20.8149 41.2888 20.8887 41.1059C20.9618 40.9288 20.9996 40.7389 21 40.5471C20.9577 40.4306 20.9045 40.3183 20.8411 40.2119Z" fill="#FF3F4A"/>
<path d="M28.4611 25.6205L28.4121 25.4733L28.3467 25.3425L28.2486 25.2281C28.1785 25.1559 28.0947 25.0986 28.002 25.0594C27.9093 25.0202 27.8098 25 27.7091 25C27.6085 25 27.5089 25.0202 27.4163 25.0594C27.3236 25.0986 27.2398 25.1559 27.1697 25.2281L27.0716 25.3425L27.0062 25.4733C27.0027 25.5223 27.0027 25.5715 27.0062 25.6205C26.9979 25.6719 26.9979 25.7243 27.0062 25.7758C27.0064 25.8739 27.0258 25.9711 27.0634 26.0618C27.105 26.1535 27.1632 26.2366 27.2351 26.3071C27.3028 26.382 27.3866 26.4407 27.4803 26.4787C27.574 26.5158 27.6738 26.5352 27.7745 26.5359H27.9217L28.0688 26.4869L28.1996 26.4215C28.2426 26.395 28.2812 26.3619 28.314 26.3234C28.389 26.2557 28.4477 26.1718 28.4857 26.0782C28.5232 25.9875 28.5427 25.8903 28.5429 25.7921C28.5211 25.7324 28.4938 25.675 28.4611 25.6205Z" fill="#FF3F4A"/>
<path d="M21.4448 25.6123L21.3958 25.4651L21.3467 25.3425L21.2486 25.2281C21.1785 25.1559 21.0947 25.0986 21.002 25.0594C20.9093 25.0202 20.8098 25 20.7091 25C20.6085 25 20.509 25.0202 20.4163 25.0594C20.3236 25.0986 20.2398 25.1559 20.1697 25.2281L20.0716 25.3425L20.0062 25.4733C20.0027 25.5223 20.0027 25.5715 20.0062 25.6205C19.9979 25.6719 19.9979 25.7243 20.0062 25.7758C20.0064 25.8739 20.0258 25.9711 20.0634 26.0618C20.105 26.1535 20.1632 26.2366 20.2351 26.3071C20.3028 26.382 20.3866 26.4407 20.4803 26.4787C20.574 26.5158 20.6738 26.5352 20.7745 26.5359H20.9217L21.0688 26.4869L21.1996 26.4215C21.2426 26.395 21.2812 26.3619 21.314 26.3234C21.389 26.2557 21.4477 26.1718 21.4857 26.0782C21.5232 25.9875 21.5427 25.8903 21.5429 25.7921C21.5164 25.729 21.4835 25.6687 21.4448 25.6123Z" fill="#FF3F4A"/>
<path d="M15.0375 25.7208C15.3127 25.7208 15.5765 25.6115 15.7711 25.4169C15.9657 25.2223 16.075 24.9585 16.075 24.6833V23.6458C16.3151 23.9711 16.6276 24.2361 16.9877 24.42C17.3478 24.604 17.7456 24.7017 18.15 24.7056C18.6406 24.684 19.1177 24.5387 19.5371 24.2832C19.9564 24.0277 20.3043 23.6703 20.5485 23.2442C20.9389 22.7199 21.0616 22.6195 21.2736 22.6195C21.4856 22.6195 21.6083 22.7199 21.9987 23.2442C22.2466 23.6677 22.5974 24.0217 23.0187 24.2732C23.44 24.5248 23.918 24.6659 24.4084 24.6833C24.899 24.6617 25.3761 24.5164 25.7955 24.2609C26.2148 24.0054 26.5628 23.648 26.8069 23.2219C27.1973 22.6976 27.32 22.5972 27.532 22.5972C27.744 22.5972 27.8667 22.6976 28.2683 23.2219C28.5124 23.648 28.8603 24.0054 29.2797 24.2609C29.699 24.5164 30.1762 24.6617 30.6668 24.6833C31.0776 24.6739 31.4805 24.568 31.8428 24.3742C32.2052 24.1804 32.517 23.9041 32.7529 23.5677V24.6275C32.7529 24.9042 32.8628 25.1695 33.0584 25.3651C33.2541 25.5607 33.5194 25.6706 33.796 25.6706C34.0726 25.6706 34.3379 25.5607 34.5336 25.3651C34.7292 25.1695 34.8391 24.9042 34.8391 24.6275V20.5222C34.8351 19.8809 34.6338 19.2564 34.2625 18.7335C33.8913 18.2106 33.3682 17.8146 32.7641 17.5993V15.3682L33.1992 14.9331C33.9785 14.1511 34.4161 13.092 34.4161 11.988C34.4161 10.8839 33.9785 9.82487 33.1992 9.04283L32.4629 8.30655C32.3664 8.20941 32.2517 8.13231 32.1254 8.0797C31.999 8.02709 31.8635 8 31.7266 8C31.5897 8 31.4542 8.02709 31.3278 8.0797C31.2015 8.13231 31.0867 8.20941 30.9903 8.30655L30.254 9.04283C29.4747 9.82487 29.0371 10.8839 29.0371 11.988C29.0371 13.092 29.4747 14.1511 30.254 14.9331L30.6891 15.3682V17.3985H25.457V15.3905L25.8921 14.9554C26.6714 14.1734 27.109 13.1143 27.109 12.0103C27.109 10.9062 26.6714 9.84718 25.8921 9.06515L25.1558 8.32886C25.0594 8.23172 24.9447 8.15462 24.8183 8.10201C24.6919 8.0494 24.5564 8.02231 24.4195 8.02231C24.2827 8.02231 24.1471 8.0494 24.0208 8.10201C23.8944 8.15462 23.7797 8.23172 23.6833 8.32886L22.947 9.06515C22.5597 9.45164 22.2525 9.91071 22.0429 10.4161C21.8333 10.9214 21.7254 11.4632 21.7254 12.0103C21.7254 12.5574 21.8333 13.0991 22.0429 13.6045C22.2525 14.1099 22.5597 14.5689 22.947 14.9554L23.382 15.3905V17.3985H18.1611V15.3905L18.5962 14.9554C18.9834 14.5689 19.2906 14.1099 19.5002 13.6045C19.7099 13.0991 19.8177 12.5574 19.8177 12.0103C19.8177 11.4632 19.7099 10.9214 19.5002 10.4161C19.2906 9.91071 18.9834 9.45164 18.5962 9.06515L17.8599 8.32886C17.7635 8.23172 17.6488 8.15462 17.5224 8.10201C17.396 8.0494 17.2605 8.02231 17.1236 8.02231C16.9867 8.02231 16.8512 8.0494 16.7249 8.10201C16.5985 8.15462 16.4838 8.23172 16.3873 8.32886L15.6511 9.06515C14.8717 9.84718 14.4341 10.9062 14.4341 12.0103C14.4341 13.1143 14.8717 14.1734 15.6511 14.9554L16.0861 15.3905V17.6217C15.4835 17.8338 14.9605 18.2256 14.5874 18.7442C14.2144 19.2628 14.0094 19.8834 14 20.5222V24.6833C14 24.9585 14.1093 25.2223 14.3039 25.4169C14.4984 25.6115 14.7623 25.7208 15.0375 25.7208ZM24.4084 10.5489C24.798 10.9399 25.0168 11.4694 25.0168 12.0214C25.0168 12.5735 24.798 13.103 24.4084 13.494C24.0187 13.103 23.7999 12.5735 23.7999 12.0214C23.7999 11.4694 24.0187 10.9399 24.4084 10.5489ZM31.7043 10.5489C32.094 10.9399 32.3127 11.4694 32.3127 12.0214C32.3127 12.5735 32.094 13.103 31.7043 13.494C31.3146 13.103 31.0958 12.5735 31.0958 12.0214C31.0958 11.4694 31.3146 10.9399 31.7043 10.5489ZM17.1236 10.5489C17.5133 10.9399 17.7321 11.4694 17.7321 12.0214C17.7321 12.5735 17.5133 13.103 17.1236 13.494C16.734 13.103 16.5152 12.5735 16.5152 12.0214C16.5152 11.4694 16.734 10.9399 17.1236 10.5489ZM17.1236 19.4735H31.6931C31.9683 19.4735 32.2322 19.5828 32.4267 19.7774C32.6213 19.972 32.7306 20.2359 32.7306 20.511V20.7453C32.1846 21.0342 31.7203 21.4563 31.3808 21.9724C30.9903 22.4967 30.8676 22.5972 30.6445 22.5972C30.4214 22.5972 30.3098 22.4967 29.9082 21.9724C29.6641 21.5463 29.3162 21.1889 28.8968 20.9334C28.4775 20.6779 28.0003 20.5326 27.5097 20.511C27.0191 20.5326 26.5419 20.6779 26.1226 20.9334C25.7032 21.1889 25.3553 21.5463 25.1112 21.9724C24.7207 22.4967 24.598 22.5972 24.3861 22.5972C24.1741 22.5972 24.0514 22.4967 23.6609 21.9724C23.4168 21.5463 23.0689 21.1889 22.6495 20.9334C22.2302 20.6779 21.753 20.5326 21.2624 20.511C20.7661 20.527 20.2821 20.6697 19.8564 20.9255C19.4307 21.1812 19.0776 21.5417 18.8305 21.9724C18.44 22.4967 18.3173 22.5972 18.1053 22.5972C17.8934 22.5972 17.7707 22.4967 17.3802 21.9724C17.0407 21.4563 16.5764 21.0342 16.0304 20.7453V20.5222C16.0286 20.3802 16.0561 20.2393 16.111 20.1083C16.1659 19.9774 16.2471 19.8591 16.3496 19.7608C16.4521 19.6625 16.5737 19.5862 16.7068 19.5368C16.84 19.4874 16.9818 19.4659 17.1236 19.4735Z" fill="#FF3F4A"/>
<path d="M46.002 42.791H43.5019V31.4326C43.5019 30.257 43.5823 29.1295 42.751 28.2983C41.9197 27.467 40.7923 27 39.6167 27H10.061C8.88539 27 7.75795 27.467 6.92669 28.2983C6.09542 29.1295 5.62842 30.257 5.62842 31.4326L5.50198 42.791H4.14034C3.74778 42.791 3.28043 43.0134 3.00285 43.291C3.00285 43.6836 2.81612 44.0192 3.09371 44.2967C3.37129 44.5743 3.74778 44.7303 4.14034 44.7303H45.5215C45.9141 44.7303 46.2906 44.5743 46.5682 44.2967C46.8457 44.0192 47.0017 43.6427 47.0017 43.2501C47.0017 42.8575 47.2793 43.5277 47.0017 43.2501C46.7241 42.9725 46.3946 42.791 46.002 42.791ZM10.061 28.791H39.6167C40.0072 28.791 40.7258 29.0149 41.0019 29.291C41.278 29.5671 41.5019 31.0421 41.5019 31.4326L41.5 34C40.5237 34.3366 39.184 35.2263 38.5 36C37.7718 36.7282 37.4954 37 36.6564 37C35.8174 37 35.7282 36.7282 35 36C34.5176 35.4048 33.6915 34.8297 33 34.5C32.3084 34.1703 31.7661 34 31 34C30.2339 34 29.5118 34.1703 28.8203 34.5C28.1287 34.8297 27.4823 35.4048 27 36C26.2718 36.7282 25.839 37 25 37C24.161 37 23.7282 36.7282 23 36C22.5176 35.4048 22.1915 34.8297 21.5 34.5C20.8084 34.1703 19.7661 34 19 34C18.2339 34 17.6916 34.1703 17 34.5C16.3084 34.8297 15.9823 35.4048 15.5 36C14.7718 36.7282 13.8232 37 13 37C12.1768 37 10.7282 35.7282 10 35C9.32042 34.2285 8.4706 34.339 7.5 34L7.50195 31.4326C7.50191 31.2365 7.7633 30.2439 7.83926 30.0632C7.91522 29.8825 8.35992 29.1371 8.5 29C8.64008 28.8629 9.06529 28.8631 9.24758 28.791C9.42987 28.7189 9.865 28.7868 10.061 28.791ZM7.50195 42.791V36.291C7.50195 36.291 8.53382 36.3147 9.01616 36.91C9.49851 37.5052 10.1077 37.9852 10.7992 38.3149C11.4908 38.6446 12.2472 38.8157 13.0134 38.8157C13.7795 38.8157 14.5359 38.6446 15.2275 38.3149C15.919 37.9852 16.5282 37.5052 17.0106 36.91C17.7388 36.1817 18.0871 35.8651 18.9103 35.8651C19.7335 35.8651 20.0976 36.1817 20.8258 36.91C21.3082 37.5052 21.9174 37.9852 22.6089 38.3149C23.3005 38.6446 24.0569 38.8157 24.823 38.8157C25.5892 38.8157 26.3456 38.6446 27.0372 38.3149C27.7287 37.9852 28.3379 37.5052 28.8203 36.91C29.5485 36.1817 29.8967 35.8651 30.7358 35.8651C31.5748 35.8651 31.9231 36.1817 32.6513 36.91C33.1335 37.508 33.7435 37.9905 34.4366 38.3219C35.1296 38.6534 35.8881 38.8255 36.6564 38.8255C37.4246 38.8255 38.1831 38.6534 38.8762 38.3219C39.5693 37.9905 40.1793 37.508 40.6615 36.91L41.5019 36.291V42.791H7.50195Z" fill="#FF3F4A"/>
</svg>
