<svg width="36" height="37" viewBox="0 0 36 37" fill="none" xmlns="http://www.w3.org/2000/svg">
<path d="M24.8723 22.6126V32.7862H5.1875V7.20459H14.5979L12.9995 9.17019H7.1531V30.8206H22.8995V23.0374L24.8723 22.6126Z" fill="#FF3F4A"/>
<path d="M24.8723 22.6126V32.7862H5.1875V7.20459H14.5979L12.9995 9.17019H7.1531V30.8206H22.8995V23.0374L24.8723 22.6126Z" fill="#FF3F4A"/>
<path d="M19.9361 24.9175H10.0938V26.8831H19.9361V24.9175Z" fill="#FF3F4A"/>
<path d="M16.9841 22.9513H10.0938V20.9785H14.7737" fill="#FF3F4A"/>
<path d="M12.801 19.0124H10.0938V17.0396H11.9801" fill="#FF3F4A"/>
<path d="M20.9366 24.0158C15.4646 24.0158 11.0078 19.559 11.0078 14.087C11.0078 8.615 15.4646 4.1582 20.9366 4.1582C26.4086 4.1582 30.8654 8.615 30.8654 14.087C30.8654 19.5662 26.4086 24.0158 20.9366 24.0158ZM20.9366 6.131C16.5518 6.131 12.9806 9.7022 12.9806 14.087C12.9806 18.4718 16.5518 22.043 20.9366 22.043C25.3286 22.043 28.8926 18.4718 28.8926 14.087C28.8926 9.7022 25.3214 6.131 20.9366 6.131Z" fill="#FF3F4A"/>
<path d="M20.935 15.2241C18.6382 15.2241 16.7734 13.3593 16.7734 11.0625C16.7734 8.76568 18.6382 6.90088 20.935 6.90088C23.2318 6.90088 25.0966 8.76568 25.0966 11.0625C25.0966 13.3593 23.2318 15.2241 20.935 15.2241ZM20.935 8.87368C19.7254 8.87368 18.739 9.86008 18.739 11.0697C18.739 12.2793 19.7254 13.2657 20.935 13.2657C22.1446 13.2657 23.131 12.2793 23.131 11.0697C23.131 9.86008 22.1446 8.87368 20.935 8.87368Z" fill="#FF3F4A"/>
<path d="M26.6826 19.0116H24.717C24.717 16.9236 23.0178 15.2316 20.937 15.2316C18.849 15.2316 17.157 16.9308 17.157 19.0116H15.1914C15.1914 15.8436 17.769 13.2588 20.9442 13.2588C24.1194 13.2588 26.6826 15.8364 26.6826 19.0116Z" fill="#FF3F4A"/>
</svg>
