<svg width="26" height="26" viewBox="0 0 26 26" fill="none" xmlns="http://www.w3.org/2000/svg">
<path d="M16.2474 3.25H15.1641V5.41667H16.2474V7.58333H9.7474V5.41667H10.8307V3.25H2.16406V5.41667H3.2474V7.58333H2.16406L2.16406 9H3.2474L3.2474 15.1667C3.2474 16.0286 3.58981 16.8553 4.1993 17.4648C4.80879 18.0743 5.63544 18.4167 6.4974 18.4167C7.35935 18.4167 8.186 18.0743 8.79549 17.4648C9.40499 16.8553 9.7474 16.0286 9.7474 15.1667L9.7474 9H12.5L12.5 21.5H4.33073L4.33073 22.75H21.6641L21.6641 21.5H13.5V9H16.2474V15.1667C16.2474 16.0286 16.5898 16.8553 17.1993 17.4648C17.8088 18.0743 18.6354 18.4167 19.4974 18.4167C20.3594 18.4167 21.186 18.0743 21.7955 17.4648C22.405 16.8553 22.7474 16.0286 22.7474 15.1667V9H23.8307V7.58333H22.7474V5.41667H23.8307V3.25H16.2474ZM5.41406 5.41667H7.58073V7.58333H5.41406V5.41667ZM7.58073 15.1667C7.58073 15.454 7.46659 15.7295 7.26343 15.9327C7.06026 16.1359 6.78471 16.25 6.4974 16.25C6.21008 16.25 5.93453 16.1359 5.73136 15.9327C5.5282 15.7295 5.41406 15.454 5.41406 15.1667L5.41406 9H7.58073L7.58073 15.1667ZM20.5807 15.1667C20.5807 15.454 20.4666 15.7295 20.2634 15.9327C20.0603 16.1359 19.7847 16.25 19.4974 16.25C19.2101 16.25 18.9345 16.1359 18.7314 15.9327C18.5282 15.7295 18.4141 15.454 18.4141 15.1667V9H20.5807V15.1667ZM20.5807 7.58333H18.4141V5.41667H20.5807V7.58333Z" fill="#FF3F4A"/>
</svg>
