<svg width="45" height="46" viewBox="0 0 45 46" fill="none" xmlns="http://www.w3.org/2000/svg">
<g clip-path="url(#clip0_486_701)">
<path d="M17.5793 38.4863H13.9175C13.1915 38.4863 12.603 39.0748 12.603 39.8008V42.5832H10.0095V39.8008C10.0095 39.0748 9.42099 38.4863 8.69503 38.4863H5.03309V35.8932H8.69503C9.42099 35.8932 10.0095 35.3047 10.0095 34.5787V21.0016C10.0095 20.4097 9.61378 19.8907 9.04294 19.734C5.35163 18.7207 2.77354 15.3371 2.77354 11.5056C2.77354 6.8006 6.60138 2.97276 11.3063 2.97276C16.0111 2.97276 19.8389 6.8006 19.8389 11.5056C19.8389 15.3371 17.2608 18.7207 13.5695 19.734C12.9986 19.8907 12.603 20.4097 12.603 21.0016V34.5787C12.603 35.3047 13.1915 35.8932 13.9175 35.8932H17.5793V38.4863ZM18.8938 33.2642H15.232V21.9558C19.5388 20.3373 22.4679 16.1756 22.4679 11.5056C22.4679 5.35096 17.4608 0.34375 11.3063 0.34375C5.15165 0.34375 0.144531 5.35096 0.144531 11.5056C0.144531 16.1756 3.0736 20.3373 7.38053 21.9558V33.2642H3.71858C2.99262 33.2642 2.40408 33.8527 2.40408 34.5787V39.8008C2.40408 40.5267 2.99262 41.1153 3.71858 41.1153H7.38053V43.8977C7.38053 44.6236 7.96899 45.2122 8.69503 45.2122H13.9175C14.6434 45.2122 15.232 44.6236 15.232 43.8977V41.1153H18.8938C19.6198 41.1153 20.2083 40.5267 20.2083 39.8008V34.5787C20.2083 33.8527 19.6198 33.2642 18.8938 33.2642Z" fill="#FF3F4A"/>
<path d="M11.3049 14.5722C9.61406 14.5722 8.23838 13.1966 8.23838 11.5059C8.23838 9.81505 9.61406 8.43956 11.3049 8.43956C12.9958 8.43956 14.3714 9.81505 14.3714 11.5059C14.3714 13.1966 12.9958 14.5722 11.3049 14.5722ZM17.0004 11.5059C17.0004 8.36542 14.4454 5.81055 11.3049 5.81055C8.16442 5.81055 5.60938 8.36542 5.60938 11.5059C5.60938 14.6463 8.16442 17.2012 11.3049 17.2012C14.4454 17.2012 17.0004 14.6463 17.0004 11.5059Z" fill="#FF3F4A"/>
<path d="M33.5667 37.118C31.8758 37.118 30.5001 35.742 30.5001 34.0508C30.5001 32.3601 31.8758 30.9845 33.5667 30.9845C35.2575 30.9845 36.6331 32.3601 36.6331 34.0508C36.6331 35.742 35.2575 37.118 33.5667 37.118ZM33.5667 28.3555C30.4261 28.3555 27.8711 30.9103 27.8711 34.0508C27.8711 37.1917 30.4261 39.747 33.5667 39.747C36.7071 39.747 39.2622 37.1917 39.2622 34.0508C39.2622 30.9103 36.7071 28.3555 33.5667 28.3555Z" fill="#FF3F4A"/>
<path d="M33.568 42.5826C28.863 42.5826 25.0353 38.7548 25.0353 34.0497C25.0353 30.2184 27.6134 26.8347 31.3047 25.8214C31.8756 25.6647 32.2713 25.1457 32.2713 24.5538V10.8593C32.2713 10.3277 31.951 9.8484 31.4599 9.64492C31.2972 9.57744 31.1264 9.54475 30.957 9.54475C30.6151 9.54475 30.2789 9.67822 30.0275 9.92955L28.8706 11.0857C28.626 11.3303 28.3005 11.4651 27.9538 11.4651C27.6071 11.4651 27.2816 11.3303 27.037 11.0857C26.5314 10.5801 26.5314 9.75735 27.0369 9.25179L32.6511 3.63781C32.8961 3.39287 33.2216 3.25792 33.568 3.25792C33.9142 3.25792 34.2398 3.39287 34.4848 3.63798L40.0989 9.25171C40.6044 9.75735 40.6044 10.5801 40.0989 11.0857C39.8543 11.3303 39.5287 11.4651 39.182 11.4651C38.8354 11.4651 38.5097 11.3303 38.2649 11.0854L37.1085 9.92955C36.7325 9.55387 36.1672 9.44143 35.676 9.64492C35.1849 9.84832 34.8647 10.3277 34.8647 10.8593V24.5538C34.8647 25.1457 35.2604 25.6647 35.8312 25.8214C39.5225 26.8347 42.1006 30.2184 42.1006 34.0497C42.1006 38.7548 38.2728 42.5826 33.568 42.5826ZM37.4937 23.5996V13.715C38.0142 13.9632 38.5881 14.0941 39.182 14.0941C40.231 14.0941 41.2169 13.6858 41.958 12.9446C43.4884 11.414 43.4884 8.92352 41.9579 7.39273L36.344 1.77919C35.6026 1.03745 34.6167 0.628906 33.568 0.628906C32.5193 0.628906 31.5333 1.03737 30.792 1.77892L25.1779 7.39282C23.6474 8.92343 23.6474 11.414 25.1778 12.9445C25.919 13.6858 26.9048 14.0941 27.9538 14.0941C28.5479 14.0941 29.1217 13.9632 29.6422 13.715V23.5996C25.3353 25.2181 22.4062 29.3797 22.4062 34.0497C22.4062 40.2044 27.4134 45.2116 33.568 45.2116C39.7225 45.2116 44.7296 40.2044 44.7296 34.0497C44.7296 29.3797 41.8005 25.2181 37.4937 23.5996Z" fill="#FF3F4A"/>
</g>
<defs>
<clipPath id="clip0_486_701">
<rect width="44.8684" height="44.8684" fill="white" transform="translate(0 0.341797)"/>
</clipPath>
</defs>
</svg>
