<svg width="36" height="44" viewBox="0 0 36 44" fill="none" xmlns="http://www.w3.org/2000/svg">
<path d="M34.9039 8.48851L22.4147 0.907235C22.2074 0.783793 21.9777 0.702487 21.7389 0.667981C21.5001 0.633475 21.2569 0.646445 21.0231 0.70615C20.5569 0.824431 20.1559 1.12117 19.9064 1.5324L0.919701 33C0.67145 33.4159 0.597855 33.9131 0.71499 34.383C0.832124 34.853 1.13047 35.2575 1.54487 35.5083L14.123 43.0674C14.3303 43.1908 14.56 43.2721 14.7988 43.3066C15.0376 43.3411 15.2809 43.3282 15.5146 43.2684C15.9808 43.1502 16.3819 42.8534 16.6313 42.4422L20.4109 36.1531L31.7495 17.2859L35.5291 10.9968C35.7773 10.5809 35.8509 10.0837 35.7338 9.61372C35.6167 9.14375 35.3183 8.73924 34.9039 8.48851ZM29.953 15.0478L27.3816 13.5025C26.9658 13.2543 26.7369 13.2988 26.267 13.416C25.797 13.5331 25.8316 13.1726 25.5808 13.587C25.4553 13.7939 25.9463 12.9917 25.5808 13.587C25.2153 14.1823 25.6933 14.0383 25.7518 14.2731C25.8104 14.5079 25.9229 14.9592 25.9229 14.9592C25.9229 14.9592 26.1435 15.0929 26.3514 15.2168L28.9228 16.7621L26.3473 21.0477L20.7994 17.7136C20.3865 17.507 19.9992 17.3167 19.5558 17.4456C19.1124 17.5745 18.9751 17.784 18.9751 17.784C18.9751 17.784 18.9005 17.9271 18.9948 18.3791C19.089 18.8311 19.3929 19.1602 19.7692 19.4279L25.317 22.762L22.2264 27.9047L19.655 26.3594C19.2366 26.1079 19.09 26.2066 18.5403 26.2729C18.2662 26.3059 17.9965 26.2072 17.8542 26.4439C17.712 26.6806 18.0252 27.13 18.0252 27.13C18.0252 27.13 18.3744 27.9232 18.7929 28.1747L21.1962 29.619L18.6206 33.9046L13.0493 30.5564C12.6334 30.3081 12.3209 30.1019 11.8173 30.1535C11.4697 30.189 11.1658 30.1894 10.9883 30.4905C10.8128 30.7882 10.9552 31.0502 11.0863 31.37C11.2783 31.8385 11.6047 32.0199 12.0191 32.2707L17.5904 35.6189L14.4998 40.7616L3.35716 34.0652L21.901 3.20868L33.0437 9.90508L29.953 15.0478Z" fill="#FF3F4A"/>
</svg>
