<svg width="100" height="84" viewBox="0 0 100 84" fill="none" xmlns="http://www.w3.org/2000/svg">
<g clip-path="url(#clip0_399_755)">
<path d="M77.7464 54.7241C76.1002 54.0123 74.3813 53.4823 72.62 53.1435C71.43 52.8653 70.2598 52.5085 69.117 52.0755C68.4363 51.8379 67.8215 51.4426 67.3228 50.922C66.9397 50.4703 66.7413 49.8905 66.7674 49.2987C66.744 48.8698 66.8344 48.4424 67.0294 48.0598C67.2245 47.6771 67.5173 47.3529 67.8781 47.12C68.806 46.5679 69.8755 46.3005 70.954 46.351C72.0042 46.3123 73.0431 46.5794 73.9444 47.12C74.3019 47.3225 74.6125 47.5985 74.8555 47.9299C75.0985 48.2613 75.2685 48.6405 75.3541 49.0424C75.435 49.244 75.578 49.4148 75.7622 49.53C75.9465 49.6452 76.1626 49.6988 76.3794 49.6832H79.7543C79.8569 49.6894 79.9596 49.6738 80.0557 49.6373C80.1519 49.6009 80.2392 49.5445 80.3118 49.4718C80.3845 49.3991 80.441 49.3118 80.4774 49.2157C80.5138 49.1196 80.5295 49.0168 80.5232 48.9142C80.4437 47.9518 80.1203 47.0255 79.5834 46.2229C78.9349 45.2337 78.0738 44.4018 77.0629 43.7878C75.8527 43.051 74.4974 42.5847 73.09 42.4208V39.9003C73.0961 39.7865 73.0783 39.6727 73.0375 39.5662C72.9967 39.4598 72.934 39.3631 72.8534 39.2825C72.7728 39.2019 72.6761 39.1391 72.5697 39.0984C72.4632 39.0576 72.3494 39.0398 72.2356 39.0459H70.0141C69.7947 39.0376 69.5806 39.1141 69.4161 39.2595C69.3289 39.3409 69.2607 39.4406 69.2164 39.5513C69.1721 39.6621 69.1528 39.7812 69.1597 39.9003V42.3781C67.1149 42.5361 65.1786 43.3616 63.6489 44.7277C63.0014 45.3248 62.4877 46.0522 62.1416 46.8622C61.7955 47.6721 61.6249 48.5462 61.641 49.4268C61.587 50.3083 61.736 51.1904 62.0767 52.0051C62.4174 52.8199 62.9407 53.5455 63.6062 54.126C65.433 55.4576 67.5351 56.3627 69.7578 56.7747C71.4381 57.2303 72.7197 57.6148 73.6026 57.9281C74.3293 58.1541 74.9993 58.5328 75.5677 59.0388C75.7806 59.2506 75.9475 59.5042 76.0578 59.7835C76.168 60.0629 76.2194 60.362 76.2085 60.6622C76.2196 61.1259 76.1066 61.5843 75.8813 61.9898C75.656 62.3954 75.3265 62.7334 74.9269 62.969C73.7959 63.6052 72.5055 63.9018 71.2103 63.8234C70.0032 63.8869 68.8029 63.6054 67.75 63.0118C66.9674 62.5494 66.3763 61.8219 66.0839 60.9612C65.9775 60.7633 65.8322 60.5889 65.6567 60.4486C65.4474 60.388 65.2252 60.388 65.0159 60.4486H61.8119C61.7098 60.4455 61.6081 60.4628 61.5128 60.4995C61.4174 60.5361 61.3303 60.5914 61.2566 60.6622C61.1203 60.798 61.0434 60.9824 61.043 61.1748C61.0972 62.2745 61.4518 63.3383 62.0682 64.2506C62.7756 65.2818 63.7304 66.119 64.845 66.6857C66.1743 67.3739 67.6257 67.7948 69.117 67.9245V70.4023C69.11 70.5214 69.1294 70.6405 69.1737 70.7513C69.218 70.862 69.2861 70.9617 69.3733 71.0431C69.5378 71.1885 69.752 71.265 69.9714 71.2567H72.1928C72.3067 71.2628 72.4205 71.245 72.527 71.2042C72.6334 71.1635 72.7301 71.1007 72.8107 71.0201C72.8913 70.9395 72.954 70.8429 72.9948 70.7364C73.0355 70.63 73.0534 70.5161 73.0472 70.4023V67.9245C75.246 67.8003 77.3515 66.994 79.0707 65.6177C79.7973 64.9995 80.3746 64.2248 80.7593 63.3518C81.144 62.4789 81.3262 61.5301 81.2922 60.5767C81.3397 59.3602 81.0276 58.1566 80.3951 57.1164C79.7495 56.0902 78.8329 55.2623 77.7464 54.7241Z" fill="#FF3F4A"/>
<path d="M71.214 27.1572L71.2222 27.1571C75.5884 27.0856 79.9106 28.0381 83.8423 29.9382C87.774 31.8383 91.2058 34.6332 93.8626 38.0988C96.5195 41.5644 98.3273 45.6042 99.1413 49.8945C99.9553 54.1847 99.7528 58.606 98.55 62.8039C97.3472 67.0018 95.1775 70.8594 92.215 74.0676C89.2525 77.2757 85.5795 79.7452 81.4905 81.2779C77.4016 82.8106 73.0104 83.3639 68.669 82.8936C64.3276 82.4232 60.1568 80.9422 56.491 78.5692L55.7193 78.0697V78.989V81.1677C55.7193 81.6016 55.5469 82.0177 55.2401 82.3245C54.9333 82.6313 54.5172 82.8037 54.0833 82.8037H2.81951C2.38561 82.8037 1.9695 82.6313 1.66269 82.3245C1.35588 82.0177 1.18352 81.6016 1.18352 81.1677V41.9509C1.18352 41.517 1.35588 41.1009 1.66269 40.7941C1.9695 40.4872 2.38562 40.3149 2.81951 40.3149H9.22748H9.72748V39.8149V30.9292V30.4292H9.22748H7.09149C6.6576 30.4292 6.24148 30.2568 5.93467 29.95C5.62786 29.6432 5.4555 29.2271 5.4555 28.7932V17.387V16.887H4.9555H2.13599C1.92115 16.887 1.70841 16.8447 1.50993 16.7624C1.31144 16.6802 1.13109 16.5597 0.979171 16.4078C0.827255 16.2559 0.706749 16.0755 0.624533 15.877C0.542316 15.6786 0.5 15.4658 0.5 15.251V2.13599C0.5 1.7021 0.672363 1.28598 0.979171 0.979171C1.28598 0.672363 1.7021 0.5 2.13599 0.5H53.3998C53.8337 0.5 54.2498 0.672363 54.5566 0.979172C54.8634 1.28598 55.0358 1.7021 55.0358 2.13599V13.5422V14.0422H55.5358H58.1844C58.6183 14.0422 59.0344 14.2146 59.3412 14.5214C59.648 14.8282 59.8204 15.2443 59.8204 15.6782V26.6572V27.1572H60.3204L71.214 27.1572ZM4.27198 3.77198H3.77198V4.27198V13.115V13.615H4.27198H51.2638H51.7638V13.115V4.27198V3.77198H51.2638H4.27198ZM9.22748 17.3142H8.72748V17.8142V26.6572V27.1572H9.22748H56.2193H56.7193V26.6572V17.8142V17.3142H56.2193H9.22748ZM13.4995 30.4292H12.9995V30.9292V39.7722V40.2722H13.4995H47.2481H47.5213L47.6689 40.0423C49.9254 36.5275 52.9364 33.5594 56.4833 31.3538L57.9702 30.4292H56.2193H13.4995ZM4.4555 66.0449V66.5449H4.9555H43.4034H44.8131H45.5625L45.2748 65.8529C44.1249 63.0874 43.4305 60.154 43.2186 57.1665L43.1856 56.7019H42.7198H4.9555H4.4555V57.2019V66.0449ZM4.9555 43.5442H4.4555V44.0442V52.8872V53.3872H4.9555H42.848H43.3117L43.3466 52.9247C43.5719 49.9349 44.2805 47.0014 45.4448 44.2383L45.7372 43.5442H44.984H4.9555ZM51.9473 79.6599H52.4736L52.4467 79.1343L52.2758 75.8021L52.2654 75.6006L52.1181 75.4627C50.3995 73.854 48.8907 72.0349 47.6273 70.0485L47.48 69.8168H47.2054H4.9555H4.4555V70.3168V79.1599V79.6599H4.9555H51.9473ZM71.3853 79.6599H71.3856C75.6818 79.6532 79.9014 78.5213 83.6241 76.3768C87.3468 74.2323 90.4428 71.15 92.6038 67.4368C94.7649 63.7237 95.9155 59.5092 95.9412 55.2131C95.9669 50.9169 94.8668 46.689 92.7504 42.9502C90.6339 39.2115 87.575 36.0924 83.8782 33.9035C80.1815 31.7145 75.9758 30.5322 71.6799 30.4742C67.3841 30.4161 63.148 31.4844 59.3934 33.5726C55.6389 35.6609 52.4968 38.6962 50.2801 42.3764L50.262 42.4065L50.2483 42.4388C50.2045 42.5418 50.15 42.6399 50.0857 42.7315L50.0729 42.7496L50.0618 42.7689C47.9022 46.5094 46.7658 50.7528 46.7669 55.072C46.7679 59.3912 47.9065 63.634 50.068 67.3735C52.2294 71.113 55.3376 74.2173 59.0798 76.3741C62.8219 78.5309 67.0661 79.6642 71.3853 79.6599Z" fill="#FF3F4A" stroke="#FF3F4A"/>
</g>
<defs>
<clipPath id="clip0_399_755">
<rect width="99.6654" height="83.56" fill="white"/>
</clipPath>
</defs>
</svg>
