<svg width="42" height="42" viewBox="0 0 42 42" fill="none" xmlns="http://www.w3.org/2000/svg">
<g clip-path="url(#clip0_486_749)">
<path d="M3.5 17.5C3.5 32.3592 19.4705 41.4015 20.1495 41.7795C20.4096 41.9242 20.7024 42.0001 21 42.0001C21.2976 42.0001 21.5904 41.9242 21.8505 41.7795C22.5295 41.4015 38.5 32.3592 38.5 17.5C38.5 12.8587 36.6563 8.40752 33.3744 5.12563C30.0925 1.84374 25.6413 0 21 0C16.3587 0 11.9075 1.84374 8.62563 5.12563C5.34374 8.40752 3.5 12.8587 3.5 17.5ZM21 2.5C24.7118 2.50417 29.8754 4.9805 32.5 7.60511C35.1246 10.2297 35.9958 13.7882 36 17.5C36 28.4795 24.15 37.9875 21 40C17.85 37.9875 6 28.4795 6 17.5C6.00417 13.7882 6.87539 10.2297 9.5 7.60511C12.1246 4.9805 17.2882 2.50417 21 2.5Z" fill="#FF3F4A"/>
<path d="M21 26.25C22.7306 26.25 24.4223 25.7368 25.8612 24.7754C27.3002 23.8139 28.4217 22.4473 29.0839 20.8485C29.7462 19.2496 29.9195 17.4903 29.5819 15.793C29.2443 14.0956 28.4109 12.5365 27.1872 11.3128C25.9635 10.0891 24.4044 9.25575 22.707 8.91813C21.0097 8.58051 19.2504 8.75379 17.6515 9.41606C16.0527 10.0783 14.6861 11.1998 13.7246 12.6388C12.7632 14.0777 12.25 15.7694 12.25 17.5C12.2528 19.8198 13.1755 22.0438 14.8159 23.6841C16.4562 25.3245 18.6802 26.2472 21 26.25ZM21 12.25C22.0384 12.25 23.0534 12.5579 23.9167 13.1348C24.7801 13.7117 25.453 14.5316 25.8504 15.4909C26.2477 16.4502 26.3517 17.5058 26.1491 18.5242C25.9466 19.5426 25.4465 20.4781 24.7123 21.2123C23.9781 21.9465 23.0426 22.4466 22.0242 22.6491C21.0058 22.8517 19.9502 22.7477 18.9909 22.3504C18.0316 21.953 17.2117 21.2801 16.6348 20.4167C16.0579 19.5534 15.75 18.5384 15.75 17.5C15.75 16.1076 16.3031 14.7723 17.2877 13.7877C18.2723 12.8031 19.6076 12.25 21 12.25Z" fill="#FF3F4A"/>
</g>
<defs>
<clipPath id="clip0_486_749">
<rect width="42" height="42" fill="white"/>
</clipPath>
</defs>
</svg>
