<svg width="613" height="388" viewBox="0 0 613 388" fill="none" xmlns="http://www.w3.org/2000/svg">
<g opacity="0.6" clip-path="url(#clip0_535_8295)">
<path d="M529.35 368.36C513.35 366.15 492.6 379.13 474.44 375.36C455.53 371.42 454.52 347.82 429.9 333.78C396.05 314.47 379.38 362.6 360.38 362.6C349.43 362.6 343.38 353.32 321.9 352.26C285.72 350.46 278.34 386.72 278.34 386.72H566.65C566.65 386.72 554.89 371.9 529.35 368.36Z" stroke="#FF9A92" stroke-width="1.5" stroke-miterlimit="10"/>
<path d="M75.4704 289.05C73.7358 287.673 71.6176 286.867 69.4064 286.741C67.1953 286.616 64.9995 287.178 63.1204 288.35C61.1847 289.563 59.688 291.364 58.8495 293.489C58.011 295.614 57.8746 297.952 58.4604 300.16C56.3837 299.212 54.0576 298.954 51.8238 299.426C49.5901 299.898 47.5665 301.073 46.0504 302.78C44.58 304.434 43.6579 306.502 43.4108 308.701C43.1636 310.9 43.6037 313.121 44.6704 315.06C45.5232 316.608 46.7456 317.921 48.2286 318.882C49.7116 319.844 51.4092 320.423 53.1704 320.57L77.4404 322.57L79.4404 298.3C79.5873 296.551 79.3021 294.793 78.6099 293.18C77.9176 291.567 76.8394 290.149 75.4704 289.05Z" fill="#FF5061"/>
<path d="M71.6797 315.82C71.6797 315.82 58.1098 302.82 44.5098 315.21" stroke="#FFDAD7" stroke-width="0.75" stroke-miterlimit="10"/>
<path d="M65.7605 311.83C63.0505 299.83 74.1105 294.71 79.5705 296.02" stroke="#FFDAD7" stroke-width="0.75" stroke-miterlimit="10"/>
<path d="M56.3595 309.78C55.5095 307.22 58.7795 299.58 66.6795 302.52" stroke="#FFDAD7" stroke-width="0.75" stroke-miterlimit="10"/>
<path d="M47.5807 312.78C47.5807 312.78 46.0407 302.78 59.2107 303.17" stroke="#FFDAD7" stroke-width="0.75" stroke-miterlimit="10"/>
<path d="M74.0502 296.34C69.1302 287.55 55.3102 291.73 59.5902 302.94" stroke="#FFDAD7" stroke-width="0.75" stroke-miterlimit="10"/>
<path d="M77.2391 313.47C77.071 313.42 76.894 313.408 76.7209 313.436C76.5478 313.464 76.3831 313.53 76.2391 313.63C75.8384 313.905 75.5108 314.274 75.2843 314.704C75.0578 315.135 74.9394 315.614 74.9391 316.1C74.7536 315.535 74.4541 315.014 74.0591 314.57C73.8988 314.367 73.6885 314.209 73.4489 314.112C73.2093 314.015 72.9485 313.982 72.6923 314.017C72.436 314.051 72.1932 314.151 71.9875 314.308C71.7818 314.465 71.6203 314.672 71.519 314.91C71.3242 316.011 71.3997 317.144 71.7391 318.21C71.7583 318.292 71.7583 318.378 71.7391 318.46C71.6891 318.67 71.4291 318.65 71.2191 318.64C70.8824 318.61 70.5433 318.655 70.2261 318.772C69.9089 318.888 69.6215 319.074 69.3844 319.315C69.1473 319.556 68.9665 319.846 68.8549 320.165C68.7433 320.484 68.7038 320.824 68.7391 321.16C68.74 321.384 68.7985 321.605 68.9091 321.8C69.0507 321.977 69.2327 322.117 69.4397 322.209C69.6467 322.302 69.8728 322.343 70.0991 322.33C72.4291 322.45 77.5791 323.04 77.5791 323.04C77.5791 323.04 78.4591 318.47 78.5791 316.33C78.6292 315.8 78.5714 315.266 78.4091 314.76C78.3142 314.475 78.1613 314.214 77.9598 313.992C77.7584 313.77 77.5129 313.592 77.2391 313.47Z" fill="black"/>
<path d="M100.239 380.6C100.239 380.6 94.9693 343.66 74.5293 319.41" stroke="black" stroke-width="1.5" stroke-miterlimit="10"/>
<path d="M92.35 310.47C88.7853 313.985 85.7894 318.033 83.47 322.47C81.47 326.91 82.4701 332.47 86.8701 332.77C93.8801 332.4 96.2 319.37 92.35 310.47Z" fill="black"/>
<path d="M61.8691 336.15C66.5023 338.059 71.4042 339.237 76.3991 339.64C81.2791 339.77 85.9591 336.64 84.5491 332.49C81.4491 326.19 68.5491 329.14 61.8691 336.15Z" fill="black"/>
<path d="M317.311 256.28C318.189 253.215 318.096 249.953 317.045 246.943C315.994 243.933 314.036 241.322 311.441 239.47C308.763 237.556 305.542 236.553 302.251 236.607C298.96 236.661 295.774 237.77 293.161 239.77C293.282 236.479 292.345 233.236 290.488 230.516C288.631 227.797 285.95 225.744 282.841 224.66C279.826 223.613 276.561 223.525 273.494 224.408C270.427 225.29 267.708 227.101 265.711 229.59C264.127 231.576 263.056 233.921 262.593 236.418C262.129 238.915 262.286 241.488 263.051 243.91L273.681 277.36L307.131 266.73C309.558 265.964 311.758 264.609 313.535 262.785C315.311 260.962 316.608 258.727 317.311 256.28Z" fill="#FF5061"/>
<path d="M278.48 268.52C280.8 261.38 288.09 240.69 265.43 229.45" stroke="#FFDAD7" stroke-width="0.75" stroke-miterlimit="10"/>
<path d="M281.35 255.92C295.86 245.7 309.03 257.58 310.29 265.58" stroke="#FFDAD7" stroke-width="0.75" stroke-miterlimit="10"/>
<path d="M279.189 242.24C282.129 239.69 294.099 239.85 294.529 251.99" stroke="#FFDAD7" stroke-width="0.75" stroke-miterlimit="10"/>
<path d="M270.35 232.2C270.35 232.2 282.84 224.64 289.55 242.4" stroke="#FFDAD7" stroke-width="0.75" stroke-miterlimit="10"/>
<path d="M306.81 258.39C315.81 247.01 302.65 230.89 290.07 242.77" stroke="#FFDAD7" stroke-width="0.75" stroke-miterlimit="10"/>
<path d="M271.109 265.63C271.324 265.524 271.56 265.469 271.799 265.469C272.039 265.469 272.275 265.524 272.489 265.63C273.107 265.89 273.65 266.301 274.067 266.825C274.485 267.349 274.764 267.97 274.879 268.63C274.977 267.819 275.246 267.038 275.669 266.34C275.826 266.02 276.064 265.747 276.361 265.55C276.658 265.353 277.003 265.238 277.359 265.219C277.714 265.2 278.069 265.276 278.386 265.439C278.702 265.603 278.969 265.848 279.159 266.15C279.829 267.31 279.719 269.04 279.699 270.65C279.679 270.762 279.679 270.878 279.699 270.99C279.819 271.25 280.169 271.16 280.449 271.09C280.895 270.959 281.363 270.929 281.822 271.002C282.28 271.075 282.716 271.249 283.099 271.511C283.482 271.773 283.802 272.117 284.035 272.518C284.269 272.92 284.41 273.367 284.449 273.83C284.508 274.133 284.488 274.447 284.389 274.74C284.239 275.007 284.029 275.237 283.776 275.41C283.523 275.584 283.233 275.696 282.929 275.74C279.819 276.49 273.069 278.6 273.069 278.6C273.069 278.6 270.719 272.7 270.069 269.85C269.861 269.153 269.8 268.421 269.889 267.7C269.934 267.288 270.065 266.89 270.276 266.533C270.486 266.176 270.77 265.868 271.109 265.63Z" fill="black"/>
<path d="M253.389 372.58C253.389 372.58 251.289 313.19 276.249 272.92" stroke="black" stroke-width="1.5" stroke-miterlimit="10"/>
<path d="M293.219 291.2C287.382 289.456 281.311 288.623 275.219 288.73C269.299 289.16 263.999 293.51 266.219 298.38C270.709 305.64 285.979 300.47 293.219 291.2Z" fill="black"/>
<path d="M248.051 273.64C248.72 279.704 250.326 285.628 252.811 291.2C255.521 296.48 261.581 299.66 265.211 295.72C270.051 288.73 259.391 276.67 248.051 273.64Z" fill="black"/>
<path d="M327.049 302.36C327.959 300.067 328.135 297.548 327.555 295.151C326.975 292.753 325.666 290.594 323.809 288.97C321.893 287.296 319.491 286.28 316.955 286.071C314.419 285.862 311.883 286.472 309.719 287.81C310.062 285.289 309.586 282.724 308.362 280.494C307.138 278.263 305.23 276.485 302.919 275.42C300.682 274.385 298.178 274.069 295.754 274.515C293.329 274.961 291.102 276.147 289.379 277.91C288.004 279.317 286.999 281.042 286.453 282.932C285.907 284.821 285.837 286.817 286.249 288.74L291.899 315.28L318.429 309.63C320.352 309.217 322.143 308.338 323.646 307.071C325.149 305.803 326.318 304.185 327.049 302.36Z" fill="#FF5061"/>
<path d="M296.279 308.84C298.599 303.53 305.769 288.16 289.189 277.84" stroke="#FFDAD7" stroke-width="0.75" stroke-miterlimit="10"/>
<path d="M299.439 299.36C311.369 292.6 320.599 302.73 320.969 308.98" stroke="#FFDAD7" stroke-width="0.75" stroke-miterlimit="10"/>
<path d="M298.811 288.68C301.261 286.94 310.461 287.96 309.871 297.34" stroke="#FFDAD7" stroke-width="0.75" stroke-miterlimit="10"/>
<path d="M292.77 280.29C292.77 280.29 302.94 275.42 306.77 289.58" stroke="#FFDAD7" stroke-width="0.75" stroke-miterlimit="10"/>
<path d="M318.831 303.19C326.621 295.11 317.711 281.72 307.131 289.91" stroke="#FFDAD7" stroke-width="0.75" stroke-miterlimit="10"/>
<path d="M290.82 306.06C290.992 305.99 291.177 305.96 291.363 305.972C291.548 305.984 291.728 306.038 291.89 306.13C292.341 306.376 292.725 306.731 293.006 307.162C293.287 307.593 293.457 308.087 293.5 308.6C293.641 307.986 293.906 307.407 294.28 306.9C294.432 306.677 294.64 306.496 294.882 306.375C295.124 306.254 295.393 306.197 295.663 306.209C295.933 306.221 296.196 306.302 296.427 306.444C296.657 306.586 296.847 306.784 296.98 307.02C297.295 308.162 297.323 309.365 297.06 310.52C297.04 310.609 297.04 310.701 297.06 310.79C297.12 310.99 297.4 310.95 297.63 310.92C297.98 310.858 298.339 310.875 298.683 310.968C299.026 311.061 299.344 311.228 299.616 311.458C299.887 311.688 300.104 311.975 300.251 312.299C300.399 312.622 300.474 312.974 300.47 313.33C300.493 313.567 300.451 313.805 300.35 314.02C300.219 314.222 300.042 314.389 299.833 314.507C299.624 314.626 299.39 314.692 299.15 314.7C296.71 315.04 291.35 316.15 291.35 316.15C291.35 316.15 289.99 311.44 289.68 309.2C289.565 308.649 289.565 308.081 289.68 307.53C289.755 307.218 289.895 306.926 290.091 306.672C290.288 306.419 290.536 306.21 290.82 306.06Z" fill="black"/>
<path d="M269.119 386.99C269.119 386.99 271.989 341.15 294.229 312.05" stroke="black" stroke-width="1.5" stroke-miterlimit="10"/>
<path d="M305.9 327.4C301.537 325.609 296.922 324.509 292.22 324.14C287.63 324.02 283.22 326.97 284.56 330.88C287.49 336.81 299.63 334.01 305.9 327.4Z" fill="black"/>
<path d="M272.439 310.47C272.498 315.186 273.287 319.865 274.779 324.34C276.459 328.61 280.889 331.51 283.979 328.76C288.289 323.75 280.979 313.67 272.439 310.47Z" fill="black"/>
<path d="M193.59 302.36C192.682 300.066 192.507 297.547 193.089 295.149C193.671 292.751 194.981 290.593 196.84 288.97C198.756 287.296 201.158 286.28 203.694 286.071C206.23 285.862 208.766 286.472 210.93 287.81C210.598 285.298 211.078 282.745 212.299 280.525C213.521 278.305 215.42 276.534 217.72 275.47C219.959 274.434 222.464 274.118 224.891 274.564C227.317 275.009 229.546 276.196 231.27 277.96C232.639 279.371 233.64 281.096 234.186 282.985C234.732 284.873 234.805 286.867 234.4 288.79L228.75 315.33L202.21 309.68C200.282 309.262 198.487 308.376 196.984 307.099C195.48 305.822 194.315 304.195 193.59 302.36Z" fill="#FF5061"/>
<path d="M224.38 308.84C222.06 303.53 214.89 288.16 231.47 277.84" stroke="#FFDAD7" stroke-width="0.75" stroke-miterlimit="10"/>
<path d="M221.229 299.36C209.289 292.6 200.059 302.73 199.689 308.98" stroke="#FFDAD7" stroke-width="0.75" stroke-miterlimit="10"/>
<path d="M221.86 288.68C219.4 286.94 210.21 287.96 210.79 297.34" stroke="#FFDAD7" stroke-width="0.75" stroke-miterlimit="10"/>
<path d="M227.9 280.29C227.9 280.29 217.72 275.42 213.9 289.58" stroke="#FFDAD7" stroke-width="0.75" stroke-miterlimit="10"/>
<path d="M201.83 303.19C194.04 295.11 202.96 281.72 213.53 289.91" stroke="#FFDAD7" stroke-width="0.75" stroke-miterlimit="10"/>
<path d="M229.84 306.06C229.668 305.991 229.482 305.961 229.297 305.973C229.112 305.985 228.932 306.039 228.77 306.13C228.319 306.378 227.937 306.733 227.656 307.164C227.375 307.594 227.205 308.088 227.16 308.6C227.019 307.986 226.753 307.407 226.38 306.9C226.227 306.677 226.02 306.496 225.778 306.375C225.536 306.254 225.267 306.197 224.997 306.209C224.726 306.221 224.463 306.301 224.233 306.443C224.003 306.585 223.812 306.784 223.68 307.02C223.369 308.163 223.342 309.364 223.6 310.52C223.615 310.609 223.615 310.701 223.6 310.79C223.53 310.99 223.25 310.95 223.03 310.92C222.679 310.857 222.318 310.872 221.974 310.964C221.629 311.056 221.31 311.223 221.037 311.454C220.765 311.684 220.547 311.971 220.399 312.296C220.25 312.62 220.176 312.973 220.18 313.33C220.157 313.567 220.199 313.805 220.3 314.02C220.432 314.22 220.61 314.386 220.818 314.504C221.027 314.622 221.26 314.689 221.5 314.7C223.94 315.04 229.3 316.15 229.3 316.15C229.3 316.15 230.66 311.44 230.97 309.2C231.08 308.649 231.08 308.081 230.97 307.53C230.895 307.219 230.756 306.928 230.561 306.675C230.366 306.422 230.121 306.212 229.84 306.06Z" fill="black"/>
<path d="M251.54 386.99C251.54 386.99 248.67 341.15 226.43 312.05" stroke="black" stroke-width="1.5" stroke-miterlimit="10"/>
<path d="M214.76 327.4C219.123 325.61 223.738 324.51 228.44 324.14C233.03 324.02 237.44 326.97 236.1 330.88C233.17 336.81 221.05 334.01 214.76 327.4Z" fill="black"/>
<path d="M248.219 310.47C248.166 315.187 247.376 319.867 245.879 324.34C244.199 328.61 239.769 331.51 236.689 328.76C232.379 323.75 239.689 313.67 248.219 310.47Z" fill="black"/>
<path d="M203.411 386.72H25.0508C29.308 378.748 35.4195 371.917 42.8701 366.802C50.3206 361.687 58.8917 358.438 67.8608 357.33C84.0008 355.33 92.4308 369.33 104.951 364.33C117.471 359.33 127.491 309.54 163.561 312.54C199.631 315.54 231.671 370.8 254.331 364.33C276.991 357.86 286.231 351.4 304.581 357.33C322.491 363.13 334.211 372.45 346.581 386.72H203.411Z" fill="#FFC9C2"/>
<path d="M245.661 372.17C225.661 371.33 214.981 380.6 201.821 380.6C188.661 380.6 188.381 364.32 169.401 362.67C150.421 361.02 126.461 386.67 126.461 386.67H270.591C270.591 386.67 260.281 372.77 245.661 372.17Z" stroke="#FF9A92" stroke-width="1.5" stroke-miterlimit="10"/>
<path d="M343.571 330.16L490.461 364.07C492.968 364.648 495.603 364.207 497.785 362.844C499.968 361.48 501.52 359.307 502.101 356.8L566.401 78.26C566.979 75.7525 566.538 73.1181 565.174 70.9356C563.811 68.7531 561.638 67.2009 559.131 66.62L412.241 32.71C409.733 32.1321 407.099 32.5732 404.916 33.9363C402.734 35.2994 401.182 37.4732 400.601 39.98L336.301 318.52C335.723 321.027 336.164 323.662 337.527 325.844C338.89 328.027 341.064 329.579 343.571 330.16Z" fill="#FFDAD7" stroke="white" stroke-width="1.5" stroke-linejoin="round"/>
<path d="M501.519 331.4C501.463 331.409 501.406 331.409 501.349 331.4L348.109 296.02C348.012 296.001 347.92 295.962 347.839 295.905C347.758 295.848 347.69 295.775 347.639 295.69C347.532 295.521 347.496 295.316 347.539 295.12L402.739 56.0299C402.762 55.9329 402.804 55.8414 402.862 55.7607C402.92 55.68 402.994 55.6118 403.079 55.5599C403.198 55.4813 403.337 55.4395 403.479 55.4399H403.639L556.889 90.82C556.986 90.8411 557.077 90.8814 557.158 90.9384C557.238 90.9954 557.307 91.0679 557.359 91.1518C557.411 91.2357 557.446 91.3292 557.462 91.4268C557.477 91.5243 557.473 91.624 557.449 91.7199L502.249 330.82C502.211 330.985 502.118 331.132 501.985 331.237C501.853 331.342 501.689 331.4 501.519 331.4Z" fill="#FFC9C2"/>
<path d="M403.48 56.1699L556.72 91.5499L501.52 330.65L348.28 295.27L403.48 56.1699ZM403.48 54.6699C403.14 54.6706 402.81 54.7868 402.545 54.9994C402.28 55.2119 402.094 55.5083 402.02 55.8399L346.82 294.93C346.775 295.122 346.769 295.322 346.802 295.516C346.835 295.711 346.906 295.897 347.011 296.065C347.116 296.232 347.253 296.377 347.414 296.491C347.575 296.605 347.757 296.686 347.95 296.73L501.2 332.11C501.309 332.125 501.42 332.125 501.53 332.11C501.813 332.109 502.09 332.03 502.33 331.88C502.498 331.778 502.643 331.644 502.756 331.484C502.87 331.324 502.949 331.142 502.99 330.95L558.19 91.8499C558.236 91.659 558.243 91.4609 558.212 91.2669C558.182 91.073 558.113 90.8871 558.01 90.7199C557.796 90.3824 557.458 90.1419 557.07 90.0499L403.82 54.6699C403.707 54.6595 403.593 54.6595 403.48 54.6699Z" fill="white"/>
<path d="M415.569 326.92C415.23 328.456 415.507 330.064 416.341 331.397C417.175 332.731 418.5 333.683 420.029 334.05C420.79 334.226 421.577 334.251 422.347 334.123C423.117 333.995 423.854 333.716 424.517 333.303C425.179 332.889 425.753 332.35 426.206 331.714C426.66 331.079 426.984 330.361 427.159 329.6C427.502 328.064 427.228 326.455 426.395 325.119C425.563 323.784 424.239 322.829 422.709 322.46C421.172 322.118 419.562 322.393 418.226 323.228C416.89 324.062 415.936 325.388 415.569 326.92Z" stroke="white" stroke-linecap="round" stroke-linejoin="round"/>
<path d="M496.551 66.0899L468.721 59.6699" stroke="white" stroke-width="3" stroke-linecap="round" stroke-linejoin="round"/>
<path d="M506.86 68.47L501.73 67.29" stroke="white" stroke-width="3" stroke-linecap="round" stroke-linejoin="round"/>
<g style="mix-blend-mode:multiply" opacity="0.45">
<path d="M431.429 125.66L535.619 149.72L528.559 140.13L531.989 125.27C533.36 119.327 532.314 113.082 529.081 107.91C525.848 102.738 520.692 99.0616 514.749 97.6901L441.749 80.8401C438.806 80.1598 435.757 80.0662 432.777 80.5645C429.797 81.0629 426.945 82.1434 424.383 83.7444C421.82 85.3453 419.599 87.4354 417.845 89.8952C416.091 92.3549 414.838 95.1362 414.159 98.0801C413.481 101.025 413.39 104.075 413.89 107.055C414.391 110.035 415.475 112.888 417.079 115.449C418.682 118.01 420.775 120.23 423.238 121.983C425.7 123.735 428.484 124.984 431.429 125.66Z" fill="#FFC9C2"/>
</g>
<path d="M515.661 109.53L433.391 90.54" stroke="#FFC9C2" stroke-width="1.5" stroke-linecap="round" stroke-linejoin="round"/>
<path d="M445.491 101.31L431.641 98.1201" stroke="#FFC9C2" stroke-width="1.5" stroke-linecap="round" stroke-linejoin="round"/>
<path d="M513.911 117.11L456.721 103.91" stroke="#FFC9C2" stroke-width="1.5" stroke-linecap="round" stroke-linejoin="round"/>
<path d="M512.161 124.69L429.891 105.69" stroke="#FFC9C2" stroke-width="1.5" stroke-linecap="round" stroke-linejoin="round"/>
<path d="M510.411 132.27L470.471 123.05" stroke="#FFC9C2" stroke-width="1.5" stroke-linecap="round" stroke-linejoin="round"/>
<g style="mix-blend-mode:multiply" opacity="0.45">
<path d="M391.05 286.17L495.23 310.22L488.17 300.63L491.6 285.78C492.281 282.837 492.375 279.789 491.877 276.81C491.379 273.83 490.3 270.978 488.7 268.416C487.1 265.854 485.011 263.633 482.552 261.878C480.094 260.123 477.313 258.87 474.37 258.19L401.37 241.34C398.427 240.66 395.378 240.566 392.398 241.065C389.418 241.563 386.566 242.643 384.004 244.244C381.442 245.845 379.22 247.935 377.466 250.395C375.712 252.855 374.459 255.636 373.78 258.58C373.101 261.526 373.008 264.576 373.508 267.558C374.009 270.539 375.092 273.393 376.696 275.955C378.3 278.518 380.393 280.739 382.856 282.492C385.319 284.244 388.104 285.494 391.05 286.17Z" fill="#FFC9C2"/>
</g>
<path d="M475.251 270.04L392.971 251.04" stroke="#FFC9C2" stroke-width="1.5" stroke-linecap="round" stroke-linejoin="round"/>
<path d="M405.071 261.82L391.221 258.62" stroke="#FFC9C2" stroke-width="1.5" stroke-linecap="round" stroke-linejoin="round"/>
<path d="M473.501 277.61L416.311 264.41" stroke="#FFC9C2" stroke-width="1.5" stroke-linecap="round" stroke-linejoin="round"/>
<path d="M471.751 285.19L389.471 266.2" stroke="#FFC9C2" stroke-width="1.5" stroke-linecap="round" stroke-linejoin="round"/>
<path d="M470.001 292.77L430.061 283.55" stroke="#FFC9C2" stroke-width="1.5" stroke-linecap="round" stroke-linejoin="round"/>
<g style="mix-blend-mode:multiply" opacity="0.45">
<path d="M483.491 230.08L379.301 206.02L389.851 200.47L393.281 185.62C394.652 179.677 398.328 174.521 403.501 171.288C408.673 168.055 414.917 167.009 420.861 168.38L493.861 185.23C499.801 186.612 504.95 190.297 508.173 195.475C511.397 200.653 512.432 206.899 511.051 212.84C509.679 218.779 506.006 223.931 500.838 227.163C495.671 230.396 489.431 231.445 483.491 230.08Z" fill="#FFC9C2"/>
</g>
<path d="M414.85 178.66L497.13 197.65" stroke="#FFC9C2" stroke-width="1.5" stroke-linecap="round" stroke-linejoin="round"/>
<path d="M481.529 202.03L495.379 205.23" stroke="#FFC9C2" stroke-width="1.5" stroke-linecap="round" stroke-linejoin="round"/>
<path d="M413.109 186.23L470.299 199.44" stroke="#FFC9C2" stroke-width="1.5" stroke-linecap="round" stroke-linejoin="round"/>
<path d="M411.359 193.81L493.629 212.81" stroke="#FFC9C2" stroke-width="1.5" stroke-linecap="round" stroke-linejoin="round"/>
<path d="M409.609 201.39L449.549 210.61" stroke="#FFC9C2" stroke-width="1.5" stroke-linecap="round" stroke-linejoin="round"/>
<path d="M377.35 349.39L378.25 372.68C378.25 372.68 359.15 383.91 359.15 384.15C359.15 384.39 377.33 385.05 377.33 385.05L385.38 381.11H393.25C393.466 381.111 393.678 381.064 393.873 380.971C394.067 380.878 394.237 380.742 394.371 380.573C394.505 380.405 394.599 380.208 394.646 379.998C394.692 379.787 394.69 379.569 394.64 379.36L393.01 372.18L395.84 347.66" fill="#F7A89A"/>
<path d="M360.46 381.47C363.32 379.81 374.07 374.47 374.07 374.47L385.32 381.09H395.05V386.7H386.51V382.47H385.27C384.836 382.473 384.415 382.617 384.07 382.88L379.83 386.16C379.368 386.513 378.802 386.706 378.22 386.71H359.15C356.64 386.72 356.05 384.01 360.46 381.47Z" fill="#FF5061"/>
<path d="M389.38 382.17L394 375.94L393.45 373.57L387.98 381.13L389.38 382.17Z" fill="#FF5061"/>
<path d="M439.37 128.63C447.06 137.8 455.04 156.57 454.7 164.96C454.17 178.16 441.86 209.52 441.86 209.52L438.14 204.73L446.6 164.92C446.6 164.92 424.16 144.16 418.84 139.99C413.52 135.82 407.67 123.44 419.62 118.08C428.4 114.13 435.77 124.34 439.37 128.63Z" fill="#F28B7C"/>
<path d="M414.599 195.61C414.599 195.61 413.599 262.46 418.069 279.09C420.809 289.21 433.599 314.97 433.599 314.97L483.929 326.59C483.929 326.59 466.119 300.43 450.839 274.76C450.839 259.96 452.289 249.96 453.839 221.49C457.839 201.4 453.839 196.75 451.719 189.76" fill="#2433BC"/>
<path d="M449.549 318.7C449.549 318.7 430.309 281.58 427.109 270.7C425.519 265.32 423.949 198.38 423.949 198.38" stroke="#152377" stroke-width="0.75" stroke-miterlimit="10"/>
<path d="M452.291 189.37C457.291 196.96 465.421 212.99 447.561 230.84C433.621 245.52 412.921 277.21 412.921 277.21L419.551 360.47L371.051 354.96C371.051 354.96 373.471 289.5 378.551 267.46C383.131 247.59 419.361 200.62 419.361 200.62L420.011 193.87" fill="#3E49E1"/>
<path d="M433.6 199.66C433.336 202.445 432.473 205.14 431.07 207.56C427.32 213.9 395.31 264.3 394.77 270.04C392.77 290.76 392.09 357.33 392.09 357.33" stroke="#152377" stroke-width="0.75" stroke-miterlimit="10"/>
<path d="M414.551 200.28C414.551 200.28 430.491 203.56 454.701 193.41" stroke="#152377" stroke-width="0.75" stroke-miterlimit="10"/>
<path d="M440.111 198.27C440.111 198.27 439.041 193.91 438.631 192.2" stroke="#152377" stroke-width="0.75" stroke-miterlimit="10"/>
<path d="M451.56 194.52C450.72 192.704 449.782 190.934 448.75 189.22" stroke="#152377" stroke-width="0.75" stroke-miterlimit="10"/>
<path d="M428.401 211.57C428.401 211.57 426.641 206.57 426.111 204.57C425.78 203.264 425.641 201.916 425.701 200.57" stroke="#152377" stroke-width="0.75" stroke-miterlimit="10"/>
<path d="M382.84 280.3C382.84 280.3 388 308.18 390.34 317.54" stroke="#152377" stroke-width="0.75" stroke-miterlimit="10"/>
<path d="M379.369 281.58C379.369 281.58 380.009 296.73 380.559 301.87" stroke="#152377" stroke-width="0.75" stroke-miterlimit="10"/>
<path d="M458.539 207.13L451.539 206.47L448.399 218.38C448.271 218.874 448.317 219.396 448.529 219.86L451.529 226.35" stroke="#152377" stroke-width="0.75" stroke-miterlimit="10"/>
<path d="M458.541 208.57L457.301 208.44" stroke="#152377" stroke-width="0.75" stroke-miterlimit="10"/>
<path d="M456.431 208.35L454.551 208.15" stroke="#152377" stroke-width="0.75" stroke-miterlimit="10" stroke-dasharray="1.46 0.87"/>
<path d="M454.11 208.11L452.87 207.98L452.58 209.19" stroke="#152377" stroke-width="0.75" stroke-miterlimit="10"/>
<path d="M452.181 210.83L450.321 218.62C450.213 219.079 450.259 219.56 450.451 219.99L451.801 222.99" stroke="#152377" stroke-width="0.75" stroke-miterlimit="10" stroke-dasharray="2.81 1.69"/>
<path d="M452.15 223.73L452.67 224.87" stroke="#152377" stroke-width="0.75" stroke-miterlimit="10"/>
<path d="M414.26 185.74C414.26 185.74 414.6 189.08 414.6 195.61C423.95 197.13 445.89 192.47 452.29 189.37C450.819 186.472 449.578 183.463 448.58 180.37C447.58 173.57 423.06 173.2 423.06 173.2L414.26 185.74Z" fill="#F7A89A"/>
<path d="M419.519 191.2C419.683 191.61 419.755 192.051 419.729 192.492C419.703 192.932 419.58 193.362 419.369 193.75" stroke="#DB6653" stroke-width="0.75" stroke-miterlimit="10"/>
<path d="M419.981 120.47C416.341 122.96 408.821 136.47 408.821 136.47C408.821 136.47 401.601 145.36 402.821 151.54C404.391 159.87 409.631 163.54 410.161 165.11C411.981 170.49 414.441 187.45 414.441 187.45C414.441 187.45 434.101 188.45 449.601 182.09C444.821 162.82 453.831 149.95 445.431 133.26C441.351 125.13 430.361 117.7 430.361 117.7" fill="white"/>
<path d="M359.681 155.4C359.491 155.28 353.821 152.29 352.811 151.34C351.801 150.39 347.811 145.2 348.601 144.64C349.391 144.08 352.761 147.93 352.761 147.93L358.111 151.47" fill="#F28B7C"/>
<path d="M354.91 148.4L356.14 147.18C356.14 147.18 351.73 141.66 352.32 140.85C352.91 140.04 357.32 145.58 357.32 145.58C359.172 146.188 360.969 146.954 362.69 147.87C364.5 148.97 366.78 152.36 366.78 152.36L363.7 157.46" fill="#F28B7C"/>
<path d="M430.809 128.05C418.129 138.85 400.689 163.32 400.689 163.32L365.499 151.06L363.039 158.58C363.039 158.58 393.519 181.58 405.959 178.49C413.639 176.57 426.509 164.04 434.619 153.03C436.058 153.038 437.476 152.683 438.741 151.998C440.007 151.312 441.079 150.319 441.859 149.11C445.549 142.4 443.299 117.4 430.809 128.05Z" fill="#F7A89A"/>
<path d="M363.18 155.62L360.97 150.62C360.876 150.353 360.71 150.118 360.49 149.94L349.23 139.35C349.23 139.35 348.6 139.91 348.55 140C348.525 140.068 348.525 140.142 348.55 140.21L350.13 145.77C350.224 146.04 350.39 146.279 350.61 146.46L362.13 156.21C362.3 156.35 362.44 156.39 362.51 156.34L363.18 155.62Z" fill="#0A172B"/>
<path d="M363.2 155.4L361.64 149.9C361.544 149.632 361.379 149.393 361.16 149.21L349.58 139.47C349.33 139.25 349.15 139.29 349.22 139.54L350.8 145.1C350.896 145.369 351.062 145.607 351.28 145.79L362.8 155.53C363.05 155.72 363.28 155.68 363.2 155.4Z" fill="#00276F"/>
<path d="M360.33 148.51L362.16 154.94L352.08 146.42L350.25 139.99L360.33 148.51Z" fill="#8DADE0"/>
<path d="M361.76 152.1C361.91 152.25 362.02 152.27 362.01 152.16C361.956 151.978 361.852 151.815 361.71 151.69C361.56 151.55 361.45 151.52 361.46 151.64C361.515 151.818 361.619 151.978 361.76 152.1Z" fill="#8DADE0"/>
<path d="M350.34 142L350.68 143.13" stroke="#8DADE0" stroke-width="0.25" stroke-miterlimit="10" stroke-linecap="round"/>
<g style="mix-blend-mode:multiply" opacity="0.55">
<path d="M353.05 142.94C353.19 143.08 353.3 143.1 353.29 142.94C353.237 142.771 353.141 142.619 353.01 142.5C352.87 142.36 352.76 142.34 352.77 142.45C352.815 142.637 352.912 142.807 353.05 142.94Z" fill="#8DADE0"/>
</g>
<path opacity="0.51" d="M352.869 146.26L351.869 142.87C351.759 142.51 352.019 142.45 352.389 142.76L353.229 143.48L353.379 143.42L354.539 147.55C354.639 147.91 354.379 147.96 354.019 147.65L353.499 147.22C353.211 146.959 352.994 146.629 352.869 146.26Z" fill="white"/>
<path d="M352.51 143.3L353.48 146.71" stroke="#8DADE0" stroke-width="0.25" stroke-miterlimit="10" stroke-linecap="round"/>
<path d="M353.15 143.84L353.7 145.8" stroke="#8DADE0" stroke-width="0.25" stroke-miterlimit="10" stroke-linecap="round"/>
<g style="mix-blend-mode:multiply" opacity="0.55">
<path d="M359.249 148.11C359.389 148.25 359.499 148.27 359.489 148.17C359.438 147.998 359.341 147.842 359.209 147.72C359.069 147.59 358.959 147.56 358.969 147.67C359.018 147.841 359.116 147.993 359.249 148.11Z" fill="#8DADE0"/>
</g>
<path opacity="0.51" d="M359.119 151.47L358.119 148.08C358.019 147.72 358.279 147.67 358.649 147.98L359.489 148.7L359.629 148.64L360.799 152.76C360.899 153.12 360.639 153.18 360.269 152.87L359.759 152.43C359.462 152.175 359.241 151.843 359.119 151.47Z" fill="white"/>
<path d="M358.76 148.47L359.73 151.88" stroke="#8DADE0" stroke-width="0.25" stroke-miterlimit="10" stroke-linecap="round"/>
<path d="M359.4 149.01L359.95 150.97" stroke="#8DADE0" stroke-width="0.25" stroke-miterlimit="10" stroke-linecap="round"/>
<g style="mix-blend-mode:multiply" opacity="0.55">
<path d="M357.46 150.77C357.6 150.91 357.71 150.93 357.7 150.83C357.645 150.659 357.549 150.505 357.42 150.38C357.27 150.24 357.17 150.22 357.18 150.33C357.225 150.502 357.323 150.656 357.46 150.77Z" fill="#8DADE0"/>
</g>
<path opacity="0.51" d="M355.841 148.47L354.841 144.8C354.751 144.5 354.971 144.46 355.281 144.72L356.081 145.4C356.298 145.578 356.461 145.814 356.551 146.08L357.811 150.57L357.491 150.1L356.361 149.15C356.128 148.976 355.948 148.74 355.841 148.47Z" fill="white"/>
<path d="M355.439 145.34L356.409 148.74" stroke="#8DADE0" stroke-width="0.25" stroke-miterlimit="10" stroke-linecap="round"/>
<path d="M356.08 145.88L356.63 147.84" stroke="#8DADE0" stroke-width="0.25" stroke-miterlimit="10" stroke-linecap="round"/>
<path d="M356.73 148.14L356.95 148.9" stroke="#8DADE0" stroke-width="0.25" stroke-miterlimit="10" stroke-linecap="round"/>
<mask id="mask0_535_8295" style="mask-type:luminance" maskUnits="userSpaceOnUse" x="349" y="139" width="15" height="17">
<path d="M363.2 155.4L361.64 149.9C361.544 149.632 361.379 149.393 361.16 149.21L349.58 139.47C349.33 139.25 349.15 139.29 349.22 139.54L350.8 145.1C350.896 145.369 351.062 145.607 351.28 145.79L362.8 155.53C363.05 155.72 363.28 155.68 363.2 155.4Z" fill="white"/>
</mask>
<g mask="url(#mask0_535_8295)">
<path d="M349.391 143.34L349.861 144.73L363.881 152.72L363.421 151.33L349.391 143.34Z" fill="url(#paint0_linear_535_8295)"/>
<path d="M348.48 142.19L348.6 142.54L362.62 150.53L362.51 150.19L348.48 142.19Z" fill="url(#paint1_linear_535_8295)"/>
</g>
<path d="M365.211 159.96C362.931 158.57 356.441 154.27 356.141 153.96C355.451 153.36 353.051 149.09 352.961 147.23C352.961 146.96 352.961 146.61 353.241 146.52C353.521 146.43 353.711 146.64 353.881 146.83C354.611 147.66 356.711 150.83 356.771 150.83C358.601 150.97 360.371 148.19 366.061 151.3" fill="#F7A89A"/>
<path d="M434.631 153.03L440.111 147.54" stroke="#DB6653" stroke-width="0.75" stroke-miterlimit="10"/>
<path d="M411.64 90.88C409.86 95.95 409.04 110.14 412.73 112.36C416.42 114.58 421.82 111.26 423.5 109.67C425.95 107.35 431.32 96.96 428.1 93.05C424.88 89.14 414.13 83.77 411.64 90.88Z" fill="#F7A89A"/>
<path d="M418.369 109.82L419.979 120.51C419.979 120.51 416.669 125.1 418.839 126.51C422.099 128.64 431.069 120.22 431.069 120.22L426.329 104.54" fill="#F7A89A"/>
<path d="M430.74 94.0601C430.21 88.9801 424.39 85.1101 418.96 85.2801C415.18 84.2801 405.69 87.0801 408.4 96.5801C408.4 96.5801 417.82 97.7401 420.9 93.8001C420.9 102.8 428.53 104.72 428.53 104.72C430.343 101.478 431.115 97.756 430.74 94.0601Z" fill="black"/>
<path d="M417.68 85.4C420.33 82.63 424.46 82.85 427.75 84.23C431.3 85.71 431.25 88.17 433.5 91.23C435.39 93.8 440 97.1 442.72 98.81C443.94 99.57 445.25 100.19 446.41 101.05C447.767 102.07 448.874 103.387 449.645 104.9C450.416 106.413 450.832 108.082 450.86 109.78C450.86 111.45 450.52 113.17 451 114.78C451.81 117.47 454.65 118.92 456.46 121.06C457.269 122.019 457.865 123.139 458.21 124.346C458.555 125.552 458.64 126.818 458.46 128.06C458.01 130.98 456.02 133.45 453.74 135.34C449.842 138.653 444.852 140.399 439.74 140.24C437.213 140.136 434.745 139.45 432.526 138.235C430.308 137.021 428.4 135.312 426.95 133.24C425.83 131.53 425.07 129.35 425.82 127.45C426.25 126.34 427.16 125.45 427.36 124.26C427.75 122 425.46 120.26 424.36 118.26C423.442 116.332 423.313 114.122 424 112.1C424.57 110.19 426.37 108.25 426.42 106.3C426.27 104.409 425.447 102.635 424.1 101.3" fill="black"/>
<path d="M424.049 102.94C424.049 102.74 424.289 102.62 424.469 102.53C424.839 102.256 425.27 102.076 425.725 102.008C426.181 101.94 426.646 101.986 427.079 102.14C427.484 102.401 427.771 102.81 427.879 103.28C428.104 104.083 428.106 104.932 427.883 105.735C427.661 106.539 427.224 107.267 426.619 107.84C425.489 108.84 422.769 109.22 422.619 107.17" fill="#F7A89A"/>
<path d="M414.3 100.19C414.3 100.19 411.21 104.35 411.92 105.25C412.63 106.15 414.32 105.85 414.32 105.85" stroke="#DB6653" stroke-width="0.75" stroke-miterlimit="10"/>
<path d="M417.479 100.47C417.439 100.802 417.439 101.138 417.479 101.47C417.491 101.57 417.528 101.665 417.586 101.747C417.645 101.829 417.723 101.895 417.814 101.939C417.904 101.983 418.004 102.003 418.105 101.998C418.206 101.993 418.303 101.963 418.389 101.91C419.099 101.54 418.729 99.7199 417.829 99.9799C417.729 100.018 417.642 100.084 417.579 100.172C417.517 100.259 417.482 100.363 417.479 100.47Z" fill="black"/>
<path d="M410.889 99.6199C410.849 99.9521 410.849 100.288 410.889 100.62C410.9 100.721 410.936 100.817 410.994 100.901C411.051 100.984 411.129 101.051 411.22 101.096C411.311 101.141 411.412 101.162 411.513 101.158C411.614 101.153 411.713 101.123 411.799 101.07C412.509 100.7 412.139 98.8799 411.229 99.1299C411.132 99.1703 411.048 99.2379 410.987 99.3248C410.927 99.4118 410.893 99.5142 410.889 99.6199Z" fill="black"/>
<path d="M415.949 98.39C415.949 98.39 417.789 96.59 420.279 98.91" stroke="black" stroke-width="0.75" stroke-miterlimit="10" stroke-linecap="round"/>
<path d="M410.83 97.9101C411.013 97.736 411.231 97.6021 411.469 97.5168C411.707 97.4314 411.96 97.3966 412.212 97.4145C412.464 97.4323 412.71 97.5025 412.933 97.6206C413.157 97.7386 413.353 97.9019 413.51 98.1001" stroke="black" stroke-width="0.75" stroke-miterlimit="10" stroke-linecap="round"/>
<path d="M412.76 107.9L417.87 107.3C417.87 107.3 416.63 110.19 414.17 109.9C412.97 109.75 412.76 107.9 412.76 107.9Z" fill="white"/>
<path d="M418.84 112.9C420.897 112.449 422.716 111.257 423.95 109.55" stroke="#DB6653" stroke-width="0.75" stroke-miterlimit="10"/>
<path d="M418.051 85.0701C418.051 85.0701 421.251 90.1301 433.531 91.2201C433.161 88.9601 432.651 85.52 427.641 83.71C421.191 81.39 418.051 85.0701 418.051 85.0701Z" fill="#FF5061"/>
<path d="M427.231 84.4699C427.171 84.4812 427.11 84.4812 427.051 84.4699C426.933 84.4099 426.844 84.3058 426.802 84.1803C426.761 84.0547 426.771 83.9179 426.831 83.7999L427.511 82.4699C427.572 82.3539 427.677 82.2668 427.802 82.2275C427.928 82.1882 428.064 82.1998 428.181 82.2599C428.24 82.2885 428.293 82.3288 428.336 82.3783C428.379 82.4279 428.412 82.4856 428.433 82.5481C428.453 82.6107 428.461 82.6767 428.455 82.7423C428.45 82.8079 428.431 82.8717 428.401 82.9299L427.721 84.2499C427.668 84.3294 427.594 84.3923 427.508 84.4313C427.421 84.4702 427.325 84.4836 427.231 84.4699Z" fill="#FF5061"/>
<path d="M268.61 330.16L121.72 364.07C120.476 364.362 119.187 364.405 117.927 364.198C116.666 363.99 115.459 363.535 114.375 362.86C113.29 362.184 112.35 361.301 111.608 360.261C110.866 359.221 110.336 358.045 110.05 356.8L45.7402 78.26C45.4546 77.0156 45.4172 75.7272 45.6302 74.4684C45.8431 73.2096 46.3022 72.0052 46.9812 70.924C47.6602 69.8428 48.5457 68.9062 49.5871 68.1676C50.6285 67.4291 51.8053 66.9032 53.0502 66.62L199.94 32.71C202.448 32.1321 205.082 32.5732 207.265 33.9363C209.447 35.2994 210.999 37.4732 211.58 39.98L275.88 318.52C276.458 321.027 276.017 323.662 274.654 325.844C273.291 328.027 271.117 329.579 268.61 330.16Z" fill="#FFDAD7" stroke="white" stroke-width="1.5" stroke-linejoin="round"/>
<path d="M110.66 331.4C110.491 331.4 110.327 331.342 110.194 331.237C110.062 331.132 109.969 330.985 109.93 330.82L54.7304 91.72C54.6881 91.5266 54.723 91.3243 54.8276 91.1562C54.9322 90.9881 55.0982 90.8675 55.2904 90.82L208.54 55.47H208.71C208.853 55.4696 208.992 55.5113 209.11 55.59C209.277 55.6982 209.395 55.8666 209.44 56.06L264.64 295.15C264.684 295.346 264.648 295.551 264.54 295.72C264.49 295.804 264.424 295.876 264.345 295.933C264.266 295.99 264.176 296.029 264.08 296.05L110.83 331.43C110.772 331.43 110.715 331.42 110.66 331.4Z" fill="#FFC9C2"/>
<path d="M208.711 56.1701L263.911 295.27L110.661 330.65L55.4608 91.5501L208.711 56.1701ZM208.711 54.6701C208.598 54.6604 208.484 54.6604 208.371 54.6701L55.1208 90.0501C54.7348 90.1425 54.4007 90.3832 54.1908 90.7201C53.9804 91.0568 53.9121 91.4631 54.0008 91.8501L109.201 330.95C109.245 331.142 109.327 331.323 109.442 331.483C109.557 331.642 109.703 331.777 109.871 331.88C110.107 332.03 110.381 332.11 110.661 332.11C110.774 332.125 110.888 332.125 111.001 332.11L264.251 296.73C264.638 296.64 264.973 296.399 265.183 296.062C265.393 295.724 265.461 295.317 265.371 294.93L210.171 55.8401C210.096 55.5085 209.911 55.2121 209.646 54.9996C209.38 54.787 209.051 54.6708 208.711 54.6701Z" fill="white"/>
<path d="M196.611 326.92C196.95 328.456 196.673 330.064 195.839 331.397C195.005 332.731 193.68 333.683 192.151 334.05C191.39 334.226 190.603 334.251 189.833 334.123C189.063 333.995 188.325 333.716 187.663 333.303C187.001 332.89 186.427 332.35 185.973 331.714C185.52 331.079 185.196 330.361 185.021 329.6C184.678 328.063 184.954 326.452 185.788 325.117C186.623 323.781 187.949 322.827 189.481 322.46C191.016 322.121 192.624 322.398 193.958 323.232C195.291 324.066 196.244 325.39 196.611 326.92Z" stroke="white" stroke-linecap="round" stroke-linejoin="round"/>
<path d="M115.641 66.0899L143.461 59.6699" stroke="white" stroke-width="3" stroke-linecap="round" stroke-linejoin="round"/>
<path d="M105.33 68.47L110.46 67.29" stroke="white" stroke-width="3" stroke-linecap="round" stroke-linejoin="round"/>
<g style="mix-blend-mode:multiply" opacity="0.45">
<path d="M181.58 125.08L77.4004 149.13L84.4604 139.54L81.0504 124.69C80.37 121.747 80.2761 118.699 80.7737 115.72C81.2714 112.74 82.3511 109.888 83.951 107.326C85.551 104.764 87.6399 102.543 90.0986 100.788C92.5572 99.0332 95.3374 97.7801 98.2804 97.0999L171.28 80.2599C177.214 78.9002 183.444 79.9481 188.607 83.174C193.769 86.4 197.442 91.5408 198.82 97.4699C199.504 100.415 199.599 103.466 199.103 106.448C198.606 109.43 197.526 112.285 195.924 114.849C194.323 117.413 192.232 119.637 189.771 121.392C187.31 123.148 184.526 124.401 181.58 125.08Z" fill="#FFC9C2"/>
</g>
<path d="M97.3496 108.95L179.63 89.95" stroke="#FFC9C2" stroke-width="1.5" stroke-linecap="round" stroke-linejoin="round"/>
<path d="M167.529 100.73L181.379 97.53" stroke="#FFC9C2" stroke-width="1.5" stroke-linecap="round" stroke-linejoin="round"/>
<path d="M99.0996 116.53L156.29 103.32" stroke="#FFC9C2" stroke-width="1.5" stroke-linecap="round" stroke-linejoin="round"/>
<path d="M100.85 124.1L183.13 105.11" stroke="#FFC9C2" stroke-width="1.5" stroke-linecap="round" stroke-linejoin="round"/>
<path d="M102.6 131.68L142.55 122.46" stroke="#FFC9C2" stroke-width="1.5" stroke-linecap="round" stroke-linejoin="round"/>
<g style="mix-blend-mode:multiply" opacity="0.45">
<path d="M221.991 285.58L117.811 309.63L124.871 300.05L121.441 285.19C120.069 279.248 121.114 273.005 124.345 267.833C127.576 262.661 132.729 258.984 138.671 257.61L211.671 240.76C214.614 240.08 217.663 239.986 220.643 240.484C223.623 240.983 226.475 242.063 229.037 243.664C231.599 245.265 233.821 247.355 235.575 249.815C237.329 252.275 238.582 255.056 239.261 258C239.939 260.945 240.03 263.995 239.529 266.975C239.028 269.955 237.945 272.808 236.341 275.369C234.737 277.93 232.644 280.15 230.182 281.902C227.72 283.655 224.936 284.904 221.991 285.58Z" fill="#FFC9C2"/>
</g>
<path d="M137.76 269.45L220.04 250.45" stroke="#FFC9C2" stroke-width="1.5" stroke-linecap="round" stroke-linejoin="round"/>
<path d="M207.939 261.23L221.789 258.03" stroke="#FFC9C2" stroke-width="1.5" stroke-linecap="round" stroke-linejoin="round"/>
<path d="M139.51 277.03L196.71 263.82" stroke="#FFC9C2" stroke-width="1.5" stroke-linecap="round" stroke-linejoin="round"/>
<path d="M141.26 284.61L223.54 265.61" stroke="#FFC9C2" stroke-width="1.5" stroke-linecap="round" stroke-linejoin="round"/>
<path d="M143.01 292.18L182.96 282.96" stroke="#FFC9C2" stroke-width="1.5" stroke-linecap="round" stroke-linejoin="round"/>
<g style="mix-blend-mode:multiply" opacity="0.45">
<path d="M129.531 229.47L233.711 205.47L223.161 199.95L219.731 185.09C218.359 179.147 214.683 173.991 209.511 170.758C204.339 167.525 198.094 166.479 192.151 167.85L119.151 184.7C113.207 186.071 108.052 189.748 104.819 194.92C101.586 200.092 100.54 206.336 101.911 212.28C102.595 215.222 103.852 218.001 105.611 220.458C107.37 222.914 109.595 225 112.16 226.597C114.725 228.193 117.579 229.268 120.559 229.761C123.54 230.254 126.588 230.155 129.531 229.47Z" fill="#FFC9C2"/>
</g>
<path d="M198.161 178.07L115.881 197.06" stroke="#FFC9C2" stroke-width="1.5" stroke-linecap="round" stroke-linejoin="round"/>
<path d="M131.481 201.45L117.631 204.64" stroke="#FFC9C2" stroke-width="1.5" stroke-linecap="round" stroke-linejoin="round"/>
<path d="M199.911 185.65L142.721 198.85" stroke="#FFC9C2" stroke-width="1.5" stroke-linecap="round" stroke-linejoin="round"/>
<path d="M201.661 193.23L119.381 212.22" stroke="#FFC9C2" stroke-width="1.5" stroke-linecap="round" stroke-linejoin="round"/>
<path d="M203.411 200.8L163.461 210.03" stroke="#FFC9C2" stroke-width="1.5" stroke-linecap="round" stroke-linejoin="round"/>
<path d="M186.96 193.88C184.38 227.38 172.56 271.8 162.56 284.46C153.86 295.46 107.89 318.66 107.89 318.66L100.34 285.94L129.55 265.47L138.05 218.17C138.05 218.17 133.05 199.46 138.55 186.61" fill="#071242"/>
<path d="M102.18 293.92L138.41 269.1L147.61 206.11" stroke="black" stroke-width="0.75" stroke-miterlimit="10"/>
<path d="M219.049 385.89V383.56H249.519C250.247 383.559 250.962 383.37 251.595 383.011C252.227 382.652 252.756 382.135 253.129 381.51H253.389V385.27C253.391 385.411 253.337 385.548 253.239 385.65L253.149 385.75C252.845 386.069 252.479 386.322 252.073 386.494C251.667 386.666 251.23 386.753 250.789 386.75H219.879C219.768 386.75 219.657 386.728 219.555 386.684C219.452 386.641 219.359 386.577 219.282 386.496C219.204 386.416 219.144 386.321 219.104 386.217C219.064 386.113 219.045 386.002 219.049 385.89Z" fill="white"/>
<path d="M207.57 343.1L220.26 372.47L221.15 382.76H250.46C250.692 382.76 250.922 382.714 251.136 382.625C251.35 382.536 251.545 382.405 251.708 382.241C251.872 382.076 252.001 381.881 252.089 381.667C252.177 381.452 252.222 381.222 252.22 380.99C252.221 380.634 252.113 380.287 251.911 379.994C251.709 379.701 251.423 379.476 251.09 379.35L234.19 372.57L226.25 339.98" fill="#DB6653"/>
<path d="M221.35 376.84C221.64 376.55 220.15 372.56 220.15 372.56L217.26 365.79L231.91 362.29L234.4 372.13L221.35 376.84Z" fill="white"/>
<path d="M234.05 370.8L252.11 379.28C252.493 379.468 252.815 379.761 253.037 380.127C253.258 380.492 253.37 380.913 253.36 381.34C253.309 381.932 253.042 382.485 252.611 382.894C252.18 383.303 251.614 383.54 251.02 383.56H219.02L219.96 372.16C219.96 372.16 225.86 375.47 234.05 370.8Z" fill="#3E49E1"/>
<path d="M237.811 372.13C236.782 373.462 235.91 374.908 235.211 376.44" stroke="white" stroke-miterlimit="10" stroke-linecap="round"/>
<path d="M240.101 373.52C239.251 374.655 238.533 375.883 237.961 377.18" stroke="white" stroke-miterlimit="10" stroke-linecap="round"/>
<path d="M242.049 374.53C241.325 375.602 240.68 376.725 240.119 377.89" stroke="white" stroke-miterlimit="10" stroke-linecap="round"/>
<path d="M175.129 208.3C175.129 208.3 206.759 260.96 211.259 273.46C215.759 285.96 231.629 349.96 231.629 349.96L195.819 354.96C195.819 354.96 179.329 288.52 176.349 284.09C171.169 276.38 145.549 245.95 145.549 245.95C145.549 245.95 122.429 228.32 124.389 199.46" fill="#0F1470"/>
<path d="M203.53 353.32L185.63 283.24L150.38 240.24C150.38 240.24 134.51 228.31 130.68 210.54" stroke="black" stroke-width="0.75" stroke-miterlimit="10"/>
<path d="M133.211 218.33H142.051C143.708 218.329 145.33 217.845 146.717 216.938C148.104 216.03 149.196 214.738 149.861 213.22L152.861 206.47" stroke="black" stroke-width="0.75" stroke-miterlimit="10"/>
<path d="M237.991 156.18L234.801 146.01C234.801 146.01 249.041 133.57 249.661 134.08C250.931 135.08 244.951 140.44 244.951 140.44C244.951 140.44 252.241 135.2 252.511 135.93C253.001 137.24 246.641 143.17 246.641 143.17C246.641 143.17 253.431 137.76 253.641 138.83C253.851 139.9 245.391 149.33 245.391 149.33L237.991 156.18Z" fill="#DB6653"/>
<path d="M233.16 146.08L235.63 144.31C237.107 142.023 238.813 139.892 240.72 137.95C243.31 135.49 244.24 134.8 244.79 135.08C245.34 135.36 242.99 139.39 242.99 139.39C242.99 139.39 241.89 143.89 239.17 145.79" fill="#DB6653"/>
<path d="M241.181 150L238.241 144.22C238.18 144.08 238.166 143.923 238.2 143.774C238.234 143.625 238.315 143.49 238.431 143.39L251.351 129.89L251.761 130.11C251.865 130.15 251.955 130.219 252.021 130.31L255.401 136.31C255.461 136.449 255.474 136.604 255.44 136.751C255.406 136.899 255.326 137.032 255.211 137.13L242.541 150.13C242.459 150.216 242.359 150.282 242.248 150.324C242.137 150.366 242.019 150.381 241.901 150.37L241.181 150Z" fill="#0A172B"/>
<path d="M241.049 149.87L237.709 143.95C237.649 143.809 237.634 143.653 237.669 143.504C237.703 143.355 237.784 143.22 237.899 143.12L250.639 130.12C250.919 129.84 251.339 129.82 251.489 130.12L254.869 136.12C254.933 136.258 254.948 136.414 254.914 136.562C254.88 136.711 254.797 136.843 254.679 136.94L242.009 149.94C241.709 150.15 241.229 150.17 241.049 149.87Z" fill="#00276F"/>
<path d="M238.82 142.19L242.73 149.11L253.82 137.75L249.91 130.83L238.82 142.19Z" fill="#8DADE0"/>
<path d="M240.14 146.17C239.99 146.36 239.78 146.42 239.67 146.3C239.619 146.214 239.597 146.114 239.608 146.015C239.619 145.916 239.662 145.823 239.73 145.75C239.88 145.56 240.08 145.51 240.2 145.62C240.251 145.706 240.273 145.806 240.262 145.905C240.251 146.004 240.208 146.097 240.14 146.17Z" fill="#8DADE0"/>
<path d="M252.15 132.86L252.82 134.09" stroke="#8DADE0" stroke-width="0.25" stroke-miterlimit="10" stroke-linecap="round"/>
<g style="mix-blend-mode:multiply" opacity="0.55">
<path d="M247.64 134.55C247.51 134.73 247.31 134.79 247.2 134.68C247.149 134.598 247.127 134.501 247.137 134.405C247.148 134.308 247.191 134.219 247.26 134.15C247.39 133.98 247.59 133.92 247.7 134.03C247.75 134.111 247.771 134.206 247.761 134.3C247.75 134.395 247.707 134.483 247.64 134.55Z" fill="#8DADE0"/>
</g>
<path opacity="0.51" d="M251.95 137.82L249.89 134.17C249.67 133.78 249.05 133.8 248.64 134.22L247.72 135.17H247.35L249.87 139.61C250.09 140 250.71 139.98 251.11 139.61L251.68 139.03C251.854 138.888 251.976 138.691 252.025 138.472C252.074 138.252 252.047 138.023 251.95 137.82Z" fill="white"/>
<path d="M249.119 134.77L251.199 138.44" stroke="#8DADE0" stroke-width="0.25" stroke-miterlimit="10" stroke-linecap="round"/>
<path d="M248.42 135.49L249.61 137.6" stroke="#8DADE0" stroke-width="0.25" stroke-miterlimit="10" stroke-linecap="round"/>
<g style="mix-blend-mode:multiply" opacity="0.55">
<path d="M240.631 141.47C240.491 141.64 240.301 141.7 240.191 141.59C240.14 141.509 240.119 141.414 240.13 141.32C240.141 141.225 240.183 141.137 240.251 141.07C240.381 140.89 240.581 140.83 240.691 140.95C240.739 141.031 240.76 141.126 240.749 141.22C240.738 141.314 240.696 141.402 240.631 141.47Z" fill="#8DADE0"/>
</g>
<path opacity="0.51" d="M244.931 144.75L242.931 141.1C242.711 140.71 242.091 140.74 241.681 141.15L240.761 142.1H240.391L242.911 146.54C243.131 146.93 243.751 146.91 244.151 146.54L244.721 145.96C244.885 145.81 244.995 145.61 245.033 145.391C245.071 145.172 245.035 144.946 244.931 144.75Z" fill="white"/>
<path d="M242.109 141.7L244.189 145.37" stroke="#8DADE0" stroke-width="0.25" stroke-miterlimit="10" stroke-linecap="round"/>
<path d="M241.41 142.42L242.6 144.53" stroke="#8DADE0" stroke-width="0.25" stroke-miterlimit="10" stroke-linecap="round"/>
<g style="mix-blend-mode:multiply" opacity="0.55">
<path d="M247.66 143.62C247.53 143.8 247.33 143.85 247.22 143.74C247.17 143.659 247.148 143.564 247.159 143.47C247.17 143.375 247.213 143.287 247.28 143.22C247.41 143.04 247.61 142.99 247.72 143.1C247.77 143.181 247.792 143.276 247.781 143.37C247.77 143.465 247.727 143.553 247.66 143.62Z" fill="#8DADE0"/>
</g>
<path opacity="0.51" d="M248.289 140.85L246.059 136.9C245.879 136.58 245.359 136.6 245.059 136.9L244.179 137.81C244.067 137.908 243.989 138.04 243.956 138.186C243.924 138.331 243.939 138.483 243.999 138.62L246.749 143.45L246.889 142.89L248.139 141.62C248.237 141.521 248.303 141.395 248.33 141.258C248.357 141.121 248.342 140.979 248.289 140.85Z" fill="white"/>
<path d="M245.369 137.63L247.449 141.3" stroke="#8DADE0" stroke-width="0.25" stroke-miterlimit="10" stroke-linecap="round"/>
<path d="M244.67 138.36L245.86 140.46" stroke="#8DADE0" stroke-width="0.25" stroke-miterlimit="10" stroke-linecap="round"/>
<path d="M246.02 140.8L246.49 141.62" stroke="#8DADE0" stroke-width="0.25" stroke-miterlimit="10" stroke-linecap="round"/>
<mask id="mask1_535_8295" style="mask-type:luminance" maskUnits="userSpaceOnUse" x="237" y="129" width="18" height="22">
<path d="M241.049 149.87L237.709 143.95C237.649 143.809 237.634 143.653 237.669 143.504C237.703 143.355 237.784 143.22 237.899 143.12L250.639 130.12C250.919 129.84 251.339 129.82 251.489 130.12L254.869 136.12C254.933 136.258 254.948 136.414 254.914 136.562C254.88 136.711 254.797 136.843 254.679 136.94L242.009 149.94C241.709 150.15 241.229 150.17 241.049 149.87Z" fill="white"/>
</mask>
<g mask="url(#mask1_535_8295)">
<path d="M255.8 133.92L256.5 135.44L236.37 147.4L235.67 145.88L255.8 133.92Z" fill="url(#paint2_linear_535_8295)"/>
<path d="M256.351 132.52L256.531 132.9L236.401 144.86L236.221 144.48L256.351 132.52Z" fill="url(#paint3_linear_535_8295)"/>
</g>
<path d="M204.639 145.7L210.129 159.18L235.629 144.31C235.629 144.31 242.409 150.97 241.529 154.85C228.649 166.16 211.249 186.22 199.859 181.13C190.109 176.77 180.119 146.36 180.119 146.36" fill="#DB6653"/>
<path d="M210.129 159.18C206.409 161.229 202.959 163.735 199.859 166.64" stroke="#B74539" stroke-width="0.75" stroke-miterlimit="10"/>
<path d="M238.939 157.09C238.939 157.09 248.099 149.24 249.569 147.61C251.039 145.98 254.999 141.44 254.169 141.01C253.339 140.58 248.819 144.56 248.169 145.28C246.049 145.28 241.529 147 240.079 149.9" fill="#DB6653"/>
<path d="M185.3 109.94C185.3 109.94 200.13 114.94 208.86 152.78C204.45 156.78 185.05 162.83 180.37 161.63C177.02 152.98 176.73 132.78 176.73 132.78" fill="#3E49E1"/>
<path d="M190.111 121.96C190.111 121.96 196.501 132.73 192.781 162.35C189.061 191.97 186.051 207.7 186.051 207.7C186.051 207.7 158.051 221.54 122.051 207.7C122.741 187.97 127.441 144.49 142.051 125.97C157.941 105.87 170.861 106.69 170.861 106.69L186.081 111.06L190.111 121.96Z" fill="#3E49E1"/>
<path d="M193.149 159.18C193.149 159.18 196.549 140.67 192.369 128.7" stroke="#152377" stroke-width="0.75" stroke-miterlimit="10"/>
<path d="M129.551 122.53C129.551 122.53 111.551 151.96 106.461 164.11C99.8805 179.7 100.991 223.43 100.991 223.43L108.871 225.04L124.391 171.27L147.611 140.62" fill="#DB6653"/>
<path d="M170.899 106.69C170.899 106.69 145.619 103.75 133.209 116.16C121.059 128.32 113.289 145.56 113.289 145.56C113.289 145.56 129.289 164.44 149.289 162.15L163.509 126.6" fill="#3E49E1"/>
<path d="M113.289 145.56C113.289 145.56 129.289 164.44 149.289 162.15L163.509 126.6" stroke="#152377" stroke-width="0.75" stroke-miterlimit="10"/>
<path d="M110.719 217.47C110.489 220.4 111.049 226.37 110.809 229.29C110.679 231.02 110.279 234.02 109.639 234.11C107.999 234.32 109.369 229.46 108.529 229.57C108.019 229.64 107.829 233.37 107.719 235.29C107.619 237 107.299 239.29 106.409 239.46C105.269 239.68 105.879 230.09 105.879 230.09C105.879 230.09 104.879 240.09 103.879 240.25C102.479 240.43 103.459 230.33 103.459 230.33C103.459 230.33 102.459 238.86 101.459 238.99C100.459 239.12 101.269 232.89 101.249 230.27C100.899 232.12 100.399 237.02 99.6494 237.12C98.8994 237.22 98.8495 233.51 98.9195 232.6C99.3795 227.11 101.189 216.39 101.189 216.39" fill="#DB6653"/>
<path d="M187.659 98.47L179.449 84.23L173.049 95.58L173.479 98.19L170.939 106.69C173.479 114.23 183.939 115.07 186.159 111.06L187.699 98.45" fill="#DB6653"/>
<path d="M194.9 79.35C196.24 84.42 196.6 101.62 192.53 103.44C188.46 105.26 180.25 103.52 177.85 100.44C175.77 97.77 173.85 83.44 177.55 79.97C181.25 76.5 193.05 72.25 194.9 79.35Z" fill="#DB6653"/>
<path d="M183.511 83.2601C184.141 82.1401 184.731 81.0001 185.281 79.8301L197.801 83.3001C197.978 83.3651 198.173 83.3651 198.351 83.3001C198.474 83.2183 198.569 83.0992 198.621 82.9601C199.207 81.4533 199.287 79.7968 198.851 78.2401C198.444 76.0565 197.452 74.0242 195.981 72.3601C194.94 71.3098 193.69 70.4908 192.311 69.9566C190.933 69.4225 189.457 69.1851 187.981 69.2601C185.017 69.4398 182.188 70.5569 179.901 72.4501C179.72 72.6224 179.505 72.7552 179.271 72.8401C179.049 72.8798 178.822 72.8798 178.601 72.8401C174.871 72.6801 170.891 75.9301 169.821 79.4201C169.231 81.4201 168.491 84.6601 170.101 87.0301C170.861 88.1601 173.101 96.2101 173.101 96.2101C173.101 96.2101 175.671 94.3701 175.951 94.1501C176.889 93.2791 177.685 92.2669 178.311 91.1501C179.011 90.0301 179.721 88.9601 180.521 87.8601C181.6 86.3822 182.598 84.8466 183.511 83.2601Z" fill="#611223"/>
<path d="M179.951 90.09C179.461 89.19 178.811 88.18 177.861 88.09C177.617 88.0793 177.374 88.121 177.148 88.2125C176.922 88.3039 176.718 88.4429 176.551 88.62C175.654 89.5263 175.15 90.7499 175.15 92.025C175.15 93.3002 175.654 94.5238 176.551 95.43C177.351 96.16 178.461 96.5 179.201 95.49L180.151 90.7301C180.163 90.6154 180.152 90.4993 180.117 90.3892C180.083 90.2791 180.026 90.1773 179.951 90.09Z" fill="#DB6653"/>
<path d="M186.961 104.41C186.961 104.41 180.381 104.18 177.631 100.1" stroke="#B74539" stroke-width="0.75" stroke-miterlimit="10"/>
<path d="M191.809 88.04C191.809 88.04 194.089 92.79 193.159 93.97C192.229 95.15 190.109 94.21 190.109 94.21" stroke="#B74539" stroke-width="0.75" stroke-miterlimit="10"/>
<path d="M188.26 87.47C188.333 87.7982 188.366 88.1339 188.36 88.47C188.359 88.5762 188.332 88.6806 188.28 88.7737C188.229 88.8667 188.156 88.9456 188.066 89.0031C187.977 89.0607 187.875 89.0951 187.769 89.1033C187.663 89.1115 187.557 89.0931 187.46 89.05C186.67 88.8 186.82 86.93 187.8 87.05C187.91 87.0653 188.013 87.1136 188.095 87.1886C188.177 87.2636 188.234 87.3617 188.26 87.47Z" fill="#3F111D"/>
<path d="M194.81 87.47C194.883 87.7982 194.917 88.1339 194.91 88.47C194.909 88.5749 194.881 88.6779 194.831 88.7698C194.78 88.8617 194.708 88.9397 194.62 88.997C194.532 89.0543 194.431 89.0891 194.327 89.0984C194.222 89.1076 194.117 89.091 194.02 89.05C193.23 88.8 193.37 86.93 194.35 87.05C194.461 87.0639 194.565 87.1118 194.647 87.187C194.729 87.2622 194.786 87.361 194.81 87.47Z" fill="#3F111D"/>
<path d="M192.781 97.4L186.051 95.47C186.051 95.47 185.781 100.61 189.861 101.38C192.331 101.85 192.781 97.4 192.781 97.4Z" fill="white"/>
<path d="M188.791 84.98C187.472 85.0074 186.169 85.2822 184.951 85.79C184.817 85.6543 184.722 85.4857 184.675 85.3013C184.627 85.1169 184.629 84.9233 184.681 84.74C185.902 84.0618 187.286 83.7332 188.681 83.79C188.681 83.79 189.051 84.82 188.791 84.98Z" fill="#3F111D"/>
<path d="M192.41 84.91C193.336 84.9232 194.241 85.1858 195.03 85.67C195.133 85.542 195.209 85.3946 195.254 85.2365C195.299 85.0784 195.311 84.9129 195.29 84.75C194.918 84.4281 194.487 84.1829 194.02 84.0284C193.553 83.874 193.06 83.8133 192.57 83.85C192.57 83.85 192.26 84.75 192.41 84.91Z" fill="#3F111D"/>
<path d="M175.689 94.3999C175.689 94.3999 177.029 96.3999 178.819 95.8299" stroke="#B74539" stroke-width="0.75" stroke-miterlimit="10"/>
<path d="M115.05 298.56C116.585 296.467 118.729 294.901 121.189 294.075C123.649 293.25 126.304 293.206 128.79 293.95C131.355 294.722 133.605 296.297 135.209 298.442C136.812 300.588 137.686 303.191 137.7 305.87C139.757 304.152 142.311 303.14 144.985 302.982C147.66 302.823 150.315 303.527 152.56 304.99C154.741 306.404 156.429 308.461 157.391 310.875C158.353 313.29 158.541 315.944 157.93 318.47C157.441 320.48 156.465 322.339 155.087 323.883C153.709 325.426 151.973 326.607 150.03 327.32L123.22 337.13L113.41 310.32C112.69 308.377 112.463 306.286 112.749 304.233C113.035 302.181 113.826 300.232 115.05 298.56Z" fill="#FF5061"/>
<path d="M127.609 327.65C127.609 327.65 138.949 308.79 158.149 318.58" stroke="#FFDAD7" stroke-width="0.75" stroke-miterlimit="10"/>
<path d="M133.051 321.31C132.401 306.89 118.321 304.53 112.551 307.7" stroke="#FFDAD7" stroke-width="0.75" stroke-miterlimit="10"/>
<path d="M143.051 316.09C143.231 312.94 137.171 305.31 129.141 311.09" stroke="#FFDAD7" stroke-width="0.75" stroke-miterlimit="10"/>
<path d="M153.931 316.78C153.931 316.78 152.581 304.99 137.811 309.5" stroke="#FFDAD7" stroke-width="0.75" stroke-miterlimit="10"/>
<path d="M118.93 306.36C121.78 294.9 138.7 295.36 137.32 309.36" stroke="#FFDAD7" stroke-width="0.75" stroke-miterlimit="10"/>
<path d="M120.3 328.66C120.469 328.545 120.662 328.47 120.865 328.44C121.068 328.411 121.274 328.428 121.47 328.49C122.009 328.654 122.5 328.948 122.898 329.348C123.296 329.748 123.589 330.24 123.75 330.78C123.76 330.09 123.913 329.409 124.2 328.78C124.312 328.504 124.493 328.262 124.726 328.076C124.959 327.89 125.236 327.767 125.53 327.719C125.824 327.671 126.126 327.699 126.406 327.8C126.686 327.902 126.935 328.074 127.13 328.3C127.8 329.21 127.88 330.67 128.01 332.03C128.013 332.129 128.033 332.228 128.07 332.32C128.2 332.52 128.48 332.42 128.72 332.32C129.081 332.173 129.472 332.107 129.862 332.128C130.252 332.149 130.633 332.256 130.977 332.441C131.321 332.627 131.62 332.886 131.852 333.2C132.084 333.515 132.244 333.877 132.32 334.26C132.39 334.512 132.39 334.778 132.32 335.03C132.223 335.274 132.07 335.491 131.874 335.665C131.678 335.839 131.443 335.964 131.19 336.03C128.64 336.95 123.19 339.36 123.19 339.36C123.19 339.36 120.66 334.61 119.82 332.27C119.577 331.702 119.458 331.088 119.47 330.47C119.475 330.127 119.552 329.79 119.695 329.478C119.838 329.167 120.044 328.888 120.3 328.66Z" fill="black"/>
<path d="M113.741 386.72C113.741 386.72 113.481 357.99 125.321 334.32" stroke="black" stroke-width="1.5" stroke-miterlimit="10"/>
<path d="M135.47 344.2C132.16 343.402 128.746 343.122 125.35 343.37C122.06 343.79 119.24 346.37 120.62 349.02C123.36 352.92 131.71 349.6 135.47 344.2Z" fill="black"/>
<path d="M109.74 335.78C110.295 339.139 111.368 342.391 112.92 345.42C114.59 348.28 118.07 349.87 119.92 347.57C122.5 343.52 116.18 337.12 109.74 335.78Z" fill="black"/>
<path d="M500.59 297.56C499.037 295.141 496.776 293.259 494.116 292.169C491.456 291.08 488.524 290.835 485.72 291.47C482.823 292.126 480.213 293.694 478.275 295.944C476.336 298.195 475.17 301.008 474.95 303.97C472.805 301.912 470.057 300.596 467.108 300.216C464.16 299.836 461.167 300.413 458.57 301.86C456.047 303.256 454.019 305.4 452.765 307.997C451.512 310.594 451.094 313.516 451.57 316.36C451.96 318.622 452.9 320.754 454.307 322.568C455.714 324.381 457.546 325.821 459.64 326.76L488.57 339.67L501.48 310.75C502.43 308.648 502.846 306.344 502.69 304.043C502.535 301.742 501.814 299.515 500.59 297.56Z" fill="#FF5061"/>
<path d="M486.699 334.21C486.699 334.21 477.049 305.03 451.369 316.47" stroke="#FFDAD7" stroke-width="0.75" stroke-miterlimit="10"/>
<path d="M478.91 321.38C480.73 305.46 496.49 303.93 502.64 307.88" stroke="#FFDAD7" stroke-width="0.75" stroke-miterlimit="10"/>
<path d="M468.24 314.83C468.29 311.32 475.58 303.34 484.03 310.35" stroke="#FFDAD7" stroke-width="0.75" stroke-miterlimit="10"/>
<path d="M456.17 314.76C456.17 314.76 458.57 301.76 474.57 307.94" stroke="#FFDAD7" stroke-width="0.75" stroke-miterlimit="10"/>
<path d="M495.71 305.91C493.44 293 474.71 292.21 475.13 307.82" stroke="#FFDAD7" stroke-width="0.75" stroke-miterlimit="10"/>
<path d="M492.86 331.72C492.67 331.598 492.456 331.521 492.233 331.493C492.01 331.465 491.783 331.488 491.57 331.56C490.972 331.75 490.431 332.085 489.995 332.535C489.558 332.985 489.24 333.537 489.07 334.14C489.045 333.374 488.861 332.621 488.53 331.93C488.403 331.625 488.199 331.357 487.939 331.154C487.678 330.95 487.37 330.818 487.043 330.768C486.716 330.719 486.382 330.755 486.073 330.873C485.764 330.99 485.491 331.186 485.28 331.44C484.55 332.44 484.49 334.09 484.37 335.6C484.368 335.71 484.344 335.819 484.3 335.92C484.17 336.15 483.85 336.04 483.59 335.92C483.182 335.767 482.747 335.704 482.313 335.735C481.878 335.767 481.456 335.893 481.076 336.104C480.695 336.315 480.365 336.607 480.109 336.958C479.852 337.31 479.675 337.713 479.59 338.14C479.509 338.421 479.509 338.719 479.59 339C479.699 339.269 479.872 339.507 480.093 339.695C480.314 339.883 480.577 340.015 480.86 340.08C483.7 341.08 489.86 343.64 489.86 343.64C489.86 343.64 492.59 338.32 493.48 335.72C493.735 335.085 493.858 334.404 493.84 333.72C493.823 333.337 493.727 332.962 493.559 332.618C493.39 332.273 493.152 331.968 492.86 331.72Z" fill="black"/>
<path d="M501.569 386.72C501.569 386.72 499.049 360.97 487.439 338.07" stroke="black" stroke-width="1.5" stroke-miterlimit="10"/>
<path d="M505.889 334.78C501.882 337.173 498.269 340.172 495.179 343.67C492.359 347.24 492.069 352.47 495.969 353.74C502.399 354.94 507.399 343.67 505.889 334.78Z" fill="black"/>
<path d="M472.6 351.21C476.368 353.967 480.541 356.123 484.97 357.6C489.35 358.81 494.28 357.03 493.97 352.95C492.53 346.55 480.2 346.35 472.6 351.21Z" fill="black"/>
<path d="M516.25 315.16C517.34 313.531 518.908 312.28 520.738 311.578C522.568 310.876 524.57 310.758 526.47 311.24C528.429 311.74 530.177 312.854 531.457 314.42C532.736 315.986 533.48 317.92 533.58 319.94C535.077 318.58 536.97 317.735 538.983 317.53C540.995 317.325 543.02 317.77 544.76 318.8C546.446 319.802 547.781 321.301 548.581 323.091C549.382 324.881 549.608 326.876 549.23 328.8C548.929 330.334 548.253 331.77 547.262 332.979C546.271 334.189 544.995 335.134 543.55 335.73L523.64 344L515.38 324.09C514.777 322.645 514.541 321.074 514.693 319.516C514.845 317.958 515.38 316.461 516.25 315.16Z" fill="#FF5061"/>
<path d="M526.65 336.71C526.65 336.71 534.65 322.11 549.4 328.88" stroke="#FFDAD7" stroke-width="0.75" stroke-miterlimit="10"/>
<path d="M530.57 331.75C529.57 320.89 518.92 319.56 514.67 322.14" stroke="#FFDAD7" stroke-width="0.75" stroke-miterlimit="10"/>
<path d="M537.939 327.47C537.939 325.08 533.159 319.52 527.289 324.13" stroke="#FFDAD7" stroke-width="0.75" stroke-miterlimit="10"/>
<path d="M546.16 327.66C546.16 327.66 544.76 318.8 533.76 322.66" stroke="#FFDAD7" stroke-width="0.75" stroke-miterlimit="10"/>
<path d="M519.42 320.92C521.19 312.18 533.98 311.98 533.42 322.59" stroke="#FFDAD7" stroke-width="0.75" stroke-miterlimit="10"/>
<path d="M521.17 337.7C521.293 337.608 521.436 337.546 521.587 337.519C521.737 337.491 521.893 337.498 522.04 337.54C522.454 337.644 522.834 337.85 523.149 338.138C523.463 338.426 523.701 338.787 523.84 339.19C523.829 338.67 523.925 338.152 524.12 337.67C524.193 337.456 524.32 337.265 524.489 337.115C524.658 336.965 524.863 336.862 525.084 336.816C525.305 336.769 525.534 336.781 525.749 336.85C525.964 336.919 526.158 337.043 526.31 337.21C526.794 338.062 527.062 339.02 527.09 340C527.095 340.074 527.115 340.145 527.15 340.21C527.25 340.36 527.46 340.27 527.63 340.21C527.899 340.087 528.191 340.024 528.487 340.027C528.782 340.031 529.073 340.099 529.339 340.228C529.605 340.357 529.839 340.544 530.024 340.774C530.209 341.004 530.341 341.273 530.41 341.56C530.468 341.749 530.468 341.951 530.41 342.14C530.345 342.327 530.237 342.496 530.095 342.633C529.952 342.77 529.779 342.872 529.59 342.93C527.7 343.71 523.59 345.7 523.59 345.7C522.576 344.001 521.648 342.252 520.81 340.46C520.619 340.038 520.51 339.583 520.49 339.12C520.494 338.848 520.556 338.58 520.674 338.335C520.791 338.09 520.96 337.873 521.17 337.7Z" fill="black"/>
<path d="M512.221 386.72C512.221 386.72 512.721 360.43 524.821 343.72" stroke="black" stroke-width="1.5" stroke-miterlimit="10"/>
<path d="M508.05 348.66C510.873 350.125 513.451 352.021 515.69 354.28C517.74 356.59 518.14 360.14 515.55 361.15C511.26 362.23 507.41 354.77 508.05 348.66Z" fill="black"/>
<path d="M531.349 358.47C528.901 360.495 526.151 362.125 523.199 363.3C520.269 364.3 516.849 363.3 516.929 360.49C517.629 356.13 526.049 355.47 531.349 358.47Z" fill="black"/>
<path d="M274.33 97.7H207.51L213.39 92.65V82.73C213.39 78.7517 214.97 74.9364 217.783 72.1234C220.596 69.3103 224.412 67.73 228.39 67.73H274.39C278.368 67.73 282.183 69.3103 284.996 72.1234C287.809 74.9364 289.39 78.7517 289.39 82.73C289.386 84.7024 288.993 86.6546 288.234 88.4749C287.474 90.2952 286.363 91.948 284.965 93.3385C283.566 94.7289 281.906 95.8299 280.081 96.5783C278.257 97.3267 276.302 97.7079 274.33 97.7Z" fill="white"/>
<path d="M327.48 184.06H260.66L266.54 179.06V169.14C266.54 165.162 268.121 161.347 270.934 158.534C273.747 155.72 277.562 154.14 281.54 154.14H327.54C331.518 154.14 335.334 155.72 338.147 158.534C340.96 161.347 342.54 165.162 342.54 169.14C342.519 173.115 340.921 176.919 338.097 179.716C335.274 182.514 331.455 184.076 327.48 184.06Z" fill="#FFDAD7" stroke="white" stroke-width="1.5" stroke-linejoin="round"/>
<path d="M33.2598 248.5H49.8398" stroke="white" stroke-width="1.5" stroke-linecap="round" stroke-linejoin="round"/>
<path d="M54.5 248.5H61.79" stroke="white" stroke-width="1.5" stroke-linecap="round" stroke-linejoin="round"/>
<path d="M342.57 82.9399H359.15" stroke="white" stroke-width="1.5" stroke-linecap="round" stroke-linejoin="round"/>
<path d="M363.811 82.9399H371.111" stroke="white" stroke-width="1.5" stroke-linecap="round" stroke-linejoin="round"/>
<path d="M359.609 310.22V314.84" stroke="white" stroke-width="1.5" stroke-linecap="round" stroke-linejoin="round"/>
<path d="M361.919 312.53H357.289" stroke="white" stroke-width="1.5" stroke-linecap="round" stroke-linejoin="round"/>
<path d="M479.561 240.09V244.71" stroke="white" stroke-width="1.5" stroke-linecap="round" stroke-linejoin="round"/>
<path d="M481.87 242.4H477.25" stroke="white" stroke-width="1.5" stroke-linecap="round" stroke-linejoin="round"/>
<path d="M355.77 172.5V177.13" stroke="white" stroke-width="1.5" stroke-linecap="round" stroke-linejoin="round"/>
<path d="M358.091 174.82H353.461" stroke="white" stroke-width="1.5" stroke-linecap="round" stroke-linejoin="round"/>
<path d="M92.9297 159.47V164.1" stroke="white" stroke-width="1.5" stroke-linecap="round" stroke-linejoin="round"/>
<path d="M95.2491 161.79H90.6191" stroke="white" stroke-width="1.5" stroke-linecap="round" stroke-linejoin="round"/>
<path d="M330.381 60.5701V65.1901" stroke="white" stroke-width="1.5" stroke-linecap="round" stroke-linejoin="round"/>
<path d="M332.69 62.8799H328.07" stroke="white" stroke-width="1.5" stroke-linecap="round" stroke-linejoin="round"/>
<path d="M441.699 19.3401V23.9701" stroke="white" stroke-width="1.5" stroke-linecap="round" stroke-linejoin="round"/>
<path d="M444.011 21.6499H439.391" stroke="white" stroke-width="1.5" stroke-linecap="round" stroke-linejoin="round"/>
<path d="M559.039 204.16V208.78" stroke="white" stroke-width="1.5" stroke-linecap="round" stroke-linejoin="round"/>
<path d="M561.35 206.47H556.73" stroke="white" stroke-width="1.5" stroke-linecap="round" stroke-linejoin="round"/>
<path d="M271.38 123.99C272.6 123.99 273.59 123.001 273.59 121.78C273.59 120.56 272.6 119.57 271.38 119.57C270.159 119.57 269.17 120.56 269.17 121.78C269.17 123.001 270.159 123.99 271.38 123.99Z" stroke="white" stroke-width="1.5" stroke-linecap="round" stroke-linejoin="round"/>
<path d="M359.98 46.69C359.98 47.2761 359.747 47.8382 359.333 48.2527C358.919 48.6671 358.356 48.9 357.77 48.9C357.186 48.8973 356.626 48.6633 356.214 48.2492C355.802 47.835 355.57 47.2744 355.57 46.69C355.57 46.1056 355.802 45.545 356.214 45.1308C356.626 44.7166 357.186 44.4826 357.77 44.48C358.061 44.48 358.348 44.5371 358.616 44.6482C358.884 44.7593 359.128 44.9221 359.333 45.1273C359.538 45.3325 359.701 45.5761 359.812 45.8443C359.923 46.1124 359.98 46.3998 359.98 46.69Z" stroke="white" stroke-width="1.5" stroke-linecap="round" stroke-linejoin="round"/>
<path d="M154.141 21.6499C154.141 22.2361 153.908 22.7982 153.493 23.2126C153.079 23.6271 152.517 23.8599 151.931 23.8599C151.345 23.8599 150.782 23.6271 150.368 23.2126C149.954 22.7982 149.721 22.2361 149.721 21.6499C149.721 21.0638 149.954 20.5017 150.368 20.0872C150.782 19.6728 151.345 19.4399 151.931 19.4399C152.517 19.4399 153.079 19.6728 153.493 20.0872C153.908 20.5017 154.141 21.0638 154.141 21.6499Z" stroke="white" stroke-width="1.5" stroke-linecap="round" stroke-linejoin="round"/>
<path d="M510.409 174.82C511.63 174.82 512.619 173.83 512.619 172.61C512.619 171.389 511.63 170.4 510.409 170.4C509.189 170.4 508.199 171.389 508.199 172.61C508.199 173.83 509.189 174.82 510.409 174.82Z" stroke="white" stroke-width="1.5" stroke-linecap="round" stroke-linejoin="round"/>
<path d="M549.421 270.47C549.422 270.76 549.366 271.047 549.256 271.315C549.146 271.583 548.984 271.827 548.78 272.032C548.576 272.238 548.333 272.4 548.065 272.512C547.797 272.623 547.511 272.68 547.221 272.68C546.642 272.67 546.09 272.432 545.684 272.019C545.278 271.605 545.051 271.049 545.051 270.47C545.051 270.18 545.108 269.893 545.219 269.626C545.33 269.358 545.493 269.115 545.699 268.911C545.904 268.706 546.148 268.545 546.416 268.435C546.684 268.325 546.971 268.269 547.261 268.27C547.838 268.278 548.389 268.514 548.794 268.926C549.198 269.338 549.423 269.893 549.421 270.47Z" stroke="white" stroke-width="1.5" stroke-linecap="round" stroke-linejoin="round"/>
<path d="M34.0506 322.31C34.0506 322.896 33.8178 323.458 33.4033 323.873C32.9889 324.287 32.4267 324.52 31.8406 324.52C31.5508 324.52 31.264 324.463 30.9964 324.352C30.7289 324.24 30.4859 324.078 30.2815 323.872C30.077 323.667 29.9152 323.423 29.8052 323.155C29.6952 322.887 29.6393 322.6 29.6406 322.31C29.6393 322.02 29.6952 321.733 29.8052 321.465C29.9152 321.197 30.077 320.953 30.2815 320.748C30.4859 320.543 30.7289 320.38 30.9964 320.269C31.264 320.157 31.5508 320.1 31.8406 320.1C32.4267 320.1 32.9889 320.333 33.4033 320.747C33.8178 321.162 34.0506 321.724 34.0506 322.31Z" stroke="white" stroke-width="1.5" stroke-linecap="round" stroke-linejoin="round"/>
<path d="M244.021 282.51C245.241 282.51 246.231 281.521 246.231 280.3C246.231 279.08 245.241 278.09 244.021 278.09C242.8 278.09 241.811 279.08 241.811 280.3C241.811 281.521 242.8 282.51 244.021 282.51Z" stroke="white" stroke-width="1.5" stroke-linecap="round" stroke-linejoin="round"/>
<path d="M74.1006 136.58C75.3212 136.58 76.3106 135.59 76.3106 134.37C76.3106 133.149 75.3212 132.16 74.1006 132.16C72.8801 132.16 71.8906 133.149 71.8906 134.37C71.8906 135.59 72.8801 136.58 74.1006 136.58Z" stroke="white" stroke-width="1.5" stroke-linecap="round" stroke-linejoin="round"/>
<path d="M276.689 171.29H312.729" stroke="white" stroke-width="1.5" stroke-linecap="round" stroke-linejoin="round"/>
<path d="M540.311 301.82H558.541" stroke="white" stroke-width="1.5" stroke-linecap="round" stroke-linejoin="round"/>
<path d="M521.051 125.94C520.823 124.558 520.173 123.281 519.19 122.284C518.207 121.286 516.939 120.618 515.561 120.37C514.104 120.114 512.604 120.343 511.291 121.023C509.977 121.702 508.923 122.794 508.291 124.13C507.658 122.794 506.604 121.702 505.291 121.023C503.977 120.343 502.477 120.114 501.021 120.37C499.642 120.616 498.373 121.285 497.39 122.282C496.407 123.28 495.757 124.558 495.531 125.94C495.357 126.998 495.438 128.083 495.766 129.104C496.095 130.124 496.662 131.052 497.421 131.81L507.051 141.47C507.213 141.635 507.406 141.765 507.619 141.854C507.831 141.944 508.06 141.989 508.291 141.989C508.522 141.989 508.75 141.944 508.963 141.854C509.176 141.765 509.369 141.635 509.531 141.47L519.161 131.84C519.924 131.079 520.494 130.146 520.823 129.12C521.151 128.093 521.23 127.003 521.051 125.94Z" fill="#FF5061"/>
<path d="M508.26 107.33V111.12" stroke="white" stroke-width="1.5" stroke-linecap="round" stroke-linejoin="round"/>
<path d="M508.26 148.01V151.8" stroke="white" stroke-width="1.5" stroke-linecap="round" stroke-linejoin="round"/>
<path d="M530.489 129.57H526.699" stroke="white" stroke-width="1.5" stroke-linecap="round" stroke-linejoin="round"/>
<path d="M489.819 129.57H486.029" stroke="white" stroke-width="1.5" stroke-linecap="round" stroke-linejoin="round"/>
<path d="M492.539 113.85L495.219 116.53" stroke="white" stroke-width="1.5" stroke-linecap="round" stroke-linejoin="round"/>
<path d="M521.301 142.61L523.981 145.29" stroke="white" stroke-width="1.5" stroke-linecap="round" stroke-linejoin="round"/>
<path d="M523.981 113.85L521.301 116.53" stroke="white" stroke-width="1.5" stroke-linecap="round" stroke-linejoin="round"/>
<path d="M495.219 142.61L492.539 145.29" stroke="white" stroke-width="1.5" stroke-linecap="round" stroke-linejoin="round"/>
<path d="M499.75 109.03L501.2 112.53" stroke="white" stroke-width="1.5" stroke-linecap="round" stroke-linejoin="round"/>
<path d="M515.32 146.6L516.77 150.1" stroke="white" stroke-width="1.5" stroke-linecap="round" stroke-linejoin="round"/>
<path d="M528.801 121.06L525.301 122.51" stroke="white" stroke-width="1.5" stroke-linecap="round" stroke-linejoin="round"/>
<path d="M491.221 136.62L487.721 138.07" stroke="white" stroke-width="1.5" stroke-linecap="round" stroke-linejoin="round"/>
<path d="M487.721 121.06L491.221 122.51" stroke="white" stroke-width="1.5" stroke-linecap="round" stroke-linejoin="round"/>
<path d="M525.301 136.62L528.801 138.07" stroke="white" stroke-width="1.5" stroke-linecap="round" stroke-linejoin="round"/>
<path d="M516.77 109.03L515.32 112.53" stroke="white" stroke-width="1.5" stroke-linecap="round" stroke-linejoin="round"/>
<path d="M501.2 146.6L499.75 150.1" stroke="white" stroke-width="1.5" stroke-linecap="round" stroke-linejoin="round"/>
<path d="M55.9604 182.02C55.7306 180.637 55.0786 179.36 54.0939 178.363C53.1092 177.365 51.8399 176.697 50.4604 176.45C49.0042 176.196 47.5048 176.426 46.1917 177.105C44.8787 177.784 43.8244 178.874 43.1905 180.21C42.5578 178.873 41.5038 177.782 40.1903 177.102C38.8769 176.423 37.3768 176.194 35.9204 176.45C34.5428 176.699 33.2758 177.368 32.293 178.365C31.3102 179.362 30.6597 180.639 30.4305 182.02C30.257 183.079 30.3389 184.164 30.6693 185.185C30.9998 186.206 31.5693 187.133 32.3305 187.89L41.9604 197.53C42.2884 197.857 42.7325 198.04 43.1955 198.04C43.6584 198.04 44.1025 197.857 44.4305 197.53L54.0605 187.89C54.8216 187.133 55.3911 186.206 55.7215 185.185C56.052 184.164 56.1339 183.079 55.9604 182.02Z" fill="#FF5061"/>
<path d="M43.1992 163.42V167.21" stroke="white" stroke-width="1.5" stroke-linecap="round" stroke-linejoin="round"/>
<path d="M43.1992 204.09V207.88" stroke="white" stroke-width="1.5" stroke-linecap="round" stroke-linejoin="round"/>
<path d="M65.4306 185.65H61.6406" stroke="white" stroke-width="1.5" stroke-linecap="round" stroke-linejoin="round"/>
<path d="M24.7607 185.65H20.9707" stroke="white" stroke-width="1.5" stroke-linecap="round" stroke-linejoin="round"/>
<path d="M27.4805 169.93L30.1605 172.61" stroke="white" stroke-width="1.5" stroke-linecap="round" stroke-linejoin="round"/>
<path d="M56.2402 198.69L58.9202 201.37" stroke="white" stroke-width="1.5" stroke-linecap="round" stroke-linejoin="round"/>
<path d="M58.9202 169.93L56.2402 172.61" stroke="white" stroke-width="1.5" stroke-linecap="round" stroke-linejoin="round"/>
<path d="M30.1605 198.69L27.4805 201.37" stroke="white" stroke-width="1.5" stroke-linecap="round" stroke-linejoin="round"/>
<path d="M34.6895 165.11L36.1395 168.61" stroke="white" stroke-width="1.5" stroke-linecap="round" stroke-linejoin="round"/>
<path d="M50.25 202.69L51.7 206.19" stroke="white" stroke-width="1.5" stroke-linecap="round" stroke-linejoin="round"/>
<path d="M63.7405 177.14L60.2305 178.59" stroke="white" stroke-width="1.5" stroke-linecap="round" stroke-linejoin="round"/>
<path d="M26.1602 192.7L22.6602 194.16" stroke="white" stroke-width="1.5" stroke-linecap="round" stroke-linejoin="round"/>
<path d="M22.6602 177.14L26.1602 178.59" stroke="white" stroke-width="1.5" stroke-linecap="round" stroke-linejoin="round"/>
<path d="M60.2305 192.7L63.7405 194.16" stroke="white" stroke-width="1.5" stroke-linecap="round" stroke-linejoin="round"/>
<path d="M51.7 165.11L50.25 168.61" stroke="white" stroke-width="1.5" stroke-linecap="round" stroke-linejoin="round"/>
<path d="M36.1395 202.69L34.6895 206.19" stroke="white" stroke-width="1.5" stroke-linecap="round" stroke-linejoin="round"/>
<path d="M293.311 24.9799C293.011 23.1803 292.162 21.5175 290.88 20.2195C289.598 18.9215 287.946 18.0518 286.151 17.7299C284.253 17.396 282.299 17.6947 280.588 18.58C278.877 19.4654 277.504 20.8883 276.681 22.6299C275.859 20.8872 274.486 19.4633 272.775 18.5778C271.063 17.6922 269.108 17.3943 267.211 17.7299C265.417 18.0551 263.768 18.926 262.488 20.2236C261.209 21.5212 260.361 23.1823 260.061 24.9799C259.835 26.3611 259.941 27.7761 260.371 29.1081C260.8 30.44 261.541 31.6506 262.531 32.6399L275.051 45.1799C275.48 45.6068 276.06 45.8464 276.666 45.8464C277.271 45.8464 277.851 45.6068 278.281 45.1799L290.821 32.6399C291.814 31.6525 292.558 30.4428 292.991 29.1107C293.424 27.7787 293.534 26.3627 293.311 24.9799Z" fill="#FF5061"/>
<path d="M276.689 0.75V5.69" stroke="white" stroke-width="1.5" stroke-linecap="round" stroke-linejoin="round"/>
<path d="M276.689 53.73V58.67" stroke="white" stroke-width="1.5" stroke-linecap="round" stroke-linejoin="round"/>
<path d="M305.651 29.71H300.711" stroke="white" stroke-width="1.5" stroke-linecap="round" stroke-linejoin="round"/>
<path d="M252.66 29.71H247.73" stroke="white" stroke-width="1.5" stroke-linecap="round" stroke-linejoin="round"/>
<path d="M256.211 9.22998L259.701 12.72" stroke="white" stroke-width="1.5" stroke-linecap="round" stroke-linejoin="round"/>
<path d="M293.67 46.6899L297.16 50.1899" stroke="white" stroke-width="1.5" stroke-linecap="round" stroke-linejoin="round"/>
<path d="M297.16 9.22998L293.67 12.72" stroke="white" stroke-width="1.5" stroke-linecap="round" stroke-linejoin="round"/>
<path d="M259.701 46.6899L256.211 50.1899" stroke="white" stroke-width="1.5" stroke-linecap="round" stroke-linejoin="round"/>
<path d="M265.6 2.94995L267.49 7.51995" stroke="white" stroke-width="1.5" stroke-linecap="round" stroke-linejoin="round"/>
<path d="M285.881 51.8999L287.771 56.4599" stroke="white" stroke-width="1.5" stroke-linecap="round" stroke-linejoin="round"/>
<path d="M303.441 18.6299L298.881 20.5199" stroke="white" stroke-width="1.5" stroke-linecap="round" stroke-linejoin="round"/>
<path d="M254.49 38.8999L249.93 40.7899" stroke="white" stroke-width="1.5" stroke-linecap="round" stroke-linejoin="round"/>
<path d="M249.93 18.6299L254.49 20.5199" stroke="white" stroke-width="1.5" stroke-linecap="round" stroke-linejoin="round"/>
<path d="M298.881 38.8999L303.441 40.7899" stroke="white" stroke-width="1.5" stroke-linecap="round" stroke-linejoin="round"/>
<path d="M287.771 2.94995L285.881 7.51995" stroke="white" stroke-width="1.5" stroke-linecap="round" stroke-linejoin="round"/>
<path d="M267.49 51.8999L265.6 56.4599" stroke="white" stroke-width="1.5" stroke-linecap="round" stroke-linejoin="round"/>
<path d="M232.006 91.7714C236.979 89.5935 239.245 83.7967 237.067 78.8237C234.89 73.8507 229.093 71.5847 224.12 73.7625C219.147 75.9404 216.881 81.7372 219.059 86.7102C221.236 91.6832 227.033 93.9492 232.006 91.7714Z" fill="#FFC9C2"/>
<path d="M238.831 86.47C238.931 86.1533 238.932 85.8131 238.831 85.4962C238.731 85.1793 238.535 84.9012 238.271 84.7C237.987 84.4711 237.635 84.3462 237.271 84.3462C236.906 84.3462 236.554 84.4711 236.271 84.7C236.282 84.3479 236.178 84.0016 235.974 83.7144C235.77 83.4272 235.477 83.2149 235.141 83.11C234.822 83.0143 234.481 83.0186 234.165 83.1223C233.848 83.226 233.571 83.4241 233.371 83.69C233.218 83.8949 233.116 84.1335 233.074 84.3858C233.032 84.6381 233.052 84.8967 233.131 85.14L234.131 88.23C234.148 88.2826 234.175 88.3313 234.211 88.3733C234.246 88.4154 234.29 88.4499 234.339 88.475C234.389 88.5001 234.442 88.5152 234.498 88.5195C234.553 88.5238 234.608 88.5172 234.661 88.5L237.751 87.5C238 87.4267 238.227 87.295 238.415 87.1159C238.603 86.9367 238.746 86.7153 238.831 86.47Z" fill="#FF5061"/>
<path d="M225.531 82.73C225.531 83.56 225.131 84.23 224.621 84.23C224.111 84.23 223.711 83.56 223.711 82.73C223.711 81.9 224.121 81.23 224.621 81.23C225.121 81.23 225.531 81.91 225.531 82.73Z" fill="white"/>
<path d="M222.241 80.33C222.191 80.3395 222.141 80.3395 222.091 80.33C222.01 80.2891 221.948 80.2182 221.918 80.1324C221.888 80.0465 221.893 79.9524 221.931 79.87C222.276 79.2173 222.795 78.6729 223.43 78.2969C224.066 77.921 224.793 77.7282 225.531 77.74C225.622 77.74 225.71 77.7755 225.775 77.839C225.84 77.9025 225.878 77.9889 225.881 78.08C225.881 78.1728 225.844 78.2619 225.778 78.3275C225.713 78.3931 225.624 78.43 225.531 78.43C224.921 78.4166 224.318 78.5708 223.789 78.8758C223.26 79.1808 222.825 79.625 222.531 80.16C222.502 80.211 222.459 80.2536 222.408 80.2834C222.358 80.3132 222.3 80.3292 222.241 80.33Z" fill="white"/>
<path d="M234.29 80.8901C234.241 80.8902 234.192 80.8795 234.147 80.8588C234.102 80.8381 234.062 80.8078 234.03 80.7701C233.606 80.3337 233.071 80.022 232.482 79.8686C231.893 79.7152 231.273 79.7261 230.69 79.9001C230.647 79.9122 230.602 79.9156 230.557 79.91C230.512 79.9045 230.469 79.8901 230.43 79.8678C230.391 79.8455 230.357 79.8156 230.329 79.78C230.302 79.7443 230.282 79.7036 230.27 79.6601C230.258 79.6167 230.255 79.5714 230.26 79.5268C230.266 79.4821 230.28 79.439 230.303 79.4C230.325 79.3609 230.355 79.3266 230.39 79.2992C230.426 79.2718 230.467 79.2517 230.51 79.2401C231.213 79.039 231.957 79.0343 232.663 79.2264C233.368 79.4186 234.007 79.8003 234.51 80.3301C234.574 80.3938 234.609 80.4801 234.609 80.5701C234.609 80.6601 234.574 80.7463 234.51 80.8101C234.448 80.8612 234.371 80.8895 234.29 80.8901Z" fill="white"/>
<path d="M230.73 83.07C230.656 83.0716 230.582 83.0507 230.52 83.01C230.449 82.9545 230.401 82.8735 230.388 82.7841C230.375 82.6946 230.397 82.6035 230.45 82.53C230.807 82.0412 231.341 81.7125 231.938 81.6152C232.535 81.5178 233.147 81.6597 233.64 82.01C233.716 82.0591 233.769 82.1361 233.787 82.2243C233.806 82.3124 233.789 82.4044 233.74 82.48C233.717 82.5185 233.686 82.5517 233.649 82.5778C233.612 82.6038 233.571 82.6221 233.527 82.6315C233.483 82.6408 233.437 82.6411 233.393 82.6323C233.349 82.6234 233.307 82.6056 233.27 82.58C232.92 82.332 232.488 82.2298 232.064 82.2952C231.64 82.3605 231.259 82.5882 231 82.93C230.968 82.9721 230.928 83.0066 230.881 83.0308C230.834 83.0551 230.783 83.0685 230.73 83.07Z" fill="white"/>
<path d="M228.41 89.4701C228.358 89.4705 228.306 89.459 228.26 89.4364C228.213 89.4139 228.172 89.3809 228.14 89.3401C228.112 89.3047 228.091 89.2642 228.079 89.2208C228.067 89.1775 228.064 89.1322 228.07 89.0875C228.075 89.0429 228.09 88.9998 228.112 88.9607C228.134 88.9217 228.164 88.8875 228.2 88.8601L229.2 88.0701L228.57 87.8001C228.516 87.7777 228.468 87.7422 228.432 87.6968C228.395 87.6514 228.37 87.5975 228.36 87.5401C228.351 87.4842 228.355 87.427 228.373 87.3731C228.39 87.3193 228.42 87.2703 228.46 87.2301L229.1 86.6101L227.91 86.1501C227.868 86.1345 227.829 86.1108 227.796 86.0802C227.763 86.0496 227.737 86.0127 227.718 85.9718C227.699 85.9309 227.689 85.8867 227.688 85.8417C227.686 85.7968 227.694 85.7521 227.71 85.7101C227.725 85.6679 227.749 85.6292 227.78 85.5963C227.81 85.5634 227.847 85.5369 227.888 85.5183C227.929 85.4997 227.973 85.4894 228.018 85.488C228.063 85.4866 228.108 85.4941 228.15 85.5101L229.84 86.1601C229.893 86.1817 229.941 86.2155 229.979 86.2589C230.018 86.3023 230.045 86.3541 230.06 86.4101C230.069 86.4675 230.066 86.5264 230.048 86.582C230.031 86.6377 230 86.6884 229.96 86.7301L229.31 87.3701L230 87.6601C230.054 87.683 230.102 87.7202 230.137 87.7677C230.172 87.8152 230.194 87.8713 230.2 87.9301C230.209 87.9892 230.203 88.0497 230.182 88.1057C230.16 88.1617 230.126 88.2114 230.08 88.2501L228.63 89.4001C228.566 89.4469 228.489 89.4715 228.41 89.4701Z" fill="white"/>
<path d="M254.912 91.8329C259.933 89.7676 262.328 84.0232 260.263 79.0024C258.198 73.9816 252.453 71.5858 247.433 73.6511C242.412 75.7164 240.016 81.4608 242.081 86.4815C244.147 91.5023 249.891 93.8982 254.912 91.8329Z" fill="#FFC9C2"/>
<path d="M261.949 86.47C262.05 86.1533 262.05 85.8131 261.95 85.4962C261.85 85.1793 261.654 84.9012 261.389 84.7C261.11 84.4835 260.767 84.366 260.414 84.366C260.061 84.366 259.718 84.4835 259.439 84.7C259.452 84.3475 259.349 84.0005 259.144 83.7129C258.94 83.4253 258.646 83.2134 258.309 83.11C257.99 83.0143 257.65 83.0186 257.333 83.1223C257.017 83.226 256.74 83.4241 256.539 83.69C256.388 83.896 256.288 84.1346 256.246 84.3864C256.205 84.6383 256.223 84.8964 256.299 85.14L257.299 88.23C257.315 88.2822 257.341 88.3307 257.376 88.3727C257.411 88.4146 257.454 88.4492 257.502 88.4743C257.551 88.4995 257.604 88.5147 257.658 88.5191C257.713 88.5235 257.767 88.517 257.819 88.5L260.909 87.5C261.152 87.4242 261.374 87.291 261.555 87.1118C261.736 86.9325 261.871 86.7124 261.949 86.47Z" fill="#FF5061"/>
<path d="M248.66 82.73C248.66 83.56 248.25 84.23 247.75 84.23C247.25 84.23 246.84 83.56 246.84 82.73C246.84 81.9 247.25 81.23 247.75 81.23C248.25 81.23 248.66 81.91 248.66 82.73Z" fill="white"/>
<path d="M245.36 80.3299C245.314 80.3403 245.266 80.3403 245.22 80.3299C245.137 80.2908 245.073 80.2207 245.041 80.1347C245.009 80.0487 245.013 79.9536 245.05 79.8699C245.396 79.2157 245.917 78.6703 246.554 78.2942C247.191 77.9182 247.92 77.7263 248.66 77.7399C248.75 77.7399 248.837 77.7758 248.901 77.8395C248.964 77.9033 249 77.9898 249 78.0799C249 78.1711 248.965 78.2586 248.901 78.324C248.838 78.3893 248.751 78.4273 248.66 78.4299C248.05 78.4166 247.447 78.5707 246.919 78.8758C246.39 79.1808 245.954 79.6249 245.66 80.1599C245.63 80.2124 245.586 80.2559 245.533 80.2858C245.481 80.3157 245.421 80.3309 245.36 80.3299Z" fill="white"/>
<path d="M257.409 80.8901C257.36 80.8896 257.311 80.8786 257.267 80.8579C257.222 80.8372 257.182 80.8073 257.149 80.7701C256.725 80.3337 256.19 80.022 255.601 79.8686C255.012 79.7152 254.393 79.7261 253.809 79.9001C253.766 79.9122 253.721 79.9156 253.676 79.91C253.632 79.9045 253.588 79.8901 253.549 79.8678C253.51 79.8455 253.476 79.8156 253.449 79.78C253.421 79.7443 253.401 79.7036 253.389 79.6601C253.377 79.6167 253.374 79.5714 253.38 79.5268C253.385 79.4821 253.399 79.439 253.422 79.4C253.444 79.3609 253.474 79.3266 253.51 79.2992C253.545 79.2718 253.586 79.2517 253.629 79.2401C254.332 79.039 255.077 79.0343 255.782 79.2264C256.487 79.4186 257.126 79.8003 257.629 80.3301C257.693 80.3938 257.729 80.4801 257.729 80.5701C257.729 80.6601 257.693 80.7463 257.629 80.8101C257.566 80.8581 257.489 80.886 257.409 80.8901Z" fill="white"/>
<path d="M253.85 83.07C253.778 83.0702 253.709 83.0494 253.65 83.01C253.612 82.9841 253.581 82.9511 253.557 82.9127C253.532 82.8744 253.516 82.8316 253.509 82.7869C253.501 82.7422 253.503 82.6964 253.513 82.6523C253.524 82.6082 253.543 82.5666 253.57 82.53C253.928 82.0406 254.464 81.7117 255.063 81.6144C255.662 81.5171 256.275 81.6592 256.77 82.01C256.843 82.0608 256.894 82.1378 256.913 82.2252C256.932 82.3126 256.916 82.4037 256.87 82.4801C256.845 82.5188 256.813 82.5523 256.776 82.5785C256.738 82.6046 256.696 82.6229 256.651 82.6323C256.606 82.6416 256.56 82.6418 256.515 82.6328C256.47 82.6238 256.427 82.6059 256.39 82.58C256.042 82.3326 255.611 82.2308 255.189 82.2961C254.767 82.3615 254.387 82.5889 254.13 82.93C254.097 82.9735 254.055 83.0088 254.006 83.0331C253.958 83.0574 253.904 83.07 253.85 83.07Z" fill="white"/>
<path d="M251.539 89.47C251.487 89.4729 251.435 89.4625 251.388 89.4398C251.34 89.417 251.3 89.3827 251.269 89.34C251.206 89.2763 251.17 89.19 251.17 89.1C251.17 89.01 251.206 88.9237 251.269 88.86L252.269 88.07L251.639 87.8C251.587 87.777 251.541 87.7412 251.506 87.6957C251.471 87.6502 251.448 87.5967 251.439 87.54C251.428 87.4841 251.431 87.4261 251.448 87.3718C251.466 87.3174 251.497 87.2686 251.539 87.23L252.169 86.61L250.979 86.15C250.896 86.1164 250.828 86.052 250.791 85.97C250.754 85.8881 250.75 85.795 250.779 85.71C250.813 85.6241 250.879 85.5549 250.963 85.5175C251.047 85.48 251.143 85.4773 251.229 85.51L252.919 86.16C252.973 86.1799 253.021 86.2134 253.057 86.2572C253.094 86.301 253.119 86.3537 253.129 86.41C253.142 86.4674 253.139 86.5271 253.121 86.5832C253.104 86.6393 253.072 86.6898 253.029 86.73L252.379 87.37L253.069 87.66C253.124 87.684 253.172 87.7213 253.208 87.7684C253.245 87.8156 253.269 87.8711 253.279 87.93C253.286 87.9899 253.278 88.0507 253.255 88.1066C253.232 88.1625 253.196 88.2118 253.149 88.25L251.699 89.4C251.653 89.4373 251.598 89.4614 251.539 89.47Z" fill="white"/>
<path d="M283.847 84.9958C285.099 79.7133 281.833 74.4156 276.55 73.1629C271.268 71.9103 265.97 75.1772 264.717 80.4596C263.465 85.7421 266.732 91.0399 272.014 92.2925C277.296 93.5451 282.594 90.2782 283.847 84.9958Z" fill="#FFC9C2"/>
<path d="M285.049 86.4699C285.154 86.1544 285.157 85.814 285.059 85.4965C284.96 85.179 284.764 84.9004 284.499 84.6999C284.216 84.471 283.863 84.3461 283.499 84.3461C283.135 84.3461 282.782 84.471 282.499 84.6999C282.511 84.3478 282.406 84.0015 282.202 83.7143C281.998 83.4271 281.705 83.2148 281.369 83.1099C281.05 83.0128 280.709 83.0163 280.392 83.1201C280.076 83.2239 279.799 83.4229 279.599 83.6899C279.446 83.8948 279.344 84.1334 279.303 84.3857C279.261 84.638 279.28 84.8966 279.359 85.1399L280.359 88.2299C280.375 88.2821 280.401 88.3306 280.436 88.3726C280.471 88.4145 280.514 88.4491 280.562 88.4742C280.611 88.4994 280.664 88.5146 280.718 88.519C280.772 88.5234 280.827 88.5169 280.879 88.4999L283.969 87.4999C284.22 87.4297 284.449 87.2991 284.637 87.1195C284.826 86.9399 284.967 86.7169 285.049 86.4699Z" fill="#FF5061"/>
<path d="M271.781 82.73C271.781 83.56 271.371 84.23 270.871 84.23C270.371 84.23 269.961 83.56 269.961 82.73C269.961 81.9 270.371 81.23 270.871 81.23C271.371 81.23 271.781 81.91 271.781 82.73Z" fill="white"/>
<path d="M268.49 80.33C268.441 80.3395 268.39 80.3395 268.34 80.33C268.299 80.3108 268.262 80.2835 268.232 80.2498C268.202 80.2161 268.178 80.1766 268.163 80.1338C268.148 80.0909 268.142 80.0455 268.145 80.0002C268.148 79.9549 268.16 79.9106 268.18 79.87C268.525 79.2173 269.044 78.6729 269.68 78.2969C270.315 77.921 271.042 77.7282 271.78 77.74C271.871 77.74 271.957 77.7758 272.021 77.8396C272.085 77.9034 272.12 77.9898 272.12 78.08C272.12 78.1711 272.085 78.2587 272.021 78.324C271.958 78.3894 271.872 78.4274 271.78 78.43C271.17 78.4166 270.568 78.5708 270.039 78.8758C269.51 79.1808 269.075 79.625 268.78 80.16C268.751 80.211 268.709 80.2536 268.658 80.2834C268.607 80.3132 268.549 80.3292 268.49 80.33Z" fill="white"/>
<path d="M280.541 80.8901C280.491 80.8916 280.442 80.8816 280.396 80.8608C280.351 80.8399 280.312 80.8088 280.281 80.77C279.856 80.3346 279.32 80.0235 278.732 79.8702C278.143 79.7169 277.524 79.7272 276.941 79.9C276.852 79.9247 276.757 79.9134 276.676 79.8684C276.596 79.8235 276.536 79.7486 276.511 79.66C276.498 79.6167 276.495 79.5714 276.501 79.5267C276.506 79.4821 276.521 79.439 276.543 79.3999C276.565 79.3608 276.595 79.3266 276.631 79.2992C276.666 79.2717 276.707 79.2516 276.751 79.24C277.46 79.029 278.215 79.0192 278.93 79.2117C279.645 79.4041 280.293 79.7913 280.801 80.33C280.862 80.395 280.896 80.4808 280.896 80.57C280.896 80.6593 280.862 80.7451 280.801 80.81C280.765 80.84 280.723 80.8626 280.679 80.8763C280.634 80.8901 280.587 80.8947 280.541 80.8901Z" fill="white"/>
<path d="M276.97 83.07C276.899 83.0702 276.829 83.0493 276.77 83.01C276.734 82.9833 276.703 82.9496 276.68 82.911C276.656 82.8723 276.641 82.8293 276.634 82.7846C276.628 82.74 276.63 82.6944 276.642 82.6507C276.653 82.607 276.673 82.5659 276.7 82.53C277.057 82.0412 277.591 81.7125 278.188 81.6152C278.785 81.5178 279.397 81.6597 279.89 82.01C279.966 82.0591 280.019 82.1361 280.037 82.2243C280.056 82.3124 280.039 82.4044 279.99 82.48C279.967 82.5185 279.936 82.5517 279.899 82.5778C279.862 82.6038 279.821 82.6221 279.777 82.6315C279.733 82.6408 279.687 82.6411 279.643 82.6323C279.599 82.6234 279.557 82.6056 279.52 82.58C279.17 82.332 278.738 82.2298 278.314 82.2952C277.89 82.3605 277.509 82.5882 277.25 82.93C277.217 82.9734 277.175 83.0087 277.127 83.033C277.078 83.0573 277.024 83.07 276.97 83.07Z" fill="white"/>
<path d="M274.66 89.4701C274.608 89.4705 274.556 89.459 274.509 89.4364C274.463 89.4139 274.422 89.3809 274.39 89.3401C274.362 89.3047 274.341 89.2642 274.329 89.2208C274.317 89.1775 274.314 89.1322 274.319 89.0875C274.325 89.0429 274.339 88.9998 274.362 88.9607C274.384 88.9217 274.414 88.8875 274.45 88.8601L275.45 88.0701L274.82 87.8001C274.768 87.7757 274.723 87.7394 274.688 87.6942C274.653 87.649 274.63 87.5962 274.62 87.5401C274.611 87.4842 274.615 87.427 274.632 87.3731C274.65 87.3193 274.68 87.2703 274.72 87.2301L275.35 86.6101L274.17 86.1501C274.127 86.1345 274.089 86.1108 274.056 86.0802C274.023 86.0496 273.996 86.0127 273.978 85.9718C273.959 85.9309 273.949 85.8867 273.947 85.8417C273.946 85.7968 273.954 85.7521 273.97 85.7101C273.985 85.6679 274.009 85.6292 274.039 85.5963C274.07 85.5634 274.107 85.5369 274.148 85.5183C274.189 85.4997 274.233 85.4894 274.278 85.488C274.323 85.4866 274.368 85.4941 274.41 85.5101L276.1 86.1601C276.153 86.18 276.201 86.2134 276.238 86.2573C276.274 86.3011 276.299 86.3538 276.31 86.4101C276.323 86.4667 276.322 86.5258 276.306 86.5818C276.291 86.6379 276.261 86.6889 276.22 86.7301L275.57 87.3701L276.26 87.6601C276.314 87.683 276.361 87.7202 276.396 87.7677C276.432 87.8152 276.453 87.8713 276.46 87.9301C276.468 87.9902 276.461 88.0515 276.438 88.1078C276.415 88.1641 276.378 88.2132 276.33 88.2501L274.88 89.4001C274.818 89.4509 274.739 89.4759 274.66 89.4701Z" fill="white"/>
<path d="M307.521 129.31H374.341L368.461 124.31V114.39C368.461 110.412 366.881 106.597 364.068 103.784C361.254 100.97 357.439 99.3901 353.461 99.3901H307.461C303.483 99.3901 299.667 100.97 296.854 103.784C294.041 106.597 292.461 110.412 292.461 114.39C292.482 118.365 294.08 122.169 296.904 124.966C299.728 127.764 303.546 129.326 307.521 129.31Z" fill="white"/>
<path d="M343.719 110.91C343.871 109.991 344.303 109.141 344.957 108.477C345.61 107.813 346.453 107.367 347.369 107.2C348.338 107.028 349.337 107.181 350.21 107.635C351.084 108.089 351.783 108.818 352.199 109.71C352.617 108.819 353.316 108.091 354.189 107.637C355.062 107.184 356.06 107.03 357.029 107.2C357.947 107.366 358.791 107.812 359.446 108.476C360.101 109.14 360.535 109.99 360.689 110.91C360.802 111.613 360.747 112.333 360.528 113.011C360.309 113.689 359.932 114.306 359.429 114.81L353.029 121.21C352.921 121.319 352.793 121.406 352.651 121.465C352.51 121.524 352.358 121.554 352.204 121.554C352.051 121.554 351.899 121.524 351.757 121.465C351.616 121.406 351.487 121.319 351.379 121.21L344.979 114.81C344.474 114.307 344.096 113.691 343.877 113.012C343.658 112.334 343.604 111.613 343.719 110.91Z" fill="#FF5061"/>
<path d="M321.889 110.91C322.042 109.991 322.475 109.142 323.128 108.478C323.781 107.815 324.623 107.368 325.539 107.2C326.51 107.029 327.509 107.183 328.384 107.636C329.258 108.09 329.96 108.818 330.379 109.71C330.796 108.818 331.495 108.089 332.368 107.635C333.241 107.181 334.24 107.028 335.209 107.2C336.125 107.368 336.967 107.815 337.62 108.478C338.273 109.142 338.706 109.991 338.859 110.91C338.975 111.613 338.92 112.334 338.701 113.012C338.482 113.691 338.104 114.307 337.599 114.81L331.199 121.21C331.091 121.319 330.963 121.406 330.821 121.465C330.68 121.524 330.528 121.554 330.374 121.554C330.221 121.554 330.069 121.524 329.927 121.465C329.786 121.406 329.657 121.319 329.549 121.21L323.149 114.81C322.644 114.307 322.266 113.691 322.047 113.012C321.828 112.334 321.774 111.613 321.889 110.91Z" fill="#FF5061"/>
<path d="M300.049 110.91C300.201 109.991 300.633 109.141 301.287 108.477C301.94 107.813 302.783 107.367 303.699 107.2C304.668 107.03 305.666 107.184 306.539 107.637C307.412 108.091 308.112 108.819 308.529 109.71C308.947 108.819 309.646 108.091 310.519 107.637C311.392 107.184 312.39 107.03 313.359 107.2C314.276 107.367 315.118 107.813 315.772 108.477C316.425 109.141 316.857 109.991 317.009 110.91C317.125 111.613 317.071 112.334 316.851 113.012C316.632 113.691 316.254 114.307 315.749 114.81L309.349 121.21C309.242 121.319 309.115 121.405 308.974 121.464C308.833 121.523 308.682 121.554 308.529 121.554C308.377 121.554 308.226 121.523 308.085 121.464C307.944 121.405 307.816 121.319 307.709 121.21L301.309 114.81C300.804 114.307 300.426 113.691 300.207 113.012C299.988 112.334 299.934 111.613 300.049 110.91Z" fill="#FF5061"/>
<path d="M0 386.72H612.19" stroke="white" stroke-width="1.5" stroke-linejoin="round"/>
<path d="M317.119 171.29H328.999" stroke="white" stroke-width="1.5" stroke-linecap="round" stroke-linejoin="round"/>
<path d="M329.89 222.21H396.71L390.83 217.16V207.24C390.83 203.262 389.25 199.446 386.437 196.633C383.624 193.82 379.808 192.24 375.83 192.24H329.83C325.852 192.24 322.037 193.82 319.223 196.633C316.41 199.446 314.83 203.262 314.83 207.24C314.834 209.212 315.227 211.165 315.986 212.985C316.746 214.805 317.856 216.458 319.255 217.848C320.654 219.239 322.313 220.34 324.138 221.088C325.963 221.837 327.918 222.218 329.89 222.21Z" fill="#FFDAD7" stroke="white" stroke-width="1.5" stroke-linejoin="round"/>
<path d="M327.109 210.61H373.189" stroke="white" stroke-width="1.5" stroke-linecap="round" stroke-linejoin="round"/>
</g>
<defs>
<linearGradient id="paint0_linear_535_8295" x1="348.976" y1="150.5" x2="363.473" y2="150.502" gradientUnits="userSpaceOnUse">
<stop stop-color="white" stop-opacity="0.6"/>
<stop offset="0.89" stop-color="white" stop-opacity="0.1"/>
</linearGradient>
<linearGradient id="paint1_linear_535_8295" x1="348.067" y1="148.853" x2="362.217" y2="148.848" gradientUnits="userSpaceOnUse">
<stop stop-color="white" stop-opacity="0.6"/>
<stop offset="0.89" stop-color="white" stop-opacity="0.1"/>
</linearGradient>
<linearGradient id="paint2_linear_535_8295" x1="257.612" y1="138.807" x2="236.6" y2="148.873" gradientUnits="userSpaceOnUse">
<stop stop-color="white" stop-opacity="0.6"/>
<stop offset="0.89" stop-color="white" stop-opacity="0.1"/>
</linearGradient>
<linearGradient id="paint3_linear_535_8295" x1="257.891" y1="136.839" x2="236.895" y2="146.904" gradientUnits="userSpaceOnUse">
<stop stop-color="white" stop-opacity="0.6"/>
<stop offset="0.89" stop-color="white" stop-opacity="0.1"/>
</linearGradient>
<clipPath id="clip0_535_8295">
<rect width="612.19" height="387.47" fill="white"/>
</clipPath>
</defs>
</svg>
