<svg width="23" height="23" viewBox="0 0 23 23" fill="none" xmlns="http://www.w3.org/2000/svg">
<path d="M19.5758 4.12121H16.4848V3.09091C16.4848 2.27115 16.1592 1.48496 15.5795 0.905306C14.9999 0.325648 14.2137 0 13.3939 0H9.27273C8.45297 0 7.66678 0.325648 7.08713 0.905306C6.50747 1.48496 6.18182 2.27115 6.18182 3.09091V4.12121H3.09091C2.27115 4.12121 1.48496 4.44686 0.905306 5.02652C0.325648 5.60618 0 6.39236 0 7.21212V19.5758C0 20.3955 0.325648 21.1817 0.905306 21.7614C1.48496 22.341 2.27115 22.6667 3.09091 22.6667H19.5758C20.3955 22.6667 21.1817 22.341 21.7614 21.7614C22.341 21.1817 22.6667 20.3955 22.6667 19.5758V7.21212C22.6667 6.39236 22.341 5.60618 21.7614 5.02652C21.1817 4.44686 20.3955 4.12121 19.5758 4.12121ZM17.3091 5.56364V21.3273H5.56364V5.56364H17.3091ZM7.41818 3.09091C7.41818 2.81766 7.53405 2.04776 7.72727 1.85455C7.92049 1.66133 8.64657 1.4109 9.27273 1.23636C10.8231 0.804216 11.8537 0.769616 13.3939 1.23636C13.9805 1.4141 14.6431 1.66133 14.8364 1.85455C15.0296 2.04776 15.1455 2.81766 15.1455 3.09091V4.12121H7.41818V3.09091ZM1.54545 19.5758V7.21212C1.54545 6.93887 1.66133 6.37504 1.85455 6.18182C2.04776 5.9886 2.81766 5.56364 3.09091 5.56364H4.32727V21.3273H3.09091C2.81766 21.3273 2.04776 21.2114 1.85455 21.0182C1.66133 20.825 1.54545 19.849 1.54545 19.5758ZM21.3273 19.7818C21.3273 20.0551 20.9023 20.825 20.7091 21.0182C20.5159 21.2114 19.746 21.3273 19.4727 21.3273H18.5455V5.56364H19.4727C19.746 5.56364 20.5159 5.9886 20.7091 6.18182C20.9023 6.37504 21.3273 6.93887 21.3273 7.21212V19.7818Z" fill="#FF3F4A"/>
</svg>
