<svg width="23" height="23" viewBox="0 0 23 23" fill="none" xmlns="http://www.w3.org/2000/svg">
<g clip-path="url(#clip0_508_942)">
<path d="M11.5025 11.4425C12.8479 11.4425 13.9386 10.3518 13.9386 9.0064C13.9386 7.66098 12.8479 6.57031 11.5025 6.57031C10.1571 6.57031 9.06641 7.66098 9.06641 9.0064C9.06641 10.3518 10.1571 11.4425 11.5025 11.4425Z" fill="#FF3F4A"/>
<path d="M14.8297 12.3091H8.1755C7.74233 12.3091 7.39062 12.6603 7.39062 13.094V18.0471C8.58902 18.7917 9.99873 19.2292 11.5139 19.2292C13.0194 19.2292 14.4205 18.797 15.615 18.0605V13.094C15.615 12.6608 15.2633 12.3091 14.8297 12.3091Z" fill="#FF3F4A"/>
<path d="M11.5 0C5.14865 0 0 5.14865 0 11.5C0 17.8514 5.14865 23 11.5 23C17.8514 23 23 17.8514 23 11.5C23 5.14865 17.8514 0 11.5 0ZM11.5139 21.0086C6.23204 21.0086 1.95021 16.7267 1.95021 11.4449C1.95021 6.16304 6.23204 1.88121 11.5139 1.88121C16.7957 1.88121 21.0776 6.16304 21.0776 11.4449C21.0776 16.7267 16.7957 21.0086 11.5139 21.0086Z" fill="#FF3F4A"/>
</g>
<defs>
<clipPath id="clip0_508_942">
<rect width="23" height="23" fill="white"/>
</clipPath>
</defs>
</svg>
