<svg width="375" height="275" viewBox="0 0 375 275" fill="none" xmlns="http://www.w3.org/2000/svg">
<path d="M336.2 46.0138C317.907 36.5648 289.511 37.8156 276.585 53.1162C278.104 33.1409 253.415 10.3752 233.741 4.29144C181.822 -11.7683 139.992 42.0789 144.505 91.644C146.937 118.315 155.494 144.281 166.35 168.889C175.451 189.488 201.611 236.016 201.773 235.96C201.846 236.113 253.124 221.263 274.046 212.955C299.043 203.017 323.336 190.502 343.775 173.172C381.739 140.994 384.483 70.9544 336.2 46.0138Z" fill="#EEEEEE"/>
<g opacity="0.5">
<g opacity="0.1">
<path d="M199.446 61.0047C167.42 30.7446 117.408 31.7169 87.707 63.1804C61.5543 90.8953 59.9138 133.025 81.797 163.355L54.3391 192.287L53.0777 191.09C52.881 190.903 52.6494 190.757 52.3962 190.659C52.143 190.562 51.8731 190.516 51.6019 190.523C51.3308 190.53 51.0636 190.59 50.8157 190.7C50.5678 190.81 50.3441 190.968 50.1573 191.165C49.9704 191.362 49.8241 191.594 49.7268 191.847C49.6295 192.1 49.5829 192.37 49.5899 192.641C49.5969 192.913 49.6572 193.18 49.7674 193.428C49.8776 193.676 50.0355 193.9 50.2322 194.086L50.3083 194.155L4.47837 242.485C1.90969 245.186 0.518219 248.797 0.609763 252.523C0.701307 256.25 2.26837 259.788 4.96656 262.359L7.09799 264.384C8.43643 265.656 10.0123 266.652 11.7356 267.314C13.4589 267.976 15.2959 268.292 17.1414 268.244C18.987 268.196 20.805 267.785 22.4916 267.033C24.1782 266.282 25.7003 265.206 26.9709 263.866L72.8361 215.542C73.2333 215.919 73.7641 216.123 74.3118 216.109C74.8595 216.095 75.3791 215.864 75.7565 215.467C76.1338 215.069 76.3379 214.538 76.3238 213.99C76.3098 213.443 76.0787 212.923 75.6815 212.545L73.9955 210.961L101.086 182.414C132.889 204.761 176.676 201.353 203.66 172.754C233.36 141.298 231.471 91.2647 199.446 61.0047Z" fill="black"/>
</g>
<path d="M128.649 143.335L108.979 124.661L24.8755 213.296L44.5459 231.97L128.649 143.335Z" fill="#959FA4"/>
<path d="M53.5 180.79L76.0269 202.176L28.8002 251.948C26.2332 254.653 22.6971 256.227 18.9697 256.325C15.2423 256.422 11.6291 255.035 8.92471 252.467L6.79651 250.447C5.45637 249.176 4.37973 247.653 3.62812 245.966C2.87651 244.278 2.46463 242.46 2.41604 240.613C2.36745 238.766 2.68312 236.928 3.34496 235.203C4.00679 233.479 5.00185 231.901 6.27329 230.561L53.5 180.79Z" fill="#3B5C7C"/>
<path d="M204.824 161.49C234.891 130.395 233.595 80.351 201.927 49.7144C170.26 19.0779 120.213 19.4499 90.1457 50.5455C60.0779 81.6411 61.3747 131.685 93.0421 162.322C124.71 192.958 174.756 192.586 204.824 161.49Z" fill="#5F5C5C"/>
<path d="M196.806 153.741C222.673 126.99 221.561 83.9399 194.321 57.5866C167.08 31.2333 124.028 31.5561 98.1611 58.3076C72.2938 85.0592 73.4066 128.109 100.647 154.462C127.887 180.816 170.939 180.493 196.806 153.741Z" fill="#B9D4E0"/>
<g opacity="0.22">
<path d="M155.603 55.0832C178.116 59.4541 195.623 78.2467 197.695 101.116C198.673 112.214 195.901 123.321 189.823 132.657C183.744 141.994 174.71 149.022 164.166 152.615C158.1 154.655 160.982 164.291 167.048 162.244C179.153 158.189 189.644 150.367 196.988 139.922C204.332 129.477 208.143 116.956 207.864 104.19C207.337 78.2603 189.444 55.4484 164.989 47.2076C162.631 46.4192 160.223 45.7901 157.781 45.3244C151.447 44.0975 149.231 53.8219 155.603 55.0832Z" fill="white"/>
</g>
<path opacity="0.31" d="M151.714 165.205C150.826 166.182 149.667 166.872 148.385 167.188C147.103 167.504 145.756 167.432 144.515 166.98C143.275 166.527 142.197 165.716 141.419 164.649C140.641 163.582 140.198 162.308 140.146 160.988C140.095 159.669 140.437 158.363 141.13 157.239C141.822 156.114 142.833 155.221 144.035 154.674C145.236 154.126 146.573 153.948 147.876 154.163C149.179 154.378 150.388 154.975 151.35 155.88C151.987 156.468 152.502 157.175 152.865 157.962C153.228 158.749 153.433 159.6 153.466 160.466C153.5 161.333 153.363 162.197 153.062 163.01C152.762 163.823 152.303 164.569 151.714 165.205Z" fill="white"/>
<path d="M134.507 170.78C118.489 167.406 104.199 158.431 94.201 145.467C84.2028 132.504 79.1513 116.4 79.9532 100.046C80.7993 83.8397 87.6012 68.5171 99.0526 57.0205C110.504 45.524 125.798 38.6641 141.996 37.7582C158.404 36.8819 174.583 41.902 187.614 51.9123C200.645 61.9225 209.668 76.2631 213.054 92.3451C216.421 108.617 213.662 125.56 205.307 139.923C197.185 153.607 184.397 163.898 169.295 168.903C158.065 172.578 146.066 173.226 134.507 170.78C132.216 170.308 131.535 173.851 133.827 174.323C149.794 177.644 166.418 175.382 180.92 167.916C195.06 160.533 206.216 148.489 212.497 133.823C218.937 118.539 219.844 101.487 215.061 85.6076C210.309 69.8923 200.37 56.2538 186.867 46.9197C173.363 37.5857 157.095 33.1079 140.717 34.2178C124.607 35.3487 109.396 42.0728 97.714 53.2283C86.0318 64.3838 78.6116 79.2701 76.7352 95.3154C74.8769 111.498 78.5545 127.832 87.1685 141.654C92.3629 149.944 99.1674 157.108 107.179 162.72C115.191 168.332 124.247 172.28 133.811 174.328C136.115 174.816 136.808 171.282 134.507 170.78Z" fill="#769388"/>
<path d="M74.6307 203.616L52.0202 182.109C51.623 181.732 51.3919 181.212 51.3779 180.664C51.3638 180.116 51.5679 179.585 51.9452 179.188C52.3226 178.791 52.8422 178.56 53.3899 178.545C53.9376 178.531 54.4684 178.735 54.8656 179.113L77.4744 200.583C77.684 200.766 77.8544 200.99 77.9755 201.241C78.0966 201.491 78.1658 201.764 78.1789 202.042C78.1921 202.32 78.149 202.598 78.0521 202.858C77.9553 203.119 77.8067 203.358 77.6154 203.56C77.424 203.762 77.1938 203.924 76.9385 204.035C76.6833 204.145 76.4082 204.204 76.13 204.205C75.8517 204.207 75.5759 204.153 75.3192 204.046C75.0625 203.938 74.8301 203.78 74.636 203.581L74.6307 203.616Z" fill="#AD715A"/>
</g>
</svg>
