<svg width="37" height="37" viewBox="0 0 37 37" fill="none" xmlns="http://www.w3.org/2000/svg">
<path d="M31.6667 6.66667H26.6667V5C26.6667 3.67392 26.1399 2.40215 25.2022 1.46447C24.2645 0.526784 22.9928 0 21.6667 0H15C13.6739 0 12.4021 0.526784 11.4645 1.46447C10.5268 2.40215 10 3.67392 10 5V6.66667H5C3.67392 6.66667 2.40215 7.19345 1.46447 8.13113C0.526784 9.06882 0 10.3406 0 11.6667V31.6667C0 32.9928 0.526784 34.2645 1.46447 35.2022C2.40215 36.1399 3.67392 36.6667 5 36.6667H31.6667C32.9928 36.6667 34.2645 36.1399 35.2022 35.2022C36.1399 34.2645 36.6667 32.9928 36.6667 31.6667V11.6667C36.6667 10.3406 36.1399 9.06882 35.2022 8.13113C34.2645 7.19345 32.9928 6.66667 31.6667 6.66667ZM28 9V34.5H9V9H28ZM12 5C12 4.55797 12.1874 3.31256 12.5 3C12.8126 2.68744 13.9871 2.28234 15 2C17.5079 1.30094 19.1751 1.24497 21.6667 2C22.6154 2.28751 23.6874 2.68744 24 3C24.3126 3.31256 24.5 4.55797 24.5 5V6.66667H12V5ZM2.5 31.6667V11.6667C2.5 11.2246 2.68744 10.3126 3 10C3.31256 9.68744 4.55797 9 5 9H7V34.5H5C4.55797 34.5 3.31256 34.3126 3 34C2.68744 33.6874 2.5 32.1087 2.5 31.6667ZM34.5 32C34.5 32.442 33.8126 33.6874 33.5 34C33.1874 34.3126 31.942 34.5 31.5 34.5H30V9H31.5C31.942 9 33.1874 9.68744 33.5 10C33.8126 10.3126 34.5 11.2246 34.5 11.6667V32Z" fill="#FF3F4A"/>
</svg>
