<svg width="17" height="16" viewBox="0 0 17 16" fill="none" xmlns="http://www.w3.org/2000/svg">
<g clip-path="url(#clip0_461_1175)">
<path d="M12.9586 10.8644C13.7298 10.7078 14.4153 10.2702 14.882 9.63664C15.3487 9.00306 15.5634 8.21865 15.4843 7.4357C15.4052 6.65276 15.038 5.92712 14.454 5.39967C13.87 4.87222 13.1109 4.58059 12.3239 4.58138H11.5243C11.314 3.76733 10.9049 3.01824 10.3336 2.40136C9.76234 1.78448 9.04682 1.31912 8.25128 1.04707C7.45575 0.775016 6.6051 0.704784 5.77572 0.842678C4.94634 0.980571 4.16419 1.32227 3.49948 1.83711C2.83477 2.35194 2.30832 3.02379 1.9674 3.79233C1.62647 4.56087 1.48174 5.40205 1.54619 6.24034C1.61065 7.07863 1.88228 7.88779 2.33669 8.59518C2.7911 9.30257 3.41407 9.88604 4.14967 10.2932" stroke="white" stroke-width="1.26929" stroke-linecap="round" stroke-linejoin="round"/>
<path d="M9.15187 7.12109L6.61328 10.929H10.4212L7.88257 14.7369" stroke="white" stroke-width="1.26929" stroke-linecap="round" stroke-linejoin="round"/>
</g>
<defs>
<clipPath id="clip0_461_1175">
<rect width="15.2315" height="15.2315" fill="white" transform="translate(0.902344 0.139526)"/>
</clipPath>
</defs>
</svg>
