<svg width="42" height="39" viewBox="0 0 42 39" fill="none" xmlns="http://www.w3.org/2000/svg">
<path fill-rule="evenodd" clip-rule="evenodd" d="M20.6254 5.98552C20.7018 5.8982 20.7834 5.81527 20.8685 5.7376C21.3942 5.26108 22.0668 4.99123 22.6219 4.99123C23.1098 4.99123 23.5675 5.12286 23.9602 5.35279V4.65116C23.9602 3.87056 24.3367 3.19702 24.8645 2.72488C25.3893 2.25494 26.0598 1.99649 26.6149 1.99649C27.1103 1.99649 27.5741 2.13208 27.9707 2.36814C28.0673 1.52918 28.6039 0 30.6079 0C31.4727 0 32.1537 0.47126 32.6078 1.05266C32.9387 1.47609 33.1375 1.95437 33.2191 2.31725C33.5732 2.12286 34.0238 1.99649 34.6008 1.99649C35.7842 1.99649 37.2555 2.77973 37.2555 4.65116V12.7595C37.6008 12.588 38.0379 12.4778 38.5938 12.4778C39.7575 12.4778 40.3977 12.9223 40.768 13.4151C41.3126 14.1404 41.2485 15.0553 41.2485 15.1325V23.1057C41.2498 23.1637 41.2393 23.2571 41.2116 23.3366L37.8795 33.4563V38.3418C37.8795 38.7051 37.5846 39 37.2213 39H22.2476C21.8843 39 21.5894 38.7051 21.5894 38.3418V33.3809L20.6254 22.8508L19.6614 33.3809V38.3418C19.6614 38.7051 19.3669 39 19.0032 39H4.02952C3.6662 39 3.37134 38.7051 3.37134 38.3418V33.4563L0.0391769 23.3366C0.0115332 23.2571 0.00100914 23.1637 0.00232551 23.1057V15.1325C0.00232551 15.0553 -0.0617506 14.1404 0.482787 13.4151C0.853124 12.9223 1.49332 12.4778 2.65699 12.4778C3.21294 12.4778 3.64997 12.588 3.99529 12.7595V4.65116C3.99529 2.77973 5.46701 1.99649 6.64999 1.99649C7.227 1.99649 7.67763 2.12286 8.03173 2.31725C8.11334 1.95437 8.31212 1.47609 8.64296 1.05266C9.09711 0.47126 9.7781 0 10.643 0C12.6469 0 13.1835 1.52918 13.2801 2.36814C13.6767 2.13208 14.1405 1.99649 14.6359 1.99649C15.191 1.99649 15.8615 2.25494 16.3863 2.72488C16.9141 3.19702 17.2906 3.87056 17.2906 4.65116V5.35279C17.6833 5.12286 18.141 4.99123 18.6289 4.99123C19.184 4.99123 19.8566 5.26108 20.3823 5.7376C20.4679 5.81527 20.5491 5.8982 20.6254 5.98552ZM18.345 34.0088V37.6836H4.6877V34.0088H18.345ZM22.9058 34.0088V37.6836H36.5631V34.0088H22.9058ZM9.30466 14.9737H9.39504C9.75836 14.9737 10.0532 15.2685 10.0532 15.6319C10.0532 15.9952 9.75836 16.29 9.39504 16.29H7.8979C7.53458 16.29 7.23972 15.9952 7.23972 15.6319C7.23972 15.2685 7.53458 14.9737 7.8979 14.9737H7.98829V4.65116C7.98829 4.43352 7.94354 3.98113 7.63726 3.65731C7.43761 3.44625 7.12169 3.31286 6.64999 3.31286C6.05367 3.31286 5.31166 3.70777 5.31166 4.65116V21.3146L12.7404 22.4682C12.8786 22.4897 13.0063 22.5542 13.105 22.6534L15.1673 24.7157C15.424 24.9724 15.424 25.3896 15.1673 25.6463C14.9102 25.9035 14.4933 25.9035 14.2366 25.6463L12.3262 23.7358L9.53897 23.3032L10.4644 24.2286C10.7211 24.4857 10.7211 24.9026 10.4644 25.1593C10.2072 25.4164 9.79039 25.4164 9.53326 25.1593L7.33493 22.9609L5.31166 22.6468V23.1185C5.31166 23.4818 5.01679 23.7767 4.65348 23.7767C4.29016 23.7767 3.99529 23.4818 3.99529 23.1185V15.1325C3.99529 14.9153 3.97732 14.4599 3.67456 14.136C3.47623 13.9237 3.15239 13.7942 2.65699 13.7942C2.06989 13.7942 1.72239 13.957 1.53546 14.2058C1.24498 14.5928 1.31869 15.0913 1.31869 15.1325V23.0132L4.50562 32.6924H18.4025L19.3499 22.3449L12.5104 20.9803C12.1546 20.9092 11.9229 20.5621 11.994 20.2058C12.0651 19.8499 12.4122 19.6183 12.7684 19.6893L19.4705 21.0268L19.9672 15.6016V7.6459C19.9672 7.27293 19.7592 6.94998 19.4977 6.71259C19.2331 6.47258 18.908 6.30759 18.6289 6.30759C17.89 6.30759 17.2906 6.90654 17.2906 7.6459V14.9737H17.381C17.7443 14.9737 18.0392 15.2685 18.0392 15.6319C18.0392 15.9952 17.7443 16.29 17.381 16.29H15.8838C15.5205 16.29 15.2257 15.9952 15.2257 15.6319C15.2257 15.2685 15.5205 14.9737 15.8838 14.9737H15.9743V4.65116C15.9743 4.26459 15.7698 3.93945 15.5083 3.70557C15.2437 3.46863 14.9159 3.31286 14.6359 3.31286C13.897 3.31286 13.2976 3.9118 13.2976 4.65116V14.9737H13.388C13.7513 14.9737 14.0462 15.2685 14.0462 15.6319C14.0462 15.9952 13.7513 16.29 13.388 16.29H11.8909C11.5276 16.29 11.2327 15.9952 11.2327 15.6319C11.2327 15.2685 11.5276 14.9737 11.8909 14.9737H11.9813V2.65467C11.9813 2.29969 11.7842 1.31637 10.643 1.31637C10.2195 1.31637 9.90273 1.57832 9.68027 1.8631C9.45298 2.15402 9.30466 2.47652 9.30466 2.65467V14.9737ZM31.9462 14.9737H31.8558C31.4924 14.9737 31.1976 15.2685 31.1976 15.6319C31.1976 15.9952 31.4924 16.29 31.8558 16.29H33.3529C33.7162 16.29 34.0111 15.9952 34.0111 15.6319C34.0111 15.2685 33.7162 14.9737 33.3529 14.9737H33.2625V4.65116C33.2625 4.43352 33.3073 3.98113 33.6135 3.65731C33.8132 3.44625 34.1291 3.31286 34.6008 3.31286C35.1971 3.31286 35.9392 3.70777 35.9392 4.65116V21.3146L28.5104 22.4682C28.3722 22.4897 28.245 22.5542 28.1458 22.6534L26.0835 24.7157C25.8268 24.9724 25.8268 25.3896 26.0835 25.6463C26.3406 25.9035 26.7575 25.9035 27.0146 25.6463L28.9247 23.7358L31.7123 23.3032L30.7864 24.2286C30.5297 24.4857 30.5297 24.9026 30.7864 25.1593C31.0436 25.4164 31.4604 25.4164 31.7175 25.1593L33.9159 22.9609L35.9392 22.6468V23.1185C35.9392 23.4818 36.234 23.7767 36.5973 23.7767C36.9607 23.7767 37.2555 23.4818 37.2555 23.1185V15.1325C37.2555 14.9153 37.2735 14.4599 37.5763 14.136C37.7746 13.9237 38.0984 13.7942 38.5938 13.7942C39.1809 13.7942 39.5284 13.957 39.7153 14.2058C40.0058 14.5928 39.9321 15.0913 39.9321 15.1325V23.0132L36.7452 32.6924H22.8483L21.901 22.3449L28.7404 20.9803C29.0962 20.9092 29.3279 20.5621 29.2568 20.2058C29.1857 19.8499 28.8386 19.6183 28.4828 19.6893L21.7803 21.0268L21.2836 15.6016V7.6459C21.2836 7.27293 21.4916 6.94998 21.7531 6.71259C22.0177 6.47258 22.3428 6.30759 22.6219 6.30759C23.3612 6.30759 23.9602 6.90654 23.9602 7.6459V14.9737H23.8698C23.5065 14.9737 23.2116 15.2685 23.2116 15.6319C23.2116 15.9952 23.5065 16.29 23.8698 16.29H25.367C25.7303 16.29 26.0252 15.9952 26.0252 15.6319C26.0252 15.2685 25.7303 14.9737 25.367 14.9737H25.2766V4.65116C25.2766 4.26459 25.481 3.93945 25.7426 3.70557C26.0071 3.46863 26.3349 3.31286 26.6149 3.31286C27.3542 3.31286 27.9532 3.9118 27.9532 4.65116V14.9737H27.8628C27.4995 14.9737 27.2046 15.2685 27.2046 15.6319C27.2046 15.9952 27.4995 16.29 27.8628 16.29H29.3599C29.7233 16.29 30.0181 15.9952 30.0181 15.6319C30.0181 15.2685 29.7233 14.9737 29.3599 14.9737H29.2696V2.65467C29.2696 2.29969 29.467 1.31637 30.6079 1.31637C31.0313 1.31637 31.3481 1.57832 31.5705 1.8631C31.7978 2.15402 31.9462 2.47652 31.9462 2.65467V14.9737Z" fill="#FF3F4A"/>
</svg>
