<svg width="39" height="41" viewBox="0 0 39 41" fill="none" xmlns="http://www.w3.org/2000/svg">
<path d="M36.4167 15.3324C36.6684 15.3325 36.9177 15.2829 37.1502 15.1866C37.3828 15.0903 37.5941 14.9492 37.7721 14.7712C37.9501 14.5932 38.0913 14.3819 38.1876 14.1493C38.2839 13.9167 38.3334 13.6674 38.3333 13.4157V7.66573C38.3335 7.26356 38.207 6.87156 37.9718 6.54533C37.7367 6.2191 37.4047 5.97521 37.0231 5.84827L19.7731 0.0982663C19.3794 -0.0327554 18.9539 -0.0327554 18.5602 0.0982663L1.31021 5.84827C0.928612 5.97521 0.596675 6.2191 0.361495 6.54533C0.126314 6.87156 -0.000165086 7.26356 1.61717e-07 7.66573V13.4157C-6.53107e-05 13.6674 0.0494662 13.9167 0.145765 14.1493C0.242063 14.3819 0.383241 14.5932 0.561233 14.7712C0.739225 14.9492 0.950542 15.0903 1.18311 15.1866C1.41568 15.2829 1.66495 15.3325 1.91667 15.3324H3.83333V29.1022C2.71541 29.496 1.74678 30.2262 1.06043 31.1925C0.374075 32.1588 0.00364641 33.3138 1.61717e-07 34.4991V38.3324C-6.53107e-05 38.5841 0.0494662 38.8334 0.145765 39.066C0.242063 39.2985 0.383241 39.5098 0.561233 39.6878C0.739225 39.8658 0.950542 40.007 1.18311 40.1033C1.41568 40.1996 1.66495 40.2491 1.91667 40.2491H36.4167C36.6684 40.2491 36.9177 40.1996 37.1502 40.1033C37.3828 40.007 37.5941 39.8658 37.7721 39.6878C37.9501 39.5098 38.0913 39.2985 38.1876 39.066C38.2839 38.8334 38.3334 38.5841 38.3333 38.3324V34.4991C38.3297 33.3138 37.9593 32.1588 37.2729 31.1925C36.5865 30.2262 35.1179 29.496 34 29.1022V15.3324H36.4167ZM36 38H1.91667V34.4991C1.91717 33.9909 2.14067 32.3593 2.5 32C2.85933 31.6407 3.49182 31.0005 4 31H34C34.5082 31.0005 35.1407 31.6407 35.5 32C35.8593 32.3593 35.9995 33.9909 36 34.4991V38ZM6 29V15H12V29H6ZM14.5 29.1022V15H23.5V29L14.5 29.1022ZM26 29.1022V15H32V29.1022H26ZM1.91667 13L2 8L19 3L36 8V13H1.91667Z" fill="#FF3F4A"/>
</svg>
