<svg width="63" height="84" viewBox="0 0 63 84" fill="none" xmlns="http://www.w3.org/2000/svg">
<path id="Vector" d="M0 5.25C0 2.35102 2.33932 0 5.22388 0H57.4627C60.3521 0 62.6866 2.35102 62.6866 5.25C62.6866 8.14898 60.3521 10.5 57.4627 10.5V12.3014C57.4627 19.2609 54.7038 25.9383 49.8064 30.8602L38.7383 42L49.8064 53.1398C54.7038 58.0617 57.4627 64.7391 57.4627 71.6953V73.5C60.3521 73.5 62.6866 75.8461 62.6866 78.75C62.6866 81.6539 60.3521 84 57.4627 84H5.22388C2.33932 84 0 81.6539 0 78.75C0 75.8461 2.33932 73.5 5.22388 73.5V71.6953C5.22388 64.7391 7.97621 58.0617 12.8736 53.1398L23.9482 42L12.8736 30.8602C7.97621 25.9383 5.22388 19.2609 5.22388 12.3014V10.5C2.33932 10.5 0 8.14898 0 5.25ZM15.6716 10.5V12.3014C15.6716 16.4719 17.3204 20.4914 20.2589 23.4445L31.3433 34.568L42.4277 23.4445C45.3661 20.4914 47.0149 16.4719 47.0149 12.3014V10.5H15.6716ZM15.6716 73.5H47.0149V71.6953C47.0149 67.5281 45.3661 63.5086 42.4277 60.5555L31.3433 49.432L20.2589 60.5555C17.3204 63.5086 15.6716 67.5281 15.6716 71.6953V73.5Z" fill="#FF3F4A"/>
</svg>
