<svg width="84" height="84" viewBox="0 0 84 84" fill="none" xmlns="http://www.w3.org/2000/svg">
<path d="M42 0C33.6932 0 25.5729 2.46326 18.6661 7.07828C11.7592 11.6933 6.37596 18.2528 3.19708 25.9273C0.018198 33.6018 -0.813542 42.0466 0.807037 50.1938C2.42762 58.341 6.42773 65.8247 12.3015 71.6985C18.1753 77.5723 25.659 81.5724 33.8062 83.193C41.9534 84.8135 50.3982 83.9818 58.0727 80.8029C65.7472 77.624 72.3067 72.2408 76.9217 65.3339C81.5368 58.4271 84 50.3068 84 42C83.9882 30.8645 79.5594 20.1886 71.6854 12.3146C63.8114 4.44065 53.1355 0.0118589 42 0ZM42 73.5C35.7699 73.5 29.6797 71.6525 24.4996 68.1913C19.3194 64.73 15.282 59.8104 12.8978 54.0545C10.5137 48.2986 9.88985 41.965 11.1053 35.8547C12.3207 29.7442 15.3208 24.1315 19.7262 19.7261C24.1315 15.3208 29.7443 12.3207 35.8547 11.1053C41.9651 9.88983 48.2987 10.5136 54.0545 12.8978C59.8104 15.282 64.73 19.3194 68.1913 24.4995C71.6526 29.6797 73.5 35.7699 73.5 42C73.4909 50.3515 70.1692 58.3584 64.2638 64.2638C58.3584 70.1692 50.3515 73.4909 42 73.5Z" fill="#FF3F4A"/>
<path d="M56.9717 27.7887C56.4844 27.3011 55.9057 26.9143 55.2688 26.6504C54.6319 26.3865 53.9492 26.2507 53.2598 26.2507C52.5704 26.2507 51.8877 26.3865 51.2508 26.6504C50.6139 26.9143 50.0352 27.3011 49.5479 27.7887L42.7598 34.5768L35.9717 27.7887C34.9863 26.8088 33.6525 26.2596 32.2628 26.2615C30.8731 26.2635 29.5409 26.8164 28.5582 27.7991C27.5755 28.7817 27.0226 30.114 27.0207 31.5037C27.0187 32.8934 27.5679 34.2272 28.5479 35.2126L35.3359 42.0007L28.5479 48.7887C28.0582 49.2757 27.6694 49.8545 27.4038 50.492C27.1382 51.1295 27.001 51.8131 27 52.5037C26.999 53.1943 27.1344 53.8783 27.3982 54.5165C27.662 55.1547 28.0492 55.7346 28.5375 56.2229C29.0259 56.7113 29.6057 57.0984 30.244 57.3623C30.8822 57.6261 31.5662 57.7614 32.2568 57.7605C32.9474 57.7595 33.631 57.6223 34.2685 57.3567C34.906 57.091 35.4848 56.7023 35.9717 56.2126L42.7598 49.4245L49.5479 56.2126C50.5333 57.1925 51.8671 57.7417 53.2568 57.7398C54.6465 57.7379 55.9787 57.1849 56.9614 56.2023C57.9441 55.2196 58.497 53.8873 58.4989 52.4976C58.5009 51.1079 57.9517 49.7741 56.9717 48.7887L50.1837 42.0007L56.9717 35.2126C57.4593 34.7252 57.8461 34.1465 58.11 33.5096C58.374 32.8727 58.5098 32.1901 58.5098 31.5007C58.5098 30.8112 58.374 30.1286 58.11 29.4917C57.8461 28.8548 57.4593 28.2761 56.9717 27.7887Z" fill="#FF3F4A"/>
</svg>
