<svg width="43" height="43" viewBox="0 0 43 43" fill="none" xmlns="http://www.w3.org/2000/svg">
<path d="M25.0833 40.7591H17.9167C8.18792 40.7591 4.03125 36.6024 4.03125 26.8737V16.1237C4.03125 6.39495 8.18792 2.23828 17.9167 2.23828H25.0833C34.8121 2.23828 38.9688 6.39495 38.9688 16.1237V26.8737C38.9688 36.6024 34.8121 40.7591 25.0833 40.7591ZM17.9167 4.92578C9.65708 4.92578 6.71875 7.86411 6.71875 16.1237V26.8737C6.71875 35.1333 9.65708 38.0716 17.9167 38.0716H25.0833C33.3429 38.0716 36.2812 35.1333 36.2812 26.8737V16.1237C36.2812 7.86411 33.3429 4.92578 25.0833 4.92578H17.9167Z" fill="#FF3F4A"/>
<path d="M27.0015 22.468C26.679 22.468 26.3565 22.3426 26.1056 22.1276C23.4898 19.7984 19.5123 19.7984 16.8965 22.1276C16.6098 22.3963 16.2157 22.5038 15.8036 22.4501C15.4094 22.3963 15.069 22.1634 14.854 21.823L10.9482 15.5522C10.6077 14.9968 10.7152 14.2801 11.199 13.8322C17.0757 8.61844 25.9265 8.61844 31.8031 13.8322C32.2869 14.2622 32.3944 14.9968 32.054 15.5522L28.1481 21.823C27.9331 22.1634 27.5927 22.3784 27.1986 22.4501C27.1269 22.4501 27.0552 22.468 27.0015 22.468ZM21.5011 17.6843C23.2927 17.6843 25.0665 18.1859 26.6252 19.1713L29.1336 15.1401C24.6006 11.7718 18.3836 11.7718 13.8507 15.1401L16.359 19.1713C17.9356 18.168 19.7094 17.6843 21.5011 17.6843Z" fill="#FF3F4A"/>
</svg>
