<svg width="56" height="56" viewBox="0 0 56 56" fill="none" xmlns="http://www.w3.org/2000/svg">
<g id="2">
<rect width="56" height="56" rx="28" fill="#7FE0AE"/>
<path id="2_2" d="M21 40V37.3864C22.6057 35.8835 24.0261 34.5331 25.2613 33.3352C26.517 32.1373 27.5669 31.0156 28.4109 29.9702C29.2549 28.9029 29.8931 27.8684 30.3254 26.8665C30.7577 25.8646 30.9739 24.8191 30.9739 23.7301C30.9739 22.3362 30.6445 21.2254 29.9857 20.3977C29.327 19.5483 28.2668 19.1236 26.8052 19.1236C25.8789 19.1236 25.004 19.2978 24.1805 19.6463C23.3777 19.973 22.6057 20.3868 21.8646 20.8878L21.1853 18.5682C21.9264 18.0672 22.8013 17.6861 23.81 17.4247C24.8393 17.1416 25.9097 17 27.0214 17C29.2652 17 30.9533 17.5881 32.0855 18.7642C33.2177 19.9186 33.7838 21.4867 33.7838 23.4687C33.7838 24.8845 33.5059 26.2022 32.9501 27.4219C32.4149 28.6198 31.6738 29.7959 30.7268 30.9503C29.8005 32.0829 28.7094 33.2045 27.4537 34.3153C26.1979 35.4261 24.8599 36.5805 23.4394 37.7784H34V40H21Z" fill="black"/>
</g>
</svg>
