<svg width="56" height="56" viewBox="0 0 56 56" fill="none" xmlns="http://www.w3.org/2000/svg">
<g id="3">
<rect width="56" height="56" rx="28" fill="#7FE0AE"/>
<path id="3_2" d="M26.1824 40C24.8311 40 23.6261 39.8604 22.5676 39.5812C21.509 39.2806 20.6532 38.9155 20 38.486L20.6757 36.1345C21.2613 36.5854 22.0158 36.9827 22.9392 37.3263C23.8851 37.6485 25.0676 37.8095 26.4865 37.8095C27.3649 37.8095 28.1419 37.6914 28.8176 37.4552C29.5158 37.219 30.0901 36.8968 30.5405 36.4888C30.991 36.0593 31.3288 35.5654 31.5541 35.007C31.8018 34.4272 31.9257 33.8151 31.9257 33.1709C31.9257 31.7965 31.5203 30.7442 30.7095 30.014C29.9212 29.2838 28.6036 28.9188 26.7568 28.9188H24.2905V26.7283H26.8919C28.1982 26.7283 29.223 26.3954 29.9662 25.7297C30.7095 25.0425 31.0811 24.0654 31.0811 22.7983C31.0811 21.6172 30.7207 20.7045 30 20.0602C29.3018 19.416 28.0518 19.0938 26.25 19.0938C24.5383 19.0938 22.8604 19.6415 21.2162 20.7367L20.5405 18.4818C21.3739 17.9449 22.2973 17.5691 23.3108 17.3543C24.3243 17.1181 25.4054 17 26.5541 17C29.009 17 30.8671 17.5047 32.1284 18.514C33.3896 19.5233 34.0203 20.8978 34.0203 22.6373C34.0203 24.0546 33.6261 25.1821 32.8378 26.0196C32.0495 26.8357 31.0811 27.3618 29.9324 27.598C30.5856 27.7269 31.2162 27.9416 31.8243 28.2423C32.4324 28.5215 32.973 28.8973 33.4459 29.3697C33.9189 29.8207 34.2905 30.3683 34.5608 31.0126C34.8536 31.6569 35 32.387 35 33.2031C35 34.2554 34.7748 35.2003 34.3243 36.0378C33.8964 36.8753 33.2883 37.5948 32.5 38.1961C31.7342 38.7759 30.8108 39.2269 29.7297 39.549C28.6486 39.8497 27.4662 40 26.1824 40Z" fill="black"/>
</g>
</svg>
